<svg id="kitchen" xmlns="http://www.w3.org/2000/svg" width="20" height="20" viewBox="0 0 20 20">
  <rect id="Rectangle_463" data-name="Rectangle 463" width="20" height="20" fill="none"/>
  <path id="Path_103" data-name="Path 103" d="M19.865,12.135c-.09,0-.181.012-.271.012H.016C.01,12.078,0,12.023,0,11.967c0-.492,0-.984,0-1.475a.591.591,0,0,1,.672-.664h18.5c.406,0,.539.109.694.56v1.747Z" transform="translate(0.067 0.001)" fill="#209362"/>
  <path id="Path_104" data-name="Path 104" d="M11.244,0c.025.017.049.036.076.05a.582.582,0,0,1-.263,1.113c-.719,0-1.437,0-2.155,0H8.743v.707c0,.311.009.622,0,.932a.28.28,0,0,0,.191.3,1.712,1.712,0,0,1,.96,1.735A1.74,1.74,0,1,1,7.411,3.1a.252.252,0,0,0,.175-.273c-.01-.543,0-1.085,0-1.644H4.094v.2c0,.479.006.958,0,1.437a.265.265,0,0,0,.178.291,1.722,1.722,0,0,1,.939,1.956A1.742,1.742,0,1,1,2.764,3.095a.249.249,0,0,0,.171-.273c-.01-.543,0-1.085,0-1.657H.734C.33,1.164.1,1.021.023.729S.083.186.447,0Z" transform="translate(0.067 0.058)" fill="#209362"/>
  <path id="Path_105" data-name="Path 105" d="M19.933,19.379c-.166.5-.277.583-.806.583h-7.38V13.33h7.959a1.8,1.8,0,0,1,.228.028v6.019ZM15.826,18.8c.569,0,1.138,0,1.707,0a.582.582,0,0,0,.637-.623q.008-1.523,0-3.046a.587.587,0,0,0-.629-.634q-1.717-.005-3.434,0a.583.583,0,0,0-.624.636q0,1.514,0,3.027a.581.581,0,0,0,.636.64c.569,0,1.138,0,1.707,0Z" transform="translate(-0.001 -0.02)" fill="#209362"/>
  <path id="Path_106" data-name="Path 106" d="M.012,13.339H4.658v6.614c-.054,0-.116.007-.177.007q-1.911,0-3.823,0A.587.587,0,0,1,0,19.317Q0,16.4,0,13.477c0-.038.006-.076.011-.137Zm2.336,3.3c0,.129,0,.258,0,.388a.585.585,0,0,0,.547.592.574.574,0,0,0,.608-.53,6.422,6.422,0,0,0,0-.871.566.566,0,0,0-.6-.531.574.574,0,0,0-.552.584c0,.122,0,.245,0,.368Z" transform="translate(0.067 -0.02)" fill="#209362"/>
  <path id="Path_107" data-name="Path 107" d="M5.88,19.947v-6.6h4.645v6.6Zm2.315-3.3h0c0-.142.011-.285,0-.426a.577.577,0,0,0-1.153.038c-.007.252-.006.5,0,.755a.58.58,0,0,0,.558.6.586.586,0,0,0,.6-.582c.008-.129,0-.258,0-.387Z" transform="translate(0.033 -0.02)" fill="#209362"/>
  <path id="Path_108" data-name="Path 108" d="M18.588,6.184c-.009.366-.013.733-.03,1.1-.009.212-.035.424-.062.635a.851.851,0,0,1-.065.2c-.191.478-.251.519-.763.519-1.7,0-3.392,0-5.087,0a.364.364,0,0,1-.348-.185,1.767,1.767,0,0,1-.3-.948q-.009-.659-.015-1.319l0,0a1.332,1.332,0,0,1,.2-.031q3.131,0,6.261,0a1.7,1.7,0,0,1,.21.025l0,0Z" transform="translate(-0.002 0.022)" fill="#209362"/>
  <path id="Path_109" data-name="Path 109" d="M11.95,5a2.125,2.125,0,0,1,.439-1.782,1.7,1.7,0,0,1,1.254-.565c.329-.005.658,0,1.009,0a.688.688,0,0,1,.253-.659.738.738,0,0,1,.36-.111c.342-.005.492.2.58.769h.863A1.748,1.748,0,0,1,18.561,4.5c0,.154,0,.307,0,.479H12.175c-.076,0-.153.012-.229.019l0,0Z" transform="translate(-0.002 0.047)" fill="#209362"/>
  <path id="Path_110" data-name="Path 110" d="M11.941,5.012c0,.321-.008.642-.014.963,0,.071-.009.141-.015.212l0,0a.391.391,0,0,0-.106-.028.6.6,0,0,1-.652-.666.6.6,0,0,1,.789-.475l0,0Z" transform="translate(0.002 0.029)" fill="#209362"/>
  <path id="Path_111" data-name="Path 111" d="M18.631,6.181V5.012a.58.58,0,0,1,.735.5.587.587,0,0,1-.609.644,1.109,1.109,0,0,0-.13.022Z" transform="translate(-0.041 0.029)" fill="#209362"/>
  <path id="Path_112" data-name="Path 112" d="M17.015,17.641H14.678V15.68h2.337Z" transform="translate(-0.018 -0.033)" fill="#209362"/>
</svg>
