<svg xmlns="http://www.w3.org/2000/svg" xmlns:xlink="http://www.w3.org/1999/xlink" width="20" height="20" viewBox="0 0 20 20">
  <defs>
    <clipPath id="clip-path">
      <rect id="Rectangle_1063" data-name="Rectangle 1063" width="20" height="20" fill="#209362"/>
    </clipPath>
  </defs>
  <g id="Mask_Group_54" data-name="Mask Group 54" clip-path="url(#clip-path)">
    <g id="Layer_1-2" transform="translate(0.002 0)">
      <g id="area">
        <path id="Path_11373" data-name="Path 11373" d="M.425,20a.711.711,0,0,1-.409-.844c.165-1.342.3-2.688.449-4.032a.622.622,0,0,1,.388-.58.6.6,0,0,1,.686.191c.268.275.54.544.857.863a1.165,1.165,0,0,1,.125-.192q.963-.969,1.931-1.933a.6.6,0,0,1,.951-.007q.568.564,1.131,1.132a.594.594,0,0,1,0,.938Q5.567,16.5,4.6,17.466c-.05.05-.108.093-.185.158.312.307.608.589.892.881a.565.565,0,0,1-.031.873.847.847,0,0,1-.394.144c-1.33.153-2.662.3-3.993.444A.652.652,0,0,0,.777,20H.425Z" transform="translate(0 0.001)" fill="#209362"/>
        <path id="Path_11374" data-name="Path 11374" d="M20,.78c-.051.4-.108.8-.152,1.2-.111.982-.216,1.965-.324,2.947a.594.594,0,0,1-1.047.36c-.274-.277-.551-.553-.89-.894a.836.836,0,0,1-.107.2q-.955.964-1.917,1.92a.607.607,0,0,1-.993,0L13.488,5.434a.611.611,0,0,1,.007-1.007q.952-.953,1.906-1.9a1.219,1.219,0,0,1,.193-.126c-.318-.317-.588-.59-.864-.856a.6.6,0,0,1-.192-.685.621.621,0,0,1,.58-.388c1.377-.15,2.753-.3,4.129-.461a.672.672,0,0,1,.748.421V.779Z" transform="translate(0 0.001)" fill="#209362"/>
        <path id="Path_11375" data-name="Path 11375" d="M19.214,20c-.405-.052-.81-.108-1.216-.153-.976-.11-1.953-.215-2.929-.323a.593.593,0,0,1-.357-1.047c.279-.273.556-.548.9-.885a.934.934,0,0,1-.2-.113q-.964-.956-1.921-1.917a.607.607,0,0,1,0-.994q.559-.56,1.119-1.118a.587.587,0,0,1,.91,0q.977.97,1.947,1.947a2.143,2.143,0,0,1,.147.188l.863-.867a.593.593,0,0,1,1.047.357c.059.5.111,1.009.166,1.513q.139,1.261.279,2.522a.672.672,0,0,0,.032.111v.352a.884.884,0,0,1-.429.429h-.352Z" transform="translate(0 0.001)" fill="#209362"/>
        <path id="Path_11376" data-name="Path 11376" d="M13.315,10.018q0,1.317,0,2.635a.6.6,0,0,1-.661.665q-2.654,0-5.309,0a.6.6,0,0,1-.67-.676V7.353a.6.6,0,0,1,.671-.675h5.309a.6.6,0,0,1,.66.666Q13.317,8.681,13.315,10.018Z" transform="translate(0 0.001)" fill="#209362"/>
        <path id="Path_11377" data-name="Path 11377" d="M2.379,4.409c-.307.312-.578.583-.845.858a.6.6,0,0,1-.669.191.624.624,0,0,1-.4-.591Q.241,2.812.007.757A.613.613,0,0,1,.756.011Q2.8.246,4.846.466a.635.635,0,0,1,.61.4.607.607,0,0,1-.206.683c-.272.261-.538.529-.863.848a1.03,1.03,0,0,1,.2.121q.963.956,1.92,1.917a.607.607,0,0,1,0,.994q-.551.553-1.1,1.1a.593.593,0,0,1-.938,0Q3.494,5.571,2.53,4.6A2.283,2.283,0,0,1,2.379,4.409Z" transform="translate(0 0.001)" fill="#209362"/>
      </g>
    </g>
  </g>
</svg>
