<svg id="build_area" xmlns="http://www.w3.org/2000/svg" width="24" height="24" viewBox="0 0 24 24">
  <rect id="back" width="24" height="24" fill="none"/>
  <path id="Path_16293" data-name="Path 16293" d="M12.913,8.626a.527.527,0,0,0,.541-.906l-4.183-2.5a.532.532,0,0,0-.542,0l-4.183,2.5a.527.527,0,0,0,.541.906l.222-.132v3.3H4.816a.527.527,0,0,0,0,1.055h8.367a.527.527,0,0,0,0-1.055h-.492v-3.3ZM9.585,11.795V9.49H8.451v2.3H7.4V8.963a.527.527,0,0,1,.527-.527h2.189a.528.528,0,0,1,.527.527v2.832Z" transform="translate(3 3)" fill="#209362"/>
  <path id="Path_16294" data-name="Path 16294" d="M4.338,2.742h1.7a.527.527,0,0,0,0-1.055h-1.7a.527.527,0,0,0,0,1.055Z" transform="translate(3 3)" fill="#209362"/>
  <path id="Path_16295" data-name="Path 16295" d="M8.149,2.742h1.7a.527.527,0,0,0,0-1.055h-1.7a.527.527,0,0,0,0,1.055Z" transform="translate(3 3)" fill="#209362"/>
  <path id="Path_16296" data-name="Path 16296" d="M13.662,1.688h-1.7a.527.527,0,0,0,0,1.055h1.7a.527.527,0,0,0,0-1.055Z" transform="translate(3 3)" fill="#209362"/>
  <path id="Path_16297" data-name="Path 16297" d="M15.785,14.189a.527.527,0,0,0,.527-.527v-1.7a.527.527,0,0,0-1.055,0v1.7A.527.527,0,0,0,15.785,14.189Z" transform="translate(3 3)" fill="#209362"/>
  <path id="Path_16298" data-name="Path 16298" d="M15.785,10.378a.527.527,0,0,0,.527-.527v-1.7a.527.527,0,0,0-1.055,0v1.7A.527.527,0,0,0,15.785,10.378Z" transform="translate(3 3)" fill="#209362"/>
  <path id="Path_16299" data-name="Path 16299" d="M15.785,6.567a.527.527,0,0,0,.527-.527v-1.7a.527.527,0,0,0-1.055,0v1.7A.527.527,0,0,0,15.785,6.567Z" transform="translate(3 3)" fill="#209362"/>
  <path id="Path_16300" data-name="Path 16300" d="M2.215,11.433a.527.527,0,0,0-.527.527v1.7a.527.527,0,0,0,1.055,0v-1.7A.527.527,0,0,0,2.215,11.433Z" transform="translate(3 3)" fill="#209362"/>
  <path id="Path_16301" data-name="Path 16301" d="M2.215,7.622a.527.527,0,0,0-.527.527v1.7a.527.527,0,0,0,1.055,0v-1.7a.527.527,0,0,0-.527-.527Z" transform="translate(3 3)" fill="#209362"/>
  <path id="Path_16302" data-name="Path 16302" d="M2.215,3.811a.527.527,0,0,0-.527.527v1.7a.527.527,0,0,0,1.055,0v-1.7A.527.527,0,0,0,2.215,3.811Z" transform="translate(3 3)" fill="#209362"/>
  <path id="Path_16303" data-name="Path 16303" d="M13.662,15.258h-1.7a.527.527,0,0,0,0,1.055h1.7a.527.527,0,0,0,0-1.055Z" transform="translate(3 3)" fill="#209362"/>
  <path id="Path_16304" data-name="Path 16304" d="M6.04,15.258h-1.7a.527.527,0,0,0,0,1.055h1.7a.527.527,0,0,0,0-1.055Z" transform="translate(3 3)" fill="#209362"/>
  <path id="Path_16305" data-name="Path 16305" d="M15.785,2.742h1.688a.527.527,0,0,0,0-1.055h-1.16V.527a.527.527,0,0,0-1.055,0V2.215A.527.527,0,0,0,15.785,2.742Z" transform="translate(3 3)" fill="#209362"/>
  <path id="Path_16306" data-name="Path 16306" d="M2.215,0a.527.527,0,0,0-.527.527v1.16H.527a.527.527,0,0,0,0,1.055H2.215a.527.527,0,0,0,.527-.527V.527A.527.527,0,0,0,2.215,0Z" transform="translate(3 3)" fill="#209362"/>
  <path id="Path_16307" data-name="Path 16307" d="M17.473,15.258H15.785a.527.527,0,0,0-.527.527v1.688a.527.527,0,0,0,1.055,0v-1.16h1.16a.527.527,0,0,0,0-1.055Z" transform="translate(3 3)" fill="#209362"/>
  <path id="Path_16308" data-name="Path 16308" d="M2.215,15.258H.527a.527.527,0,0,0,0,1.055h1.16v1.16a.527.527,0,0,0,1.055,0V15.785A.527.527,0,0,0,2.215,15.258Z" transform="translate(3 3)" fill="#209362"/>
  <path id="Path_16309" data-name="Path 16309" d="M9.851,15.258h-1.7a.527.527,0,0,0,0,1.055h1.7a.527.527,0,0,0,0-1.055Z" transform="translate(3 3)" fill="#209362"/>
</svg>
