<svg id="Badroom" xmlns="http://www.w3.org/2000/svg" xmlns:xlink="http://www.w3.org/1999/xlink" width="20" height="20" viewBox="0 0 20 20">
  <defs>
    <clipPath id="clip-path">
      <rect id="Rectangle_467" data-name="Rectangle 467" width="20" height="20" transform="translate(306.531 431.667)" fill="#209362"/>
    </clipPath>
  </defs>
  <g id="Badroom-2" data-name="Badroom" transform="translate(-306.531 -431.667)" clip-path="url(#clip-path)">
    <g id="Layer_1-2" transform="translate(306.348 434.207)">
      <g id="Bedroom" transform="translate(0 0)">
        <path id="Path_87" data-name="Path 87" d="M.02,16.013V14.675H2.038V7.217H3.391v7.439H6.105V13.324H4.771c0-.09-.01-.158-.01-.225q0-1.209,0-2.418A2.038,2.038,0,0,1,6.886,8.562q5.683,0,11.366,0a2.034,2.034,0,0,1,2.117,2.106c0,.813,0,1.626,0,2.439v.2H19.026v1.361h1.332v1.344H.02Zm7.465-1.358H17.638V13.323H7.485Z" transform="translate(-0.003 -1.092)" fill="#209362"/>
        <path id="Path_88" data-name="Path 88" d="M19.525,6.345H16.149c0-.217,0-.427,0-.636a1.357,1.357,0,0,0-1.4-1.391q-.986-.005-1.971,0A1.357,1.357,0,0,0,11.4,5.7c0,.21,0,.421,0,.642H8.006v-.2c0-.812,0-1.626,0-2.438a2.036,2.036,0,0,1,2.1-2.1q3.667,0,7.334,0a2.036,2.036,0,0,1,2.105,2.1c0,.862,0,1.724,0,2.586a.364.364,0,0,1-.015.061Z" transform="translate(-1.212 -0.242)" fill="#209362"/>
        <path id="Path_89" data-name="Path 89" d="M5.459,4.75H.022A3.77,3.77,0,0,1,.156,3.225C.489,2.2.838,1.177,1.174.151,1.216.024,1.286,0,1.407,0,2.283,0,3.16,0,4.036.007a.264.264,0,0,1,.208.108,23.338,23.338,0,0,1,1.128,3.5,8.618,8.618,0,0,1,.087,1.131Z" transform="translate(0 0)" fill="#209362"/>
      </g>
    </g>
  </g>
</svg>
