<svg xmlns="http://www.w3.org/2000/svg" xmlns:xlink="http://www.w3.org/1999/xlink" width="20" height="20" viewBox="0 0 20 20">
  <defs>
    <clipPath id="clip-path">
      <rect id="Rectangle_1067" data-name="Rectangle 1067" width="20" height="20" fill="#209362"/>
    </clipPath>
  </defs>
  <g id="Mask_Group_56" data-name="Mask Group 56" clip-path="url(#clip-path)">
    <g id="Layer_1-2" transform="translate(0.002)">
      <g id="Garage">
        <path id="Path_11384" data-name="Path 11384" d="M9.842,0h.312c.1.063.21.124.314.188Q15,3.029,19.54,5.869A1.1,1.1,0,0,1,20,6.326V7.81c-.23.555-.738.406-1.162.437V18.824c.442.006.931-.115,1.162.428v.312a.744.744,0,0,1-.787.435c-.852-.017-1.7-.006-2.557-.006h-.21V11.333c0-.5-.216-.712-.713-.712H4.27c-.5,0-.715.214-.715.71v8.662c-1,0-1.971,0-2.94,0a.586.586,0,1,1,0-1.17c.18,0,.36,0,.543,0V8.24c-.187,0-.362,0-.537,0A.588.588,0,0,1,0,7.613C0,7.255,0,6.9,0,6.539a.626.626,0,0,1,.322-.582c.371-.227.739-.462,1.108-.693Zm-5.1,8.24c.182,0,.364,0,.545,0a.586.586,0,1,0,.007-1.17q-.564-.006-1.129,0a.585.585,0,1,0-.007,1.17c.195,0,.389,0,.584,0ZM8.26,7.068c-.2,0-.4,0-.6,0a.584.584,0,0,0-.01,1.168q.594.012,1.188,0a.584.584,0,0,0-.01-1.168C8.636,7.064,8.448,7.068,8.26,7.068ZM11.743,8.24c.2,0,.4.005.6,0a.584.584,0,0,0-.006-1.168q-.584-.01-1.168,0a.585.585,0,1,0,.006,1.169c.188,0,.377,0,.564,0Zm3.511,0c.2,0,.4.005.6,0a.584.584,0,0,0,0-1.169c-.389-.007-.779-.006-1.168,0a.584.584,0,1,0,0,1.169c.188.005.377,0,.564,0Z" transform="translate(0)" fill="#209362"/>
        <path id="Path_11385" data-name="Path 11385" d="M15.262,11.807v1.147H4.736V11.807H15.262Z" transform="translate(0)" fill="#209362"/>
        <path id="Path_11386" data-name="Path 11386" d="M15.258,15.3H4.742V14.149H15.258V15.3Z" transform="translate(0)" fill="#209362"/>
        <path id="Path_11387" data-name="Path 11387" d="M4.736,17.638V16.489H15.255v1.149Z" transform="translate(0)" fill="#209362"/>
        <path id="Path_11388" data-name="Path 11388" d="M15.26,19.986H4.74V18.834H15.259v1.152Z" transform="translate(0)" fill="#209362"/>
      </g>
    </g>
  </g>
</svg>
