<svg id="facilities" xmlns="http://www.w3.org/2000/svg" width="24" height="24" viewBox="0 0 24 24">
  <rect id="back" width="24" height="24" fill="none"/>
  <path id="Path_16324" data-name="Path 16324" d="M3.7,13.782a.9.9,0,0,0-.879.705l-.147.663-.456.15v1.065h.6a.45.45,0,0,0,.9,0h1.8a.45.45,0,0,0,.9,0h.972V15.84a.6.6,0,0,0-.534-.6l-.834-.093-.147-.663a.9.9,0,0,0-.879-.7ZM4.914,15h-1.2v-.6h1.2Z" transform="translate(2.4 2.4)" fill="#209362"/>
  <path id="Path_16325" data-name="Path 16325" d="M16.2,16.8V15.24l.426.3.348-.486-2.1-1.5a.3.3,0,0,0-.348,0l-2.1,1.5.348.486.426-.3V16.8h1.05v-.9h.9v.9Z" transform="translate(2.4 2.4)" fill="#209362"/>
  <path id="Path_16326" data-name="Path 16326" d="M15.432,5.4A4.143,4.143,0,0,0,16.5,4.218a1.17,1.17,0,0,0-.123-1.368.9.9,0,0,0-1.383,0l-.279.3-.279-.3a.9.9,0,0,0-1.383,0,1.17,1.17,0,0,0-.123,1.368A4.143,4.143,0,0,0,13.968,5.4l.732.552Z" transform="translate(2.4 2.4)" fill="#209362"/>
  <path id="Path_16327" data-name="Path 16327" d="M9.3,5.1V1.5A.9.9,0,0,0,8.4.6H1.5a.9.9,0,0,0-.9.9V8.4a.9.9,0,0,0,.9.9H5.1V8.7H1.5a.3.3,0,0,1-.3-.3V1.5a.3.3,0,0,1,.3-.3H8.4a.3.3,0,0,1,.3.3V5.1Z" transform="translate(2.4 2.4)" fill="#209362"/>
  <path id="Path_16328" data-name="Path 16328" d="M17.7.6H10.8a.9.9,0,0,0-.9.9V5.1h.6V1.5a.3.3,0,0,1,.3-.3h6.9a.3.3,0,0,1,.3.3V8.4a.3.3,0,0,1-.3.3H14.1v.6h3.6a.9.9,0,0,0,.9-.9V1.5a.9.9,0,0,0-.9-.9Z" transform="translate(2.4 2.4)" fill="#209362"/>
  <path id="Path_16329" data-name="Path 16329" d="M8.7,17.7a.3.3,0,0,1-.3.3H1.5a.3.3,0,0,1-.3-.3V10.8a.3.3,0,0,1,.3-.3H5.1V9.9H1.5a.9.9,0,0,0-.9.9v6.9a.9.9,0,0,0,.9.9H8.4a.9.9,0,0,0,.9-.9V14.1H8.7Z" transform="translate(2.4 2.4)" fill="#209362"/>
  <path id="Path_16330" data-name="Path 16330" d="M17.7,9.9H14.1v.6h3.6a.3.3,0,0,1,.3.3v6.9a.3.3,0,0,1-.3.3H10.8a.3.3,0,0,1-.3-.3V14.1H9.9v3.6a.9.9,0,0,0,.9.9h6.9a.9.9,0,0,0,.9-.9V10.8a.9.9,0,0,0-.9-.9Z" transform="translate(2.4 2.4)" fill="#209362"/>
  <path id="Path_16331" data-name="Path 16331" d="M6.3,3.75H4.95V2.4H3.75V3.75H2.4v1.2H3.75V6.3h1.2V4.95H6.3Z" transform="translate(2.4 2.4)" fill="#209362"/>
  <path id="Path_16332" data-name="Path 16332" d="M13.2,7.752l-.33-.057A6,6,0,0,1,9.6,6,6,6,0,0,1,6.33,7.692L6,7.749a7.137,7.137,0,0,0,3,5.007l.6.444.753-.582A7.116,7.116,0,0,0,13.2,7.752Zm-3.6,3a.45.45,0,0,1-.636,0L8.1,9.9l.636-.636.531.528,1.485-1.485.648.645Z" transform="translate(2.4 2.4)" fill="#209362"/>
</svg>
