<svg id="listed_by" xmlns="http://www.w3.org/2000/svg" width="24" height="24" viewBox="0 0 24 24">
  <rect id="back" width="24" height="24" fill="none"/>
  <path id="Path_16320" data-name="Path 16320" d="M12.964,2.825a.182.182,0,0,1,.257,0l3.637,3.637a.182.182,0,0,1,.053.129v5.775a.093.093,0,0,1-.038.078l-1.44.985a.086.086,0,0,1-.109-.006,1.408,1.408,0,0,0-.626-.369.2.2,0,0,1-.151-.188V9.183a.364.364,0,0,0-.364-.364H11.547a.364.364,0,0,0-.364.364v2.989a.214.214,0,0,1-.307.177,1.818,1.818,0,0,0-.758-.166H9.274A.182.182,0,0,1,9.092,12V6.772a.182.182,0,0,1,.053-.129Z" transform="translate(0.621 0.229)" fill="#209362"/>
  <path id="Path_16321" data-name="Path 16321" d="M5.467,14.89a.182.182,0,0,0-.006.261l2.681,2.73a.2.2,0,0,0,.242.025,1.818,1.818,0,0,1,.948-.267H14.3a2.417,2.417,0,0,0,1.624-.61,25.69,25.69,0,0,0,2.345-2.35,28.051,28.051,0,0,0,1.953-2.842.181.181,0,0,0-.065-.252l-.021-.012a1.455,1.455,0,0,0-1.892.4l-.548.742a.728.728,0,0,1-.174.168l-1.677,1.147a.252.252,0,0,0-.123.221,1.427,1.427,0,0,1,.009.161A1.409,1.409,0,0,1,14.32,15.82H11a.364.364,0,0,1,0-.727H14.32a.682.682,0,1,0,0-1.364H12.157a1.818,1.818,0,0,1-1.151-.411l-.2-.161a1.091,1.091,0,0,0-.691-.247H8.6a2.546,2.546,0,0,0-1.732.68Z" transform="translate(0.621 0.229)" fill="#209362"/>
  <path id="Path_16322" data-name="Path 16322" d="M12.157,13l-.073,0c-.143-.009-.177-.209-.174-.352,0,0,0-.006,0-.009V9.728a.182.182,0,0,1,.182-.182h1.546a.182.182,0,0,1,.182.182V12.82a.182.182,0,0,1-.182.182Z" transform="translate(0.621 0.229)" fill="#209362"/>
  <path id="Path_16323" data-name="Path 16323" d="M2.565,16.5a.182.182,0,0,1,0-.261L3.954,14.91a.182.182,0,0,1,.256,0l4.162,4.239a.182.182,0,0,1,0,.253L7.12,20.715a.182.182,0,0,1-.259,0Zm1.783-.392a.364.364,0,1,0-.514.514l.727.727a.364.364,0,0,0,.514-.514Z" transform="translate(0.621 0.229)" fill="#209362" fill-rule="evenodd"/>
</svg>
