<svg id="security" xmlns="http://www.w3.org/2000/svg" width="24" height="24" viewBox="0 0 24 24">
  <rect id="Rectangle_57" data-name="Rectangle 57" width="24" height="24" fill="none"/>
  <g id="Group_194" data-name="Group 194" transform="translate(-820.211 -258.795)">
    <path id="Path_180" data-name="Path 180" d="M832.385,281.8h-.344c-.309-.107-.622-.207-.928-.323a14.286,14.286,0,0,1-5.417-3.624,10.243,10.243,0,0,1-2.35-3.758,19.141,19.141,0,0,1-.891-4.778,34.758,34.758,0,0,1,.174-6.309.779.779,0,0,1,.675-.777q4.281-1.19,8.562-2.382a1.241,1.241,0,0,1,.695,0q4.28,1.2,8.562,2.381a.789.789,0,0,1,.678.8,36.7,36.7,0,0,1,.229,5,22.7,22.7,0,0,1-.571,4.747,10.03,10.03,0,0,1-1.276,3.217,13.97,13.97,0,0,1-6.373,5.281C833.345,281.467,832.861,281.621,832.385,281.8Zm-1.008-10.78c-.082-.1-.128-.163-.184-.219q-1.116-1.119-2.235-2.235a.73.73,0,0,0-1.148,0c-.215.211-.429.423-.638.639a.716.716,0,0,0,.008,1.1q1.821,1.828,3.649,3.649a.709.709,0,0,0,1.084.006q2.991-2.985,5.975-5.975a.714.714,0,0,0,.006-1.07c-.128-.135-.27-.258-.393-.4-.634-.711-1-.689-1.673,0-1.405,1.442-2.843,2.853-4.267,4.278C831.507,270.846,831.462,270.912,831.377,271.015Z" transform="translate(0 0)" fill="#209362"/>
  </g>
</svg>
