<svg id="furnishing" xmlns="http://www.w3.org/2000/svg" width="24" height="24" viewBox="0 0 24 24">
  <rect id="back" width="24" height="24" fill="none"/>
  <path id="Path_16313" data-name="Path 16313" d="M17.3,7.453H9.527v3.691H18V8.156A.7.7,0,0,0,17.3,7.453Zm-2.83,2.373H13.061a.527.527,0,0,1,0-1.055h1.406a.527.527,0,0,1,0,1.055Z" transform="translate(3 3)" fill="#209362"/>
  <path id="Path_16314" data-name="Path 16314" d="M3.375,5.7A.527.527,0,0,0,3.9,5.168V4.641H4.957V6.4H6.012V4.641H7.594a.527.527,0,0,0,.517-.629L7.408.426A.527.527,0,0,0,6.891,0H4.078a.527.527,0,0,0-.517.426l-.7,3.586a.526.526,0,0,0-.009.1h0V5.168A.527.527,0,0,0,3.375,5.7Z" transform="translate(3 3)" fill="#209362"/>
  <path id="Path_16315" data-name="Path 16315" d="M9.527,15.891h5.66v.527A1.584,1.584,0,0,0,16.77,18a.527.527,0,0,0,0-1.055.528.528,0,0,1-.527-.527v-.527H17.3a.7.7,0,0,0,.7-.7V12.2H9.527Zm3.533-2.373h1.406a.527.527,0,0,1,0,1.055H13.061a.527.527,0,0,1,0-1.055Z" transform="translate(3 3)" fill="#209362"/>
  <path id="Path_16316" data-name="Path 16316" d="M0,8.156v2.988H8.473V7.453H.7A.7.7,0,0,0,0,8.156Zm3.533.615H4.939a.527.527,0,0,1,0,1.055H3.533a.527.527,0,0,1,0-1.055Z" transform="translate(3 3)" fill="#209362"/>
  <path id="Path_16317" data-name="Path 16317" d="M0,15.188a.7.7,0,0,0,.7.7H1.758v.527a.528.528,0,0,1-.527.527A.527.527,0,0,0,1.23,18a1.584,1.584,0,0,0,1.582-1.582v-.527h5.66V12.2H0Zm3.533-1.67H4.939a.527.527,0,0,1,0,1.055H3.533a.527.527,0,0,1,0-1.055Z" transform="translate(3 3)" fill="#209362"/>
  <path id="Path_16318" data-name="Path 16318" d="M11.725,4.816a.791.791,0,0,0,0,1.582h4.482V5.344a.527.527,0,0,0-.527-.527Z" transform="translate(3 3)" fill="#209362"/>
  <path id="Path_16319" data-name="Path 16319" d="M11.109,3.762h3.955a.791.791,0,0,0,0-1.582H11.109a.527.527,0,0,0-.527.527v.527A.527.527,0,0,0,11.109,3.762Z" transform="translate(3 3)" fill="#209362"/>
</svg>
