<svg id="bathroom" xmlns="http://www.w3.org/2000/svg" width="20" height="20" viewBox="0 0 20 20">
  <rect id="Rectangle_465" data-name="Rectangle 465" width="20" height="20" fill="none"/>
  <path id="Path_90" data-name="Path 90" d="M18.687,10.987a8.264,8.264,0,0,1-.117,1.914,3.442,3.442,0,0,1-3.287,2.576q-5.295.016-10.59,0a3.446,3.446,0,0,1-3.4-3.41c0-.355,0-.71,0-1.079h17.4ZM18.04,12.05v-.023a.342.342,0,0,0-.312-.373.335.335,0,0,0-.331.355,2.237,2.237,0,0,1-2.17,2.183.346.346,0,0,0-.368.3.335.335,0,0,0,.259.338.774.774,0,0,0,.18.007,2.9,2.9,0,0,0,2.743-2.785Zm-4.513,2.145h0c-.107,0-.215-.006-.321,0a.319.319,0,0,0,0,.638c.22.009.442.01.662,0a.336.336,0,0,0,.308-.316.34.34,0,0,0-.3-.319c-.113-.01-.227,0-.341,0Z" transform="translate(0.013 1.284)" fill="#209362"/>
  <path id="Path_91" data-name="Path 91" d="M17.331,9.028H2.037c.011-.32.439-.6.753-.636.371-.039.4-.081.437-.458a1.557,1.557,0,0,1,1.68-1.411,2.975,2.975,0,0,1,.476.069c.28.06.368.026.506-.222A.956.956,0,0,1,7.57,6.276c.188.266.3.283.556.086a1.739,1.739,0,0,1,2.494.261,1.308,1.308,0,0,1,.337.8.332.332,0,0,0,.353.357.934.934,0,0,1,.853.6c.111.251.255.309.5.185A1.02,1.02,0,0,1,13.71,8.55c.194.112.431-.063.469-.312a2.766,2.766,0,0,1,.113-.528.848.848,0,0,1,.987-.6.952.952,0,0,1,.827.859c.035.339.086.38.431.426a.982.982,0,0,1,.795.636ZM3.868,8.033a.352.352,0,0,0,.3.352A.33.33,0,0,0,4.5,8.1a.388.388,0,0,1,.378-.369.327.327,0,0,0,.27-.349A.355.355,0,0,0,4.81,7.1.955.955,0,0,0,3.868,8.033Z" transform="translate(0.012 1.292)" fill="#209362"/>
  <path id="Path_92" data-name="Path 92" d="M19.34,9.058l-.636-.05V8.784q0-3.692,0-7.384a.683.683,0,0,0-.384-.691.648.648,0,0,0-.756.154c-.207.179-.421.351-.628.523a1.625,1.625,0,0,1-.139,1.9c-.222.282-.364.283-.618.034q-.846-.833-1.693-1.664c-.234-.23-.225-.4.025-.6a1.684,1.684,0,0,1,1.97-.115c.246-.2.5-.411.75-.624A1.269,1.269,0,0,1,19.306,1a1.592,1.592,0,0,1,.04.338q0,3.782,0,7.565c0,.053-.005.105-.008.156Z" transform="translate(-0.006 1.3)" fill="#209362"/>
  <path id="Path_93" data-name="Path 93" d="M10,9.682h8.817c.06,0,.121,0,.181,0a.321.321,0,1,1,.005.641c-.06,0-.12,0-.181,0H1.146c-.329,0-.508-.117-.5-.329s.176-.315.5-.315H10Z" transform="translate(0.014 1.286)" fill="#209362"/>
  <path id="Path_94" data-name="Path 94" d="M3.863,16.777v-.7l1.079.081-.3.616h7.725c.054,0,.108,0,.161,0a.323.323,0,1,1,0,.643c-.04,0-.081,0-.121,0H.482c-.31,0-.488-.121-.482-.329s.174-.316.475-.316H3.862Z" transform="translate(0.015 1.277)" fill="#209362"/>
  <path id="Path_95" data-name="Path 95" d="M15.351,16.777l-.306-.621,1.073-.083v.694c.082,0,.146.01.21.01.449,0,.9,0,1.347,0a.325.325,0,1,1,.009.642q-1.879,0-3.76,0a.325.325,0,1,1,.007-.643c.462,0,.923,0,1.419,0Z" transform="translate(-0.005 1.277)" fill="#209362"/>
  <path id="Path_96" data-name="Path 96" d="M19.345,17.42c-.113,0-.228.008-.34,0a.3.3,0,0,1-.292-.319A.3.3,0,0,1,19,16.783c.233-.01.468-.01.7,0A.3.3,0,0,1,20,17.1a.3.3,0,0,1-.293.318C19.586,17.428,19.465,17.42,19.345,17.42Z" transform="translate(-0.013 1.276)" fill="#209362"/>
  <path id="Path_97" data-name="Path 97" d="M14.23,4.875a.321.321,0,0,1-.322-.318.311.311,0,0,1,.313-.322.321.321,0,0,1,.326.313A.333.333,0,0,1,14.23,4.875Z" transform="translate(-0.006 1.294)" fill="#209362"/>
  <path id="Path_98" data-name="Path 98" d="M13.294,3.937a.315.315,0,0,1-.32-.316.31.31,0,0,1,.312-.321.316.316,0,0,1,.324.312.323.323,0,0,1-.316.324Z" transform="translate(-0.004 1.295)" fill="#209362"/>
  <path id="Path_99" data-name="Path 99" d="M14.094,5.905a.316.316,0,0,1-.318.318.31.31,0,0,1-.318-.315.316.316,0,0,1,.315-.322A.323.323,0,0,1,14.094,5.905Z" transform="translate(-0.005 1.292)" fill="#209362"/>
  <path id="Path_100" data-name="Path 100" d="M14.679,2.846A.325.325,0,0,1,15,3.167a.321.321,0,0,1-.642,0,.324.324,0,0,1,.322-.318Z" transform="translate(-0.006 1.296)" fill="#209362"/>
  <path id="Path_101" data-name="Path 101" d="M12.256,4.107a.321.321,0,0,1-.641-.012.321.321,0,0,1,.641.013Z" transform="translate(-0.002 1.295)" fill="#209362"/>
  <path id="Path_102" data-name="Path 102" d="M12.847,5.325a.321.321,0,0,1-.018-.641.321.321,0,0,1,.018.641Z" transform="translate(-0.004 1.293)" fill="#209362"/>
</svg>
