<svg id="construction_status" xmlns="http://www.w3.org/2000/svg" width="24" height="24" viewBox="0 0 24 24">
  <rect id="back" width="24" height="24" fill="none"/>
  <path id="Path_13976" data-name="Path 13976" d="M174.055,300.5h3.508v1.284h-3.508Z" transform="translate(-162.851 -283.688)" fill="#209362"/>
  <path id="Path_13977" data-name="Path 13977" d="M305.592,25.012h-1.621v1.493l1.621,1.226Z" transform="translate(-287.005 -20.416)" fill="#209362"/>
  <path id="Path_13978" data-name="Path 13978" d="M29.427,74.6v8.561h3.162V80.833h2.25V78.552h2.25V76.245h2.25v-2.3h3.493l-6.2-4.65Z" transform="translate(-24.636 -62.738)" fill="#209362"/>
  <path id="Path_13979" data-name="Path 13979" d="M123.242,351.949h3.508v1.324h-3.508Z" transform="translate(-114.291 -332.854)" fill="#209362"/>
  <path id="Path_13980" data-name="Path 13980" d="M224.867,351.949h3.508v1.324h-3.509Z" transform="translate(-211.41 -332.854)" fill="#209362"/>
  <path id="Path_13981" data-name="Path 13981" d="M0,8.524V9.552H.84L8.517,3.908l7.519,5.644h.989V8.615L8.512,2.175Z" transform="translate(3.486 1.41)" fill="#209362"/>
  <path id="Path_13982" data-name="Path 13982" d="M326.492,351.949h1.245v1.324h-1.245Z" transform="translate(-308.528 -332.854)" fill="#209362"/>
  <path id="Path_13983" data-name="Path 13983" d="M275.68,196.747h3.5v1.3h-3.5Z" transform="translate(-259.969 -184.535)" fill="#209362"/>
  <path id="Path_13984" data-name="Path 13984" d="M224.867,248.481h3.508v1.309h-3.509Z" transform="translate(-211.41 -233.975)" fill="#209362"/>
  <path id="Path_13985" data-name="Path 13985" d="M275.68,300.5h3.5v1.284h-3.5Z" transform="translate(-259.969 -283.688)" fill="#209362"/>
  <path id="Path_13986" data-name="Path 13986" d="M326.492,248.481h1.245v1.309h-1.245Z" transform="translate(-308.528 -233.975)" fill="#209362"/>
</svg>
