<svg id="pool" xmlns="http://www.w3.org/2000/svg" width="24" height="24" viewBox="0 0 24 24">
  <rect id="Rectangle_59" data-name="Rectangle 59" width="24" height="24" fill="none"/>
  <g id="Group_198" data-name="Group 198" transform="translate(-1063.75 -103)">
    <path id="Path_187" data-name="Path 187" d="M1087.027,117.818v3.67a4.751,4.751,0,0,1-2.169-.433,5.44,5.44,0,0,0-4.5.01,5.222,5.222,0,0,1-4.255,0,5.549,5.549,0,0,0-4.559,0,5.353,5.353,0,0,1-4.239.012,10.928,10.928,0,0,0-1.431-.437,5.4,5.4,0,0,0-.834-.079v-3.656a4.8,4.8,0,0,1,2.144.43,5.344,5.344,0,0,0,4.455.008,5.077,5.077,0,0,1,2.276-.444c.391.016.781.059,1.2.092v-2.939q0-3.627,0-7.254a2.743,2.743,0,0,1,1.981-2.694c.143-.042.29-.073.434-.109h.688a5.518,5.518,0,0,1,.768.248,3.013,3.013,0,0,1,1.6,3.419h-1.78c-.014-.02-.021-.026-.021-.031,0-.295,0-.59-.008-.884a.918.918,0,1,0-1.834.066c-.007.856,0,1.712,0,2.568a1.157,1.157,0,0,0,.015.13h4.571c0-.088,0-.166,0-.243,0-.849-.005-1.7,0-2.546a2.765,2.765,0,0,1,2.013-2.628c.13-.036.261-.066.391-.1h.688a.846.846,0,0,0,.119.04,2.611,2.611,0,0,1,1.9,1.338,7.07,7.07,0,0,1,.385,1.04v1.252h-1.839c0-.328.007-.636,0-.944a.891.891,0,0,0-.609-.831.912.912,0,0,0-1.212.928q0,4.955,0,9.909c0,.069.009.137.014.206l.041-.051c.473.157.958.287,1.417.478A5.444,5.444,0,0,0,1087.027,117.818Zm-10.076-.114c.353.038.7.078,1.047.112a8.513,8.513,0,0,0,3.52-.85v-1.895h-4.566Zm4.565-6.315h-4.563V113.2h4.563Z" transform="translate(-0.277 0)" fill="#209362"/>
    <path id="Path_188" data-name="Path 188" d="M1064.75,412.425v-4.491a4.445,4.445,0,0,1,1.464.182c.481.157.943.375,1.43.508a5.344,5.344,0,0,0,3.631-.219,5.587,5.587,0,0,1,3.627-.315c.434.1.842.311,1.268.45a5.31,5.31,0,0,0,3.816-.1,5.777,5.777,0,0,1,2.97-.473,4.762,4.762,0,0,1,1.206.273,6.961,6.961,0,0,0,2.589.606v3.584Z" transform="translate(0 -286.425)" fill="#209362"/>
  </g>
</svg>
