<svg id="carpet_area" xmlns="http://www.w3.org/2000/svg" width="24" height="24" viewBox="0 0 24 24">
  <rect id="back" width="24" height="24" fill="none"/>
  <path id="Path_16310" data-name="Path 16310" d="M17.632,15.824,16.458,14.65a.587.587,0,0,0-.83.83l.172.172H4.547l.172-.172a.587.587,0,0,0-.83-.83L2.716,15.824a.587.587,0,0,0,0,.831l1.174,1.174a.587.587,0,0,0,.83-.83l-.172-.172H15.8L15.628,17a.587.587,0,1,0,.83.83l1.174-1.174a.587.587,0,0,0,0-.831Z" transform="translate(3 3)" fill="#209362"/>
  <path id="Path_16311" data-name="Path 16311" d="M2.716,12.3l-.172.172V2l.172.172a.587.587,0,1,0,.83-.83L2.372.172a.587.587,0,0,0-.83,0L.368,1.346a.587.587,0,0,0,.83.83L1.37,2v10.47L1.2,12.3a.587.587,0,0,0-.83.83l1.174,1.174a.587.587,0,0,0,.83,0l1.174-1.174a.587.587,0,1,0-.83-.83Z" transform="translate(3 3)" fill="#209362"/>
  <path id="Path_16312" data-name="Path 16312" d="M14.87,4.7H17.8V.587A.587.587,0,0,0,17.217,0H9.2V4.7H12.13a.587.587,0,0,1,0,1.174H9.2V7.63a.587.587,0,1,1-1.174,0V0H5.478a.587.587,0,0,0-.587.587v12.13a.587.587,0,0,0,.587.587H8.022V10.37a.587.587,0,1,1,1.174,0V13.3h8.022a.587.587,0,0,0,.587-.587V5.87H14.87a.587.587,0,1,1,0-1.174Z" transform="translate(3 3)" fill="#209362"/>
</svg>
