<svg xmlns="http://www.w3.org/2000/svg" width="194.152" height="169.758" viewBox="0 0 194.152 169.758">
    <g data-name="Group 3427">
        <path data-name="Path 11275" d="M33.53 98.77a215.861 215.861 0 0 1 25.337-7.163 246.207 246.207 0 0 1 51.163-5.969h1.224a223.957 223.957 0 0 1 38.191 3.967 241.29 241.29 0 0 1 38.408 10.307q2.624.963 5.132 1.983a84.584 84.584 0 1 0-165.761-.739q3.077-1.24 6.307-2.39" transform="translate(-13.363)" style="fill:#fff"/>
        <path data-name="Path 11276" d="M97.872 184.7c-30.24-.224-73.407 8.048-97.872 22.52 31.226-9.947 62.091-16.922 95.721-16.773 29.632.135 53.758 3.85 98.431 17.838-23.26-13.785-65.787-23.362-96.28-23.585" transform="translate(0 -96.432)" style="fill:#fff"/>
        <path data-name="Path 11277" d="M91.135 123.714c-1.9 2.828-4.094 5.627-4.094 5.627a13.53 13.53 0 0 0 2.141-.335 6.043 6.043 0 0 0 1.288-.5s-.105.812-1.882 3.384a30.409 30.409 0 0 1-3.956 4.724s.527 0 1.355-.079a31.233 31.233 0 0 0 3.058-.667 42.252 42.252 0 0 1-3.977 4.854c-.941.982-4.629 4.838-4.629 4.838a37.882 37.882 0 0 0 4.047-.727 24.547 24.547 0 0 0 3.178-1.109 31.947 31.947 0 0 1-3.5 4.635 93.54 93.54 0 0 1-4.322 4.281q3.644-.925 7.348-1.749 4.432-.98 8.907-1.8l.128-.029v-16.427H94.88v-6.084h1.344V121.4a33.937 33.937 0 0 1-1.685-3.246s-1.745 3.09-3.4 5.561m98.838 23.615a25.834 25.834 0 0 1-2.818-4.091 29.243 29.243 0 0 0 3.4.6 15.468 15.468 0 0 0 5.034.125 54.239 54.239 0 0 1-6.713-5.576 26.91 26.91 0 0 1-3.583-4.292s1.384.064 2.931.064a34.336 34.336 0 0 0 3.672-.282 49.045 49.045 0 0 1-5.062-4.348 38.651 38.651 0 0 1-2.572-3.851 16.432 16.432 0 0 0 1.992.22 19.291 19.291 0 0 0 2.436 0 59.052 59.052 0 0 1-4.911-5.7 48.061 48.061 0 0 1-3.5-6.65 57.85 57.85 0 0 1-2.868 5.654 18.808 18.808 0 0 1-2.749 3.457l2.138.017v11.343h-1.72v14.394q1.344.235 2.69.484a264.943 264.943 0 0 1 17.154 3.773c-1.215-1.2-3.1-3.2-4.949-5.334" transform="translate(-41.686 -59.28)" style="fill:#087c7c"/>
        <path data-name="Path 11278" d="M145.59 38.787h-8.529v-6.716h-6.573v6.716h-12.62l-8.406 20.229H128.8zm-24.1 54.568h2.71V89.74h-2.706zM132.344 64.1H129.7v3.769h2.641zm7.793-3.362-26.293-.038v18.89H112.5v1.91h27.673zm-22.614 2.571h7.8v10.98h-7.8zm3.921 13.779-.055.2-.055.149-.165.05-.167.05h-2.984l-.166-.05-.166-.05-.11-.149-.056-.2v-.348l.056-.2.11-.149.166-.1.166-.05H121l.167.05.165.1.055.149.055.2zm1.88.1-.166-.1-.165-.151-.055-.2v-.5l.055-.2.165-.149.166-.1.164-.05h3.649l.222.05.164.1.166.149.056.2v.5l-.056.2-.166.151-.164.1-.222.05h-3.649zm7.02 1.952-.056.2-.11.15-.222.1-.165.051h-3.372l-.221-.051-.166-.1-.111-.15-.055-.2v-.5l.055-.149.111-.2.166-.1.221-.051h3.372l.165.051.222.1.11.2.056.149zm2.874-1.852-.055.2-.054.151-.166.048-.166.049h-3.151l-.165-.049-.111-.048-.055-.151-.055-.2v-.4l.055-.2.055-.149.111-.05.165-.05h3.151l.166.05.166.05.054.149.055.2zm3.573-3.059h-7.8V63.308h7.8zm-18.6 19.127h2.577v-3.615h-2.577zm3.022-7.365a3.917 3.917 0 0 0-2.985 1.668v1.165h5.972v-1.167a3.923 3.923 0 0 0-2.987-1.668m11.071-17.227h-2.641v3.609h2.641zm-2.571 24.592h2.577v-3.613h-2.577zm6.046-29.254h-2.642v3.769h2.642zm-13.984 3.715h2.643V64.1h-2.643zm13.984.94H133.1v3.615h2.654zm-14.047 3.56h2.706v-3.67h-2.706zm-3.351.056h2.578v-3.72h-2.578zm0-4.552h2.713V64.1h-2.713zm58.761-42.812h-4.77v2.723l4.77 5.985zm-29.575 59.54-.125-.055-.124-.056h-2.8l-.186.056-.126.055-.062.112-.061.168v.447l.061.169.062.112.126.054.186.056h2.8l.124-.056.125-.054.125-.112.062-.169v-.447l-.062-.168zm-.662 6.052-.153-.089-.2-.046H143.3l-.2.046-.152.089-.151.137-.051.182v.456l.051.227.151.136.152.045.2.046h3.234l.2-.046.153-.045.1-.136.052-.227v-.456l-.052-.182zm.754-24.519.125-.054.125-.112.062-.168V65.3l-.062-.167-.125-.112-.125-.056-.123-.056h-2.8l-.186.056-.125.056-.062.112-.061.167v.448l.061.168.062.112.125.054.186.057h2.8zm-1.156 22.506.187-.055.123-.169.063-.28v-.56l-.063-.223-.123-.169-.187-.11-.249-.056h-3.981l-.248.056-.187.11-.185.169-.063.223v.56l.063.28.185.169.187.055.248.057h3.981zm-4.566-24.668.248.056h3.981l.249-.056.187-.056.123-.169.063-.28v-.56l-.063-.223-.123-.169-.187-.111-.249-.056h-3.981l-.248.056-.187.111-.185.169-.063.223v.56l.063.28.185.169zm7.339 10.609v21.74q1.661-.042 3.282-.054V81.269a4.789 4.789 0 0 1 7.968 0v15.073q1.626.065 3.281.159V74.567a20.6 20.6 0 0 0-14.531-.041m16.1 9.048h24.757v-7.9h-24.762zm1.889 11.96h7.46V85.453h-7.46zm4.074-8.977h2.447v3.073h-2.447zm-.061 3.784h2.508v3.013h-2.508zm-3.1-3.784h2.442v3.073h-2.446zm-.06 3.771h2.447v3.026h-2.447zm18.374 8.682q.961.151 1.923.31V84.851h-1.923zm-10.342-3.452h7.484V85.454h-7.484zm4.066-9h2.447v3.072h-2.447zm-.062 3.757h2.509v3.039h-2.509zm-3.1-3.757h2.447v3.072h-2.447zm-.06 3.771h2.446v3.026h-2.446zm4.726-38.984 4.768 5.685V74.6h1.923V59.4l-.317-.052h7.158l-31.579-39.116-32.618 39.115 9.448-.027.1-2.754 4.319-5.221zM158.962 37.66a5.3 5.3 0 0 1 8.934 0v6.526h-8.934zm-9.056 33.485c.059-.021.123-.04.183-.06.171-.056.345-.112.527-.167l.26-.074q.249-.072.509-.14c.1-.026.2-.051.308-.076q.254-.061.519-.118l.343-.07c.177-.035.359-.067.543-.1.12-.02.241-.041.365-.059.191-.028.388-.053.585-.076.123-.015.245-.031.37-.044.219-.022.444-.038.67-.054.11-.007.218-.018.33-.023a19.794 19.794 0 0 1 2.103.001c.112.006.221.016.332.023.23.016.459.033.682.056.125.012.246.028.368.043a16.67 16.67 0 0 1 .957.139c.194.033.385.068.572.106l.32.065c.2.043.388.087.575.134l.258.064c.223.058.438.119.647.181l.124.035c.515.156.988.322 1.414.487a15.947 15.947 0 0 1 2.494 1.2v-1.355a14.23 14.23 0 0 0-2.48-1.244V53.712h-14.528v16.26a14.475 14.475 0 0 0-2.6 1.291v1.357a15.96 15.96 0 0 1 2.6-1.242c.205-.078.424-.156.65-.233m2.53-15.838h8.172v13.744a19.711 19.711 0 0 0-8.172-.026zm-19.424 38.048h2.706V89.74h-2.706zm30.414-56.909a4.365 4.365 0 0 0-3.236 1.775v3.545h6.478v-3.545a4.377 4.377 0 0 0-3.242-1.775m-49.582 47.031v16.481a255.642 255.642 0 0 1 26.351-3.258l-.021-13.224zM125.132 95.4H117.4v-8.279a4.586 4.586 0 0 1 7.728 0zm11.523 0h-7.729v-8.279a4.587 4.587 0 0 1 7.729 0zm-3.924-9.411a3.915 3.915 0 0 0-2.985 1.668v1.165h5.973v-1.165a3.923 3.923 0 0 0-2.988-1.668m47.208-31.107H171.5v19.64h8.435zm-1.125 15.9h-2.642V66.5h2.642zm0-5.286h-2.642v-4.278h2.642zm-2.684-9.406h2.682v4.293h-2.682zm-3.5 0h2.643v4.282h-2.643zm0 5.127h2.685V65.5h-2.685zm0 5.274h2.643v4.293h-2.643zm-19.073-.8h2.51v-4.176h-2.51zm0-4.9h2.573v-4.226h-2.573zm3.264 4.9h2.636v-4.177h-2.636zm2.636-9.125h-2.7v4.229h2.7z" transform="translate(-57.151 -10.563)" style="fill:#087c7c"/>
    </g>
    <path data-name="Path 11279" d="M-58.624.57a10.5 10.5 0 0 1-5.368-1.34 9.293 9.293 0 0 1-3.591-3.743 11.669 11.669 0 0 1-1.283-5.577 12.655 12.655 0 0 1 1.266-5.832 9.228 9.228 0 0 1 3.524-3.819 10.075 10.075 0 0 1 5.263-1.349 9.481 9.481 0 0 1 5.339 1.453 8.755 8.755 0 0 1 3.3 4.133 14.41 14.41 0 0 1 .864 6.365h-3.971v-1.444a8.778 8.778 0 0 0-1.358-5.282 4.759 4.759 0 0 0-4.019-1.71 5.391 5.391 0 0 0-4.484 1.881 8.544 8.544 0 0 0-1.5 5.434 8.115 8.115 0 0 0 1.5 5.234 5.252 5.252 0 0 0 4.332 1.853 5.971 5.971 0 0 0 3.221-.845 5.669 5.669 0 0 0 2.119-2.423l3.895 1.235a9.193 9.193 0 0 1-3.634 4.265A10.057 10.057 0 0 1-58.624.57zm-7.315-9.709v-3.1h14.649v3.1zM-45.058 0v-27.36H-34.3a8.336 8.336 0 0 1 4.37 1.064 7.039 7.039 0 0 1 2.66 2.746 7.45 7.45 0 0 1 .893 3.543 6.668 6.668 0 0 1-1.111 3.876 5.546 5.546 0 0 1-2.993 2.2l-.038-.931A6.9 6.9 0 0 1-26.5-12.34a7.059 7.059 0 0 1 1.406 4.36 8.745 8.745 0 0 1-.959 4.2A6.76 6.76 0 0 1-28.842-1a9.166 9.166 0 0 1-4.436 1zm4.028-3.781h7.144a5.549 5.549 0 0 0 2.423-.513 4.031 4.031 0 0 0 1.691-1.473 4.139 4.139 0 0 0 .618-2.29 4.6 4.6 0 0 0-.542-2.233 3.969 3.969 0 0 0-1.558-1.577 4.733 4.733 0 0 0-2.384-.58h-7.392zm0-12.407h6.669a4.339 4.339 0 0 0 1.986-.446 3.455 3.455 0 0 0 1.406-1.292 3.811 3.811 0 0 0 .522-2.042 3.484 3.484 0 0 0-1.064-2.622 3.932 3.932 0 0 0-2.85-1.026h-6.669zM-21.308 0v-20.52h3.534v4.978l-.494-.646A7.726 7.726 0 0 1-17.28-18a5.6 5.6 0 0 1 1.406-1.358 6.163 6.163 0 0 1 1.738-.884 8.006 8.006 0 0 1 1.967-.38 7.835 7.835 0 0 1 1.938.1v3.722a6.393 6.393 0 0 0-2.233-.152 4.917 4.917 0 0 0-2.252.779 4.935 4.935 0 0 0-1.53 1.52 6.328 6.328 0 0 0-.807 1.985 10.444 10.444 0 0 0-.247 2.309V0zM1.91.57A10.008 10.008 0 0 1-3.429-.817a9.269 9.269 0 0 1-3.487-3.829 12.4 12.4 0 0 1-1.225-5.634 12.2 12.2 0 0 1 1.254-5.653 9.269 9.269 0 0 1 3.515-3.8A10.058 10.058 0 0 1 1.91-21.09a10.008 10.008 0 0 1 5.339 1.39 9.348 9.348 0 0 1 3.5 3.819 12.214 12.214 0 0 1 1.235 5.605 12.282 12.282 0 0 1-1.244 5.653A9.334 9.334 0 0 1 7.23-.808 10.024 10.024 0 0 1 1.91.57zm0-3.743a5.1 5.1 0 0 0 4.4-1.986 8.453 8.453 0 0 0 1.453-5.121 8.255 8.255 0 0 0-1.472-5.139 5.166 5.166 0 0 0-4.38-1.929 5.609 5.609 0 0 0-3.287.9A5.346 5.346 0 0 0-3.3-13.956a9.958 9.958 0 0 0-.627 3.677 8.292 8.292 0 0 0 1.486 5.168A5.14 5.14 0 0 0 1.91-3.173zM16.14 0l.019-27.36h4.028v16.72l8.056-9.88H33.3l-8.515 10.26L34.171 0h-5.4l-8.584-9.88V0zm28.652.57a10.5 10.5 0 0 1-5.367-1.34 9.293 9.293 0 0 1-3.591-3.743 11.67 11.67 0 0 1-1.283-5.577 12.655 12.655 0 0 1 1.264-5.833 9.228 9.228 0 0 1 3.524-3.819A10.075 10.075 0 0 1 44.6-21.09a9.481 9.481 0 0 1 5.339 1.453 8.755 8.755 0 0 1 3.3 4.133 14.41 14.41 0 0 1 .861 6.365h-3.969v-1.444a8.778 8.778 0 0 0-1.358-5.282 4.759 4.759 0 0 0-4.019-1.71 5.391 5.391 0 0 0-4.484 1.881 8.544 8.544 0 0 0-1.5 5.434 8.115 8.115 0 0 0 1.5 5.234 5.252 5.252 0 0 0 4.33 1.853 5.971 5.971 0 0 0 3.221-.845 5.669 5.669 0 0 0 2.119-2.423l3.895 1.235a9.193 9.193 0 0 1-3.628 4.265A10.057 10.057 0 0 1 44.792.57zm-7.315-9.709v-3.1h14.649v3.1zM58.358 0v-20.52h3.534v4.978l-.494-.646A7.726 7.726 0 0 1 62.386-18a5.6 5.6 0 0 1 1.406-1.358 6.163 6.163 0 0 1 1.738-.884 8.006 8.006 0 0 1 1.967-.38 7.835 7.835 0 0 1 1.938.1v3.722a6.393 6.393 0 0 0-2.232-.152 4.917 4.917 0 0 0-2.252.779 4.935 4.935 0 0 0-1.529 1.52 6.328 6.328 0 0 0-.807 1.985 10.444 10.444 0 0 0-.247 2.309V0z" transform="translate(94.576 143.398)" style="fill:#fff"/>
    <path data-name="Path 11280" d="M-71.673 0v-10.08h.588v9.492h5.012V0zm9.968.21a3.412 3.412 0 0 1-1.845-.483 3.159 3.159 0 0 1-1.193-1.379 4.974 4.974 0 0 1-.42-2.128 5.029 5.029 0 0 1 .417-2.135 3.115 3.115 0 0 1 1.19-1.376 3.445 3.445 0 0 1 1.852-.479 3.383 3.383 0 0 1 1.855.49 3.118 3.118 0 0 1 1.18 1.421 5.562 5.562 0 0 1 .41 2.247h-.63v-.2a3.986 3.986 0 0 0-.767-2.5 2.514 2.514 0 0 0-2.047-.872 2.562 2.562 0 0 0-2.086.892 3.819 3.819 0 0 0-.742 2.51 3.819 3.819 0 0 0 .742 2.51 2.562 2.562 0 0 0 2.086.893 3.043 3.043 0 0 0 1.643-.44 3.113 3.113 0 0 0 1.127-1.267l.49.28a3.463 3.463 0 0 1-1.309 1.491 3.63 3.63 0 0 1-1.953.525zm-3.08-3.822V-4.2h6.16v.588zM-52.675 0A4.074 4.074 0 0 1-53.8.095a2.328 2.328 0 0 1-.987-.266 1.477 1.477 0 0 1-.651-.711 2.092 2.092 0 0 1-.189-.752q-.021-.381-.021-.872V-9.66h.588v7.154q0 .49.01.791a1.359 1.359 0 0 0 .144.567 1.108 1.108 0 0 0 .8.619 3.976 3.976 0 0 0 1.431-.031zm-4.746-6.972v-.588h4.746v.588zm12.152 7.14a3.293 3.293 0 0 1-1.054-.161 2.705 2.705 0 0 1-.854-.466 2.734 2.734 0 0 1-.633-.741 3.607 3.607 0 0 1-.392-1 5.378 5.378 0 0 1-.133-1.235V-7.56h.588v4a5.288 5.288 0 0 0 .164 1.4 2.609 2.609 0 0 0 .486.984 1.981 1.981 0 0 0 .781.577 2.726 2.726 0 0 0 1.046.189 2.631 2.631 0 0 0 1.18-.242 2.1 2.1 0 0 0 .788-.661 2.86 2.86 0 0 0 .441-.966 4.635 4.635 0 0 0 .14-1.155l.546-.014a4.412 4.412 0 0 1-.425 2.093A2.687 2.687 0 0 1-43.733-.2a3.294 3.294 0 0 1-1.536.368zm2.59-.168v-1.54h-.042v-6.02h.588V0zm5.4.2A3.913 3.913 0 0 1-39.4-.34a2.256 2.256 0 0 1-1.05-1.481l.6-.112a1.852 1.852 0 0 0 .886 1.12 3.245 3.245 0 0 0 1.7.42 2.721 2.721 0 0 0 1.635-.441 1.4 1.4 0 0 0 .605-1.2 1.16 1.16 0 0 0-.182-.675 1.58 1.58 0 0 0-.711-.48 14.183 14.183 0 0 0-1.557-.5 11.2 11.2 0 0 1-1.676-.57 2.04 2.04 0 0 1-.84-.623 1.451 1.451 0 0 1-.242-.851 1.692 1.692 0 0 1 .357-1.064 2.336 2.336 0 0 1 .987-.721 3.806 3.806 0 0 1 1.456-.259 3.9 3.9 0 0 1 1.5.276 2.721 2.721 0 0 1 1.078.77 2.056 2.056 0 0 1 .472 1.137l-.6.112a1.82 1.82 0 0 0-.809-1.249 2.931 2.931 0 0 0-1.683-.458 2.658 2.658 0 0 0-1.543.385 1.207 1.207 0 0 0-.6 1.043.954.954 0 0 0 .2.612 1.755 1.755 0 0 0 .707.466 10.3 10.3 0 0 0 1.4.434 10.471 10.471 0 0 1 1.768.581 2.06 2.06 0 0 1 .889.686 1.746 1.746 0 0 1 .262.982 1.913 1.913 0 0 1-.77 1.614A3.421 3.421 0 0 1-37.275.2zM-25.8.21a4.73 4.73 0 0 1-1.974-.385 3.831 3.831 0 0 1-1.409-1.085 4.731 4.731 0 0 1-.851-1.663 7.474 7.474 0 0 1-.284-2.117 6.87 6.87 0 0 1 .5-2.72A4.09 4.09 0 0 1-28.3-9.608a4.434 4.434 0 0 1 2.51-.668 4.068 4.068 0 0 1 2.4.675 3.7 3.7 0 0 1 1.365 1.746l-.574.238a3.17 3.17 0 0 0-1.183-1.509 3.459 3.459 0 0 0-2.018-.562 3.7 3.7 0 0 0-2.153.592 3.614 3.614 0 0 0-1.292 1.641 6.457 6.457 0 0 0-.448 2.415 6.114 6.114 0 0 0 .42 2.415 3.624 3.624 0 0 0 1.311 1.648 3.738 3.738 0 0 0 2.167.6A3.809 3.809 0 0 0-23.7-.893a2.971 2.971 0 0 0 1.166-1.432 5.693 5.693 0 0 0 .368-2.128h-2.688v-.587h3.29q.021.2.024.35t0 .252a6.083 6.083 0 0 1-.441 2.37A3.6 3.6 0 0 1-23.363-.4 4.388 4.388 0 0 1-25.8.21zm8.722-.042a3.293 3.293 0 0 1-1.049-.161 2.705 2.705 0 0 1-.854-.466 2.734 2.734 0 0 1-.634-.745 3.607 3.607 0 0 1-.392-1 5.378 5.378 0 0 1-.133-1.235V-7.56h.588v4a5.288 5.288 0 0 0 .165 1.4 2.609 2.609 0 0 0 .486.984 1.981 1.981 0 0 0 .781.576 2.726 2.726 0 0 0 1.046.189 2.631 2.631 0 0 0 1.18-.242 2.1 2.1 0 0 0 .787-.661 2.86 2.86 0 0 0 .441-.966 4.635 4.635 0 0 0 .14-1.155l.546-.014a4.412 4.412 0 0 1-.427 2.089 2.687 2.687 0 0 1-1.13 1.16 3.294 3.294 0 0 1-1.536.368zM-14.483 0v-1.54h-.042v-6.02h.588V0zm2.783-9.184v-.9h.588v.9zm0 9.184v-7.56h.588V0zm5.7.21a3 3 0 0 1-1.8-.529 3.282 3.282 0 0 1-1.11-1.435 5.257 5.257 0 0 1-.378-2.041 5.259 5.259 0 0 1 .37-2.015 3.3 3.3 0 0 1 1.081-1.431 2.81 2.81 0 0 1 1.726-.529 3 3 0 0 1 1.781.514 3.168 3.168 0 0 1 1.1 1.414 5.33 5.33 0 0 1 .371 2.047 5.369 5.369 0 0 1-.367 2.034A3.332 3.332 0 0 1-4.3-.322 2.729 2.729 0 0 1-6 .21zm0-.588a2.412 2.412 0 0 0 1.488-.448 2.712 2.712 0 0 0 .9-1.222 4.785 4.785 0 0 0 .3-1.747 4.722 4.722 0 0 0-.3-1.753 2.647 2.647 0 0 0-.9-1.2A2.455 2.455 0 0 0-6-7.182a2.419 2.419 0 0 0-1.495.444 2.622 2.622 0 0 0-.878 1.211 4.914 4.914 0 0 0-.287 1.732 4.785 4.785 0 0 0 .3 1.747 2.733 2.733 0 0 0 .894 1.222A2.359 2.359 0 0 0-6-.378zM-3.311 0v-5.95h-.042v-4.13h.588V0zm5.684.21A3.412 3.412 0 0 1 .528-.273 3.159 3.159 0 0 1-.665-1.652a4.974 4.974 0 0 1-.42-2.128 5.029 5.029 0 0 1 .416-2.135 3.115 3.115 0 0 1 1.19-1.376 3.445 3.445 0 0 1 1.852-.479 3.383 3.383 0 0 1 1.855.49 3.118 3.118 0 0 1 1.18 1.421 5.562 5.562 0 0 1 .41 2.247h-.63v-.2a3.986 3.986 0 0 0-.767-2.5 2.514 2.514 0 0 0-2.048-.872 2.562 2.562 0 0 0-2.086.894 3.819 3.819 0 0 0-.742 2.51 3.819 3.819 0 0 0 .742 2.51 2.562 2.562 0 0 0 2.086.893 3.043 3.043 0 0 0 1.645-.442 3.113 3.113 0 0 0 1.127-1.267l.49.28A3.463 3.463 0 0 1 4.326-.315 3.63 3.63 0 0 1 2.373.21zm-3.08-3.822V-4.2h6.16v.588zM11.571 3.36l1.47-3.948.014 1.176L9.737-7.56h.644l2.968 7.336H12.9l2.66-7.336h.63L12.229 3.36zM20.419.21a3.343 3.343 0 0 1-1.89-.51 3.208 3.208 0 0 1-1.169-1.415 5.1 5.1 0 0 1-.4-2.079 5.011 5.011 0 0 1 .406-2.086 3.161 3.161 0 0 1 1.18-1.393 3.391 3.391 0 0 1 1.872-.5 3.373 3.373 0 0 1 1.9.507 3.169 3.169 0 0 1 1.165 1.4 5.07 5.07 0 0 1 .4 2.065 5.131 5.131 0 0 1-.4 2.1 3.158 3.158 0 0 1-1.173 1.4 3.382 3.382 0 0 1-1.891.511zm0-.588a2.472 2.472 0 0 0 2.128-.949 4.052 4.052 0 0 0 .7-2.468 3.963 3.963 0 0 0-.7-2.467 2.505 2.505 0 0 0-2.125-.92 2.721 2.721 0 0 0-1.585.434 2.6 2.6 0 0 0-.934 1.2 4.667 4.667 0 0 0-.308 1.757 3.972 3.972 0 0 0 .717 2.478 2.493 2.493 0 0 0 2.107.935zm8.064.546a3.293 3.293 0 0 1-1.054-.161 2.705 2.705 0 0 1-.854-.466 2.734 2.734 0 0 1-.634-.745 3.607 3.607 0 0 1-.392-1 5.378 5.378 0 0 1-.133-1.235V-7.56H26v4a5.288 5.288 0 0 0 .165 1.4 2.609 2.609 0 0 0 .486.984 1.981 1.981 0 0 0 .781.577 2.726 2.726 0 0 0 1.046.189 2.631 2.631 0 0 0 1.18-.242 2.1 2.1 0 0 0 .788-.661 2.86 2.86 0 0 0 .441-.966 4.635 4.635 0 0 0 .14-1.155l.546-.014a4.412 4.412 0 0 1-.427 2.089A2.687 2.687 0 0 1 30.019-.2a3.294 3.294 0 0 1-1.536.368zM31.073 0v-1.54h-.042v-6.02h.588V0zm5.586 0v-10.08h.588v4.746h6.1v-4.746h.588V0h-.588v-4.746h-6.1V0zm12.418.21a3.343 3.343 0 0 1-1.89-.51 3.208 3.208 0 0 1-1.169-1.414 5.1 5.1 0 0 1-.4-2.079 5.011 5.011 0 0 1 .406-2.086A3.161 3.161 0 0 1 47.2-7.273a3.391 3.391 0 0 1 1.873-.5 3.373 3.373 0 0 1 1.9.507 3.169 3.169 0 0 1 1.166 1.4 5.07 5.07 0 0 1 .4 2.065 5.131 5.131 0 0 1-.4 2.1 3.158 3.158 0 0 1-1.173 1.4 3.382 3.382 0 0 1-1.889.511zm0-.588a2.472 2.472 0 0 0 2.123-.949 4.052 4.052 0 0 0 .7-2.468 3.963 3.963 0 0 0-.7-2.467 2.505 2.505 0 0 0-2.125-.92 2.721 2.721 0 0 0-1.586.434 2.6 2.6 0 0 0-.934 1.2 4.667 4.667 0 0 0-.308 1.757 3.972 3.972 0 0 0 .718 2.478 2.493 2.493 0 0 0 2.112.935zM63.189 0l.011-5.208a1.988 1.988 0 0 0-.55-1.492 1.873 1.873 0 0 0-1.365-.543 2.226 2.226 0 0 0-.907.2 1.769 1.769 0 0 0-.77.686 2.423 2.423 0 0 0-.308 1.331h-.518a2.8 2.8 0 0 1 .291-1.449 2.342 2.342 0 0 1 .914-.956 2.639 2.639 0 0 1 1.344-.339 2.442 2.442 0 0 1 1.768.672 2.448 2.448 0 0 1 .7 1.848L63.777 0zm-8.974 0v-7.56h.546v1.54h.039V0zm4.494 0 .014-5.11a2.17 2.17 0 0 0-.542-1.554 1.844 1.844 0 0 0-1.4-.574 1.837 1.837 0 0 0-1.428.6 2.305 2.305 0 0 0-.546 1.61l-.518-.224a2.552 2.552 0 0 1 .329-1.3 2.371 2.371 0 0 1 .906-.9 2.655 2.655 0 0 1 1.326-.325 2.725 2.725 0 0 1 1.2.269 2.138 2.138 0 0 1 .907.837 2.756 2.756 0 0 1 .343 1.463L59.283 0zm10.08.21a3.412 3.412 0 0 1-1.844-.483 3.159 3.159 0 0 1-1.193-1.379 4.974 4.974 0 0 1-.42-2.128 5.029 5.029 0 0 1 .417-2.135 3.115 3.115 0 0 1 1.19-1.376 3.445 3.445 0 0 1 1.852-.479 3.383 3.383 0 0 1 1.855.49 3.118 3.118 0 0 1 1.179 1.421 5.562 5.562 0 0 1 .41 2.247H71.6v-.2a3.986 3.986 0 0 0-.767-2.5 2.514 2.514 0 0 0-2.048-.872 2.562 2.562 0 0 0-2.085.894 3.819 3.819 0 0 0-.742 2.51 3.819 3.819 0 0 0 .742 2.51 2.562 2.562 0 0 0 2.086.893 3.043 3.043 0 0 0 1.645-.441 3.113 3.113 0 0 0 1.127-1.267l.49.28a3.463 3.463 0 0 1-1.306 1.49 3.63 3.63 0 0 1-1.953.525zm-3.08-3.822V-4.2h6.16v.588z" transform="translate(94.576 166.398)" style="fill:rgba(253,253,253,.5)"/>
</svg>
