<svg xmlns="http://www.w3.org/2000/svg" xmlns:xlink="http://www.w3.org/1999/xlink" width="24" height="24" viewBox="0 0 24 24">
  <defs>
    <clipPath id="clip-path">
      <rect id="Rectangle_1057" data-name="Rectangle 1057" width="20" height="20" transform="translate(36 335)" fill="#f5f5f5"/>
    </clipPath>
  </defs>
  <g id="Plot" transform="translate(-34 -333)">
    <rect id="Rectangle_1056" data-name="Rectangle 1056" width="24" height="24" rx="5" transform="translate(34 333)" fill="none"/>
    <g id="Mask_Group_52" data-name="Mask Group 52" clip-path="url(#clip-path)">
      <g id="_04" data-name="04" transform="translate(-451.128 940.14)">
        <path id="Path_11327" data-name="Path 11327" d="M795.534,815.937a2.474,2.474,0,0,1,.331-1.448c.978-1.924,1.928-3.862,2.883-5.8a.277.277,0,0,1,.294-.182c1.093.008,2.185,0,3.31,0-.043-.083-.073-.149-.11-.211-.694-1.176-1.426-2.332-2.076-3.532a5.987,5.987,0,0,1,.876-6.83,6.047,6.047,0,0,1,9.646,7.2c-.614,1.057-1.248,2.1-1.872,3.154-.036.06-.068.123-.119.216h3.233a.333.333,0,0,1,.354.213q1.554,3.115,3.123,6.223a1.727,1.727,0,0,0,.114.172v.821Zm9.991-4.408c.057-.091.094-.15.13-.211l4.03-6.775a4.88,4.88,0,1,0-8.328-.022q1.714,2.885,3.43,5.77Zm8.464,3.229a.72.72,0,0,0-.029-.079q-1.226-2.44-2.449-4.88a.2.2,0,0,0-.215-.115h-3.1a.3.3,0,0,0-.307.17c-.561.96-1.154,1.9-1.69,2.876a.755.755,0,0,1-.859.482.332.332,0,0,1-.285-.175c-.627-1.065-1.263-2.124-1.889-3.189a.288.288,0,0,0-.291-.164q-1.551.01-3.1,0a.275.275,0,0,0-.3.178q-1.158,2.353-2.329,4.7c-.031.062-.057.126-.089.2Z" transform="translate(-308.521 -1400.937)" fill="#209362"/>
        <path id="Path_11328" data-name="Path 11328" d="M958.457,875.655A2.154,2.154,0,1,1,956.3,877.8a2.154,2.154,0,0,1,2.157-2.145Zm-.009,3.131a.978.978,0,1,0-.973-.992.988.988,0,0,0,.973.992Z" transform="translate(-461.446 -1476.756)" fill="#209362"/>
      </g>
    </g>
  </g>
</svg>
