<svg xmlns="http://www.w3.org/2000/svg" xmlns:xlink="http://www.w3.org/1999/xlink" width="24" height="24" viewBox="0 0 24 24">
  <defs>
    <clipPath id="clip-path">
      <rect id="Rectangle_1053" data-name="Rectangle 1053" width="20" height="20" transform="translate(36 335)" fill="#f5f5f5"/>
    </clipPath>
  </defs>
  <g id="Commercial" transform="translate(-34 -333)">
    <rect id="Rectangle_1052" data-name="Rectangle 1052" width="24" height="24" rx="5" transform="translate(34 333)" fill="none"/>
    <g id="Mask_Group_50" data-name="Mask Group 50" clip-path="url(#clip-path)">
      <g id="_06" data-name="06" transform="translate(-688.966 939.961)">
        <path id="Path_11333" data-name="Path 11333" d="M131.8,1595.67a.753.753,0,0,1-.439-.788c.009-3.186.005-6.371.005-9.557v-.25H130.8a.589.589,0,0,1-.618-.616v-2.287a.588.588,0,0,1,.619-.615h.546v-1.173h-.519a.589.589,0,1,1,.005-1.172h5.247c0-.078.009-.141.009-.2v-1.563a.577.577,0,0,1,.385-.579c.972-.389,1.944-.781,2.922-1.155a.724.724,0,0,1,.474,0c.978.373,1.949.764,2.921,1.154a.578.578,0,0,1,.387.579v7.016a.588.588,0,0,1-.618.616H142v.231q0,4.788.005,9.577a.754.754,0,0,1-.439.788Zm9.01-10.581h-8.252v9.4h3.535v-.555a.593.593,0,1,1,1.181,0v.558h3.535Zm1.172-3.541a.237.237,0,0,0,.016-.051v-3.573a.244.244,0,0,0-.137-.167q-1.044-.427-2.1-.835a.309.309,0,0,0-.2-.015q-1.141.45-2.273.9v3.741Zm0,2.346v-1.149h-10.6v1.149Zm-8.271-2.347V1580.4h-1.157v1.149Zm2.362,0v-1.156h-1.154v1.156Z" transform="translate(598.318 -2180.666)" fill="#209362"/>
        <path id="Path_11334" data-name="Path 11334" d="M200.346,1779.32h-2.129a.548.548,0,1,1-.011-1.092H202.5a.547.547,0,1,1-.007,1.092Z" transform="translate(534.655 -2372.601)" fill="#209362"/>
        <path id="Path_11335" data-name="Path 11335" d="M200.327,1824.25h-2.092a.55.55,0,1,1-.008-1.092h4.239a.55.55,0,1,1-.01,1.092Z" transform="translate(534.655 -2415.174)" fill="#209362"/>
        <path id="Path_11336" data-name="Path 11336" d="M200.318,1868.07h2.11a.551.551,0,1,1-.006,1.093h-4.239a.547.547,0,1,1-.012-1.092Z" transform="translate(534.681 -2457.738)" fill="#209362"/>
        <path id="Path_11337" data-name="Path 11337" d="M288.558,1644.5h-.545a.545.545,0,1,1,0-1.09c.369-.007.739-.007,1.108,0a.544.544,0,1,1,0,1.089C288.934,1644.51,288.746,1644.5,288.558,1644.5Z" transform="translate(449.442 -2244.856)" fill="#209362"/>
      </g>
    </g>
  </g>
</svg>
