<svg xmlns="http://www.w3.org/2000/svg" width="24" height="24" viewBox="0 0 24 24">
  <g id="house" transform="translate(-34 -333)">
    <rect id="Rectangle_1061" data-name="Rectangle 1061" width="24" height="24" rx="5" transform="translate(34 333)" fill="none"/>
    <g id="house-2" data-name="house" transform="translate(-759.714 -470.881)">
      <path id="Path_11372" data-name="Path 11372" d="M815.714,815.761a3.265,3.265,0,0,1-.191.421,1.009,1.009,0,0,1-.925.467c-.441,0-.882,0-1.344,0v.262q0,4.1,0,8.2c0,.555-.2.771-.728.772h-4.646c-.511,0-.718-.221-.718-.762q0-2.414,0-4.828v-.241h-2.89v.236q0,2.424,0,4.849c0,.524-.211.746-.713.746h-4.666c-.5,0-.713-.222-.714-.746q0-4.109,0-8.218v-.27c-.307,0-.6,0-.888,0-.208,0-.417.005-.624-.012a.968.968,0,0,1-.879-.7,1.031,1.031,0,0,1,.242-1.132c.484-.488.986-.956,1.481-1.431l7.417-7.112a1.011,1.011,0,0,1,1.577,0l1.945,1.866c0-.142,0-.239,0-.335a.588.588,0,0,1,.592-.623q2.021-.008,4.041,0a.592.592,0,0,1,.6.673q0,2.548,0,5.1a.451.451,0,0,0,.158.367c.477.446.941.906,1.419,1.35a1.689,1.689,0,0,1,.453.7Zm-3.634,8.876v-.266q0-4.119,0-8.239c0-.486.218-.72.679-.724.429,0,.859,0,1.289,0,.062,0,.124-.006.186-.009l.036-.056a1.062,1.062,0,0,1-.142-.1c-.444-.423-.882-.853-1.33-1.27a.865.865,0,0,1-.288-.684c.006-1.548,0-3.1,0-4.643v-.236h-2.89c0,.338-.005.665,0,.992a.655.655,0,0,1-.346.677.6.6,0,0,1-.726-.181q-1.287-1.244-2.582-2.478l-.254-.241-8.565,8.214c.109.006.171.012.232.012h1.23c.536,0,.74.217.74.785q0,4.1,0,8.2v.243H803.1v-.253q0-2.414,0-4.828c0-.53.209-.754.705-.754h3.826c.5,0,.707.224.707.752q0,2.424,0,4.849v.238Z" transform="translate(0 0)" fill="#209362"/>
    </g>
  </g>
</svg>
