<svg id="brochure" xmlns="http://www.w3.org/2000/svg" width="24" height="24" viewBox="0 0 24 24">
  <rect id="back" width="24" height="24" fill="none"/>
  <path id="Path_16333" data-name="Path 16333" d="M13.5,3.857V1.286L8.357,3.857Z" transform="translate(1.714 1.715)" fill="#209362"/>
  <path id="Path_16334" data-name="Path 16334" d="M6.429,4.1l5.635-2.816H3.857a.645.645,0,0,0-.643.643v13.5a.645.645,0,0,0,.643.643H6.429Z" transform="translate(1.714 1.715)" fill="#209362"/>
  <path id="Path_16335" data-name="Path 16335" d="M16.714,4.5H7.071V18.643a.645.645,0,0,0,.643.643h9a.645.645,0,0,0,.643-.643V5.143A.645.645,0,0,0,16.714,4.5ZM9.344,7.82l2.678-2.009a.318.318,0,0,1,.386,0L15.085,7.82a.322.322,0,0,1,.064.45.326.326,0,0,1-.257.129.331.331,0,0,1-.193-.064L12.214,6.47,9.73,8.335a.321.321,0,1,1-.386-.514ZM11.25,9.444v2.571H9.932V8.952a.754.754,0,0,0,.183-.106l2.1-1.575,2.1,1.578a.924.924,0,0,0,.18.1v3.063H13.179V9.444ZM9,13.539h6.429a.321.321,0,1,1,0,.643H9a.321.321,0,1,1,0-.643Zm0,1.286h6.429a.321.321,0,0,1,0,.643H9a.321.321,0,0,1,0-.643Zm4.821,3.214H10.607a.321.321,0,0,1,0-.643h3.214a.321.321,0,0,1,0,.643Zm1.607-1.286H9a.321.321,0,0,1,0-.643h6.429a.321.321,0,1,1,0,.643Z" transform="translate(1.714 1.715)" fill="#209362"/>
</svg>
