<svg xmlns="http://www.w3.org/2000/svg" xmlns:xlink="http://www.w3.org/1999/xlink" width="24" height="24" viewBox="0 0 24 24">
  <defs>
    <clipPath id="clip-path">
      <rect id="Rectangle_1049" data-name="Rectangle 1049" width="20" height="20" transform="translate(36 335)" fill="#f5f5f5"/>
    </clipPath>
  </defs>
  <g id="Condo" transform="translate(-34 -333)">
    <rect id="Rectangle_1048" data-name="Rectangle 1048" width="24" height="24" rx="5" transform="translate(34 333)" fill="none"/>
    <g id="Mask_Group_48" data-name="Mask Group 48" clip-path="url(#clip-path)">
      <g id="_08" data-name="08" transform="translate(-932.707 939.817)">
        <path id="Path_11351" data-name="Path 11351" d="M1383.36,1036.04v.273a.677.677,0,0,1-.749.46c-.16-.009-.321,0-.491,0v6.649c.157,0,.306.011.453,0a.71.71,0,0,1,.787.432v.313a.9.9,0,0,1-.43.43h-19.138c-.007-.01-.013-.024-.023-.029a.6.6,0,0,1-.394-.679.612.612,0,0,1,.675-.464h.547v-6.65c-.216,0-.418.006-.619,0a.6.6,0,0,1-.615-.6.586.586,0,0,1,.634-.572h.615v-6.775a.7.7,0,0,1,.249-.565q1.981-1.722,3.958-3.45a.6.6,0,0,1,.931,0q1.612,1.4,3.222,2.809c.13.114.262.225.4.339l3.576-3.118a.628.628,0,0,1,1.006,0l3.884,3.386a.769.769,0,0,1,.283.629q-.008,3.25,0,6.5v.242c.182,0,.338.012.492,0a.673.673,0,0,1,.747.44Zm-2.432-.45a.919.919,0,0,0,.01-.094v-6.364a.321.321,0,0,0-.1-.209c-.357-.323-.722-.637-1.085-.953l-2.3-2.005c-.061.05-.116.094-.169.14q-1.6,1.392-3.194,2.782a.373.373,0,0,0-.141.316q.007,3.084,0,6.169v.219Zm-15.144-.005h6.98a.638.638,0,0,0,.01-.073v-6.384a.321.321,0,0,0-.1-.208c-.441-.4-.889-.783-1.335-1.172l-2.048-1.785c-.062.052-.117.1-.171.143q-1.6,1.392-3.194,2.782a.374.374,0,0,0-.137.318q.006,3.084,0,6.169Zm.014,1.2v6.627h1.544v-3.893a.6.6,0,0,1,.682-.681h2.5c.477,0,.694.216.694.688v3.884h1.545v-6.626Zm9.707,6.634v-3.9a.6.6,0,0,1,.678-.685h2.518a.6.6,0,0,1,.679.684q0,1.835,0,3.67v.219h1.546v-6.621h-6.967v6.628Zm-5.477,0v-3.4h-1.5v3.4Zm8.164,0v-3.4h-1.5v3.4Z" transform="translate(-394.362 -1629.589)" fill="#209362"/>
        <path id="Path_11352" data-name="Path 11352" d="M1593.5,1109.59v2.17a.616.616,0,0,1-.683.683H1589.4a.616.616,0,0,1-.686-.681q0-2.16,0-4.319a.606.606,0,0,1,.664-.679q1.727,0,3.454,0a.6.6,0,0,1,.665.677Q1593.5,1108.51,1593.5,1109.59Zm-3.572,1.633h2.353v-1.008h-2.353Zm2.356-3.24h-2.345v1h2.345Z" transform="translate(-608.064 -1707.52)" fill="#209362"/>
        <path id="Path_11353" data-name="Path 11353" d="M1432.27,1109.59v-2.149a.606.606,0,0,1,.663-.679q1.727,0,3.454,0a.6.6,0,0,1,.666.677v4.319a.617.617,0,0,1-.683.683h-3.414a.616.616,0,0,1-.685-.681Q1432.27,1110.67,1432.27,1109.59Zm3.572.623h-2.353v1.008h2.353Zm0-2.232H1433.5v1h2.345Z" transform="translate(-459.703 -1707.52)" fill="#209362"/>
      </g>
    </g>
  </g>
</svg>
