<svg xmlns="http://www.w3.org/2000/svg" xmlns:xlink="http://www.w3.org/1999/xlink" width="24" height="24" viewBox="0 0 24 24">
  <defs>
    <clipPath id="clip-path">
      <rect id="Rectangle_1047" data-name="Rectangle 1047" width="20" height="20" transform="translate(36 335)" fill="#f5f5f5"/>
    </clipPath>
  </defs>
  <g id="townhouse" transform="translate(-34 -333)">
    <rect id="Rectangle_1046" data-name="Rectangle 1046" width="24" height="24" rx="5" transform="translate(34 333)" fill="none"/>
    <g id="Mask_Group_47" data-name="Mask Group 47" clip-path="url(#clip-path)">
      <g id="_09" data-name="09" transform="translate(-1065.874 939.394)">
        <path id="Path_11354" data-name="Path 11354" d="M797.138,1931.355h16.076a.5.5,0,0,0,.089.034,2.148,2.148,0,0,1,1.659,1.277,1.806,1.806,0,0,1-1.765,2.67l-.4-.037v15.347c0,.459-.218.691-.651.691H798.213a.847.847,0,0,1-.212-.021c-.3-.079-.442-.3-.442-.688v-15.339l-.227.033a1.81,1.81,0,0,1-2.008-1.067c-.059-.143-.092-.3-.138-.443v-.508a.483.483,0,0,0,.034-.089,2.206,2.206,0,0,1,.9-1.448,2.729,2.729,0,0,1,1.018-.413Zm1.607,3.542v15.253h4.675v-2.8a.591.591,0,0,1,.662-.66h2.185a.591.591,0,0,1,.663.659v2.809h4.681V1934.9a1.842,1.842,0,0,0-.921.1q-.49.183-1,.318a2.674,2.674,0,0,1-.5.037v6.19c0,.483-.219.7-.7.7H801.86c-.484,0-.7-.218-.7-.7v-6.21a3.025,3.025,0,0,1-1.514-.34,1.5,1.5,0,0,0-.9-.091Zm9.266,6.168a.274.274,0,0,0,.011-.04v-5.849a.211.211,0,0,0-.116-.163,5.59,5.59,0,0,0-.876-.121,1.169,1.169,0,0,0-.5.135,3.016,3.016,0,0,1-2.705,0,1.7,1.7,0,0,0-1.309-.046.246.246,0,0,0-.19.283c.006,1.865,0,3.73,0,5.594v.209Zm-2.826-8.538h-6.028c-.585,0-1.171-.006-1.756,0a1.053,1.053,0,0,0-1.042,1.028.568.568,0,0,0,.593.607,2.041,2.041,0,0,0,.715-.15,3.008,3.008,0,0,1,2.653,0,1.7,1.7,0,0,0,1.489,0,2.947,2.947,0,0,1,2.6-.008,1.768,1.768,0,0,0,1.562-.007,2.85,2.85,0,0,1,.454-.176,2.916,2.916,0,0,1,2.071.169,1.677,1.677,0,0,0,1.489.046,3.058,3.058,0,0,1,2.743,0,1.7,1.7,0,0,0,.621.134.594.594,0,0,0,.637-.746,1.061,1.061,0,0,0-1.092-.89q-3.855-.008-7.708-.008Zm.563,17.63v-2.289H804.6v2.289Z" transform="translate(306.686 -2535.741)" fill="#209362"/>
        <path id="Path_11355" data-name="Path 11355" d="M885.649,2169.222v-.331a.582.582,0,1,1,1.165-.016c.011.227.01.455,0,.681a.582.582,0,1,1-1.165,0C885.644,2169.442,885.649,2169.332,885.649,2169.222Z" transform="translate(220.947 -2760.338)" fill="#209362"/>
        <path id="Path_11356" data-name="Path 11356" d="M930.515,2169.222v-.331a.582.582,0,1,1,1.165-.016c.011.227.01.455,0,.681a.582.582,0,1,1-1.165,0C930.511,2169.442,930.515,2169.332,930.515,2169.222Z" transform="translate(178.423 -2760.338)" fill="#209362"/>
        <path id="Path_11357" data-name="Path 11357" d="M975.382,2169.222v-.331a.582.582,0,1,1,1.165-.016c.011.227.01.455,0,.681a.582.582,0,1,1-1.165,0C975.377,2169.442,975.382,2169.332,975.382,2169.222Z" transform="translate(135.897 -2760.338)" fill="#209362"/>
        <path id="Path_11358" data-name="Path 11358" d="M1021.356,2169.222c0,.11.005.221,0,.331a.582.582,0,1,1-1.165,0c-.009-.227-.01-.455,0-.681a.582.582,0,0,1,1.164,0C1021.356,2168.993,1021.356,2169.1,1021.356,2169.222Z" transform="translate(93.433 -2760.337)" fill="#209362"/>
        <path id="Path_11359" data-name="Path 11359" d="M1066.23,2169.212c0,.117.005.234,0,.351a.582.582,0,1,1-1.165,0c-.009-.22-.008-.441,0-.662a.583.583,0,0,1,1.166,0C1066.24,2169,1066.23,2169.1,1066.23,2169.212Z" transform="translate(50.897 -2760.338)" fill="#209362"/>
        <path id="Path_11360" data-name="Path 11360" d="M956.608,2030.085h-1.037v.562a.586.586,0,1,1-1.169.006q0-1.1,0-2.2a.586.586,0,0,1,.582-.64.593.593,0,0,1,.586.64c0,.142,0,.285,0,.443h1.037v-.463a.584.584,0,1,1,1.166,0q.009,1.121,0,2.241a.575.575,0,0,1-.589.613.582.582,0,0,1-.576-.627C956.605,2030.484,956.608,2030.294,956.608,2030.085Z" transform="translate(155.782 -2627.161)" fill="#209362"/>
      </g>
    </g>
  </g>
</svg>
