<svg xmlns="http://www.w3.org/2000/svg" width="24" height="24" viewBox="0 0 24 24">
  <g id="villa" transform="translate(-144 -333)">
    <rect id="Rectangle_1060" data-name="Rectangle 1060" width="24" height="24" rx="5" transform="translate(144 333)" fill="none"/>
    <g id="Group_3720" data-name="Group 3720" transform="translate(-662 -474.186)">
      <path id="Path_11370" data-name="Path 11370" d="M827.565,829.186H808.43a.9.9,0,0,1-.429-.43v-.313a.733.733,0,0,1,.787-.435c.467.021.937.005,1.4.005h.181v-5.867c-.535,0-1.061-.015-1.585.005a.737.737,0,0,1-.787-.435v-3.833a.755.755,0,0,1,.787-.436c2.792.01,5.584.006,8.377.006h.238v-4.094c-.517.154-1.02.307-1.524.454a.589.589,0,1,1-.336-1.125l6.032-1.8c1.855-.555,3.709-1.115,5.566-1.662a.875.875,0,0,1,.507,0c.279.1.35.349.35.635q0,9.269,0,18.538A.757.757,0,0,1,827.565,829.186Zm-.751-18.646L818.6,813v7.963h8.215Zm-14.089,17.468v-.227q0-1.887,0-3.774a.6.6,0,0,1,.679-.688H817.9a.607.607,0,0,1,.688.7q0,1.887,0,3.774V828h1.161v-5.839h-8.176v5.85Zm1.181-.01h3.5V826.84c-.189,0-.37,0-.55,0a.587.587,0,1,1,.006-1.172c.18,0,.36,0,.54,0V824.5h-3.491Zm12.9.005v-5.842h-1.187V828Zm-4.725,0v-5.842h-1.149V828Zm1.2-5.848V828h1.148v-5.842Zm-12.91-3.517h-1.188v2.32h1.188Zm1.195,0v2.322h1.148v-2.322Zm2.343,0v2.322h1.148v-2.322Zm3.493.005h-1.148v2.322H817.4Z" transform="translate(0)" fill="#209362"/>
      <path id="Path_11371" data-name="Path 11371" d="M1039.323,901.679q0,1.161,0,2.321a.61.61,0,0,1-.679.69h-4.6a.606.606,0,0,1-.671-.677q0-1.736,0-3.472a.618.618,0,0,1,.556-.7l4.5-1.127.135-.032a.591.591,0,0,1,.764.594C1039.326,900.078,1039.323,900.879,1039.323,901.679Zm-1.2,1.812v-3.46c-.037,0-.064.006-.089.012-1.121.279-2.24.561-3.362.835-.124.03-.111.107-.111.193q0,.842,0,1.685v.735Z" transform="translate(-213.749 -84.832)" fill="#209362"/>
    </g>
  </g>
</svg>
