<svg id="specialities" xmlns="http://www.w3.org/2000/svg" width="24" height="24" viewBox="0 0 24 24">
  <rect id="back" width="24" height="24" fill="none"/>
  <path id="Path_16336" data-name="Path 16336" d="M4.5,18a1.928,1.928,0,0,1-.643-.109v.752a.643.643,0,0,0,.643.643H16.071a.643.643,0,0,0,.643-.643V17.89a1.928,1.928,0,0,1-.643.109Z" transform="translate(1.715 1.715)" fill="#209362"/>
  <path id="Path_16337" data-name="Path 16337" d="M11.476,10.324l.939-.681H11.257a.637.637,0,0,1-.611-.444l-.361-1.1-.36,1.1a.637.637,0,0,1-.611.444H8.158l.939.681a.634.634,0,0,1,.231.72l-.354,1.1.932-.681a.65.65,0,0,1,.759,0l.932.681-.354-1.1a.634.634,0,0,1,.233-.72Z" transform="translate(1.715 1.715)" fill="#209362"/>
  <path id="Path_16338" data-name="Path 16338" d="M19.081,1.453a.67.67,0,0,0-.6-.148L1.763,5.8a.654.654,0,0,0-.456.791l2.571,9.643a.643.643,0,0,0,.622.476H16.071a.643.643,0,0,0,.63-.527L19.272,2.044a.639.639,0,0,0-.192-.591ZM14.767,9.521l-2.16,1.569.828,2.539a.654.654,0,0,1-.238.72.643.643,0,0,1-.752,0l-2.16-1.569-2.16,1.569a.647.647,0,0,1-.752,0,.654.654,0,0,1-.238-.72l.829-2.539L5.8,9.521a.643.643,0,0,1,.374-1.164H8.853l.823-2.539a.643.643,0,0,1,1.221,0l.823,2.539h2.674a.643.643,0,0,1,.373,1.164Z" transform="translate(1.715 1.715)" fill="#209362"/>
</svg>
