<svg id="Layer_1" data-name="Layer 1" xmlns="http://www.w3.org/2000/svg" viewBox="0 0 293.47 295.83"><defs><style>.cls-1{fill:#4a6db4;}</style></defs><title>2024homelogo_square</title><path class="cls-1" d="M315,195.39,234.92,242a53.33,53.33,0,0,0-26.41,46.11v84.05h33.75V292.36a26.63,26.63,0,0,1,13.21-23.05L315,234.67l72.6,42.24v88.58a23.57,23.57,0,0,1-23.48,23.66H161.61V161.37H364.1A23.57,23.57,0,0,1,387.58,185v33l33.74,19.64V174.68a47.14,47.14,0,0,0-46.95-47.33H127.86V423.17H374.37a47.14,47.14,0,0,0,46.95-47.33V257.27Z" transform="translate(-127.86 -127.35)"/></svg>