<svg xmlns="http://www.w3.org/2000/svg" xmlns:xlink="http://www.w3.org/1999/xlink" width="24" height="24" viewBox="0 0 24 24">
  <defs>
    <clipPath id="clip-path">
      <rect id="Rectangle_1646" data-name="Rectangle 1646" width="24" height="24" transform="translate(-4946 -7039)" fill="#fff"/>
    </clipPath>
  </defs>
  <g id="Sports_Facilities" data-name="Sports Facilities" transform="translate(4946 7039)" clip-path="url(#clip-path)">
    <g id="Sports_Facilities-2" data-name="Sports Facilities" transform="translate(-4994.962 -7039)">
      <path id="Path_12764" data-name="Path 12764" d="M68.231,164H53.7a1.291,1.291,0,0,0-1.289,1.289v7.97a1.291,1.291,0,0,0,1.289,1.289h4.728a4.454,4.454,0,0,1-.143,2.21.351.351,0,1,0,.67.214,5.316,5.316,0,0,0,.175-.695H60.61v.586a.352.352,0,1,0,.7,0v-.586H62.8a5.317,5.317,0,0,0,.175.695.351.351,0,1,0,.67-.214,4.454,4.454,0,0,1-.143-2.21h4.729a1.291,1.291,0,0,0,1.289-1.289v-7.97A1.291,1.291,0,0,0,68.231,164Zm-9.024,11.58a5.215,5.215,0,0,0-.061-1.032h1.465v1.032Zm4.22-5.251h-4.92v-2.693a.587.587,0,0,1,.585-.586h3.751a.587.587,0,0,1,.586.586Zm.938.7v.7h-6.8v-.7Zm-.794,1.407a5.99,5.99,0,0,0-.627,1.407H61.316v-1.407Zm-2.956,0v1.407H58.987a5.989,5.989,0,0,0-.627-1.407Zm2.11,3.141h-1.4v-1.032h1.465a5.215,5.215,0,0,0-.062,1.032Zm6.095-2.321a.587.587,0,0,1-.588.586H63.689a5.37,5.37,0,0,1,.729-1.407h.3a.352.352,0,0,0,.352-.352v-1.406a.352.352,0,0,0-.352-.352h-.586v-2.693a1.291,1.291,0,0,0-1.289-1.289H59.089a1.291,1.291,0,0,0-1.289,1.289v2.7h-.586a.352.352,0,0,0-.352.352v1.407a.352.352,0,0,0,.352.352h.3a5.362,5.362,0,0,1,.729,1.407H53.7a.587.587,0,0,1-.586-.586v-7.974a.587.587,0,0,1,.586-.586H68.231a.587.587,0,0,1,.586.586Z" transform="translate(0 -153.214)" fill="#209362"/>
      <path id="Path_12765" data-name="Path 12765" d="M110.925,10.08a5.04,5.04,0,1,0-5.04-5.04,5.04,5.04,0,0,0,5.04,5.04Zm3.28-2.21a4.292,4.292,0,0,1-1.041-2.481h2.081a4.319,4.319,0,0,1-1.038,2.485Zm1.04-3.185h-2.081A4.292,4.292,0,0,1,114.2,2.2a4.319,4.319,0,0,1,1.04,2.481ZM111.274.714a4.317,4.317,0,0,1,2.424,1,4.991,4.991,0,0,0-1.242,2.975h-1.184Zm0,4.674h1.184A4.991,4.991,0,0,0,113.7,8.363a4.317,4.317,0,0,1-2.424,1Zm-.7,3.971a4.317,4.317,0,0,1-2.424-1,4.991,4.991,0,0,0,1.242-2.975h1.184Zm0-8.645V4.688h-1.184a4.991,4.991,0,0,0-1.24-2.977,4.317,4.317,0,0,1,2.426-.993Zm-2.928,1.5a4.292,4.292,0,0,1,1.041,2.481H106.6a4.319,4.319,0,0,1,1.04-2.481ZM108.684,5.4a4.292,4.292,0,0,1-1.041,2.481A4.319,4.319,0,0,1,106.6,5.4Z" transform="translate(-49.961)" fill="#209362"/>
    </g>
  </g>
</svg>
