<svg xmlns="http://www.w3.org/2000/svg" xmlns:xlink="http://www.w3.org/1999/xlink" width="24" height="24" viewBox="0 0 24 24">
  <defs>
    <clipPath id="clip-path">
      <rect id="Rectangle_1647" data-name="Rectangle 1647" width="24" height="24" transform="translate(-4920 -7039)" fill="#fff"/>
    </clipPath>
  </defs>
  <g id="Grocery_Store" data-name="Grocery Store" transform="translate(4920 7039)" clip-path="url(#clip-path)">
    <g id="SupermarketGrocery_Store" data-name="SupermarketGrocery Store" transform="translate(-4919.992 -7038.984)">
      <path id="Path_12839" data-name="Path 12839" d="M23.531,8.943h-.473V7.529a.469.469,0,0,0-.469-.469H16.92a1.88,1.88,0,0,0,.223-.607l.731-4.018a.469.469,0,0,0-.461-.553H15.764L14.493.188a.469.469,0,1,0-.75.562l.849,1.133H9.408L10.257.75a.469.469,0,1,0-.75-.562l-1.271,1.7H6.587a.469.469,0,0,0-.461.553l.731,4.018a1.878,1.878,0,0,0,.223.607H1.41a.469.469,0,0,0-.469.469V8.943H.469A.469.469,0,0,0,0,9.412v14.12A.469.469,0,0,0,.469,24H23.531A.469.469,0,0,0,24,23.532V9.412a.469.469,0,0,0-.469-.469Zm-.469,3.528a1.179,1.179,0,0,1-2.357,0V9.88h2.357Zm-3.3,0a1.179,1.179,0,1,1-2.357,0V9.88h2.357v2.591Zm-3.3,0a1.179,1.179,0,0,1-2.357,0V9.88h2.357Zm-3.3,0a1.179,1.179,0,1,1-2.357,0V9.88h2.357Zm-3.3,0a1.179,1.179,0,1,1-2.357,0V9.88H9.884Zm-3.3,0a1.179,1.179,0,1,1-2.357,0V9.88H6.589Zm1.19-6.185-.63-3.465h9.7l-.63,3.465a.943.943,0,0,1-.928.775H8.707a.943.943,0,0,1-.928-.775ZM1.879,8H22.121v.945H1.879ZM.937,9.88H3.3v2.591a1.179,1.179,0,1,1-2.357,0V9.88ZM9.88,23.063V16.47h4.24v6.593Zm5.177,0V16a.469.469,0,0,0-.469-.469H9.411A.469.469,0,0,0,8.943,16v7.062H.937V14.228a2.113,2.113,0,0,0,2.826-.43,2.113,2.113,0,0,0,3.295,0,2.113,2.113,0,0,0,3.3,0,2.113,2.113,0,0,0,3.3,0,2.113,2.113,0,0,0,3.3,0,2.113,2.113,0,0,0,3.295,0,2.113,2.113,0,0,0,2.826.43v8.835Z" fill="#209362"/>
      <path id="Path_12840" data-name="Path 12840" d="M266.551,80.327a.469.469,0,0,0-.469.469v1.412a.469.469,0,1,0,.938,0V80.8a.469.469,0,0,0-.469-.473Z" transform="translate(-253.609 -76.561)" fill="#209362"/>
      <path id="Path_12841" data-name="Path 12841" d="M306.714,80.327a.469.469,0,0,0-.469.469v1.412a.469.469,0,1,0,.938,0V80.8a.469.469,0,0,0-.469-.473Z" transform="translate(-291.89 -76.561)" fill="#209362"/>
      <path id="Path_12842" data-name="Path 12842" d="M226.388,80.327a.469.469,0,0,0-.469.469v1.412a.469.469,0,1,0,.938,0V80.8a.469.469,0,0,0-.469-.473Z" transform="translate(-215.329 -76.561)" fill="#209362"/>
      <path id="Path_12843" data-name="Path 12843" d="M186.224,80.327a.469.469,0,0,0-.469.469v1.412a.469.469,0,1,0,.938,0V80.8a.469.469,0,0,0-.469-.473Z" transform="translate(-177.048 -76.561)" fill="#209362"/>
      <path id="Path_12844" data-name="Path 12844" d="M45.809,331.347H40.632a.469.469,0,0,0-.469.469v5.648a.469.469,0,0,0,.469.469h5.177a.469.469,0,0,0,.469-.469v-5.648a.469.469,0,0,0-.469-.469Zm-.469,5.648H41.1v-4.711h4.24Z" transform="translate(-38.28 -315.815)" fill="#209362"/>
      <path id="Path_12845" data-name="Path 12845" d="M347.034,331.347h-5.177a.469.469,0,0,0-.469.469v5.648a.469.469,0,0,0,.469.469h5.177a.469.469,0,0,0,.469-.469v-5.648a.469.469,0,0,0-.469-.469Zm-.469,5.648h-4.24v-4.711h4.24Z" transform="translate(-325.385 -315.815)" fill="#209362"/>
    </g>
  </g>
</svg>
