<svg xmlns="http://www.w3.org/2000/svg" xmlns:xlink="http://www.w3.org/1999/xlink" width="24" height="24" viewBox="0 0 24 24">
  <defs>
    <clipPath id="clip-path">
      <rect id="Rectangle_1646" data-name="Rectangle 1646" width="24" height="24" transform="translate(-5232 -7039)" fill="#fff"/>
    </clipPath>
  </defs>
  <g id="Hospita" transform="translate(5232 7039)" clip-path="url(#clip-path)">
    <g id="HospitalClinic" transform="translate(-5232.5 -7039.5)">
      <path id="Path_12831" data-name="Path 12831" d="M7.5,2.065A1.565,1.565,0,0,1,9.065.5h6.261a1.565,1.565,0,0,1,1.565,1.565V8.326a1.565,1.565,0,0,1-1.565,1.565H9.065A1.565,1.565,0,0,1,7.5,8.326Zm1.565-.522a.522.522,0,0,0-.522.522V8.326a.522.522,0,0,0,.522.522h6.261a.522.522,0,0,0,.522-.522V2.065a.522.522,0,0,0-.522-.522Z" transform="translate(0.304)" fill="#209362" fill-rule="evenodd"/>
      <path id="Path_12832" data-name="Path 12832" d="M9.5,16.065A1.565,1.565,0,0,1,11.065,14.5h2.087a1.565,1.565,0,0,1,1.565,1.565v7.3a.522.522,0,0,1-.522.522H10.022A.522.522,0,0,1,9.5,23.37Zm1.565-.522a.522.522,0,0,0-.522.522v6.783h3.13V16.065a.522.522,0,0,0-.522-.522Z" transform="translate(0.391 0.609)" fill="#209362" fill-rule="evenodd"/>
      <path id="Path_12833" data-name="Path 12833" d="M12.022,3a.522.522,0,0,1,.522.522v3.13a.522.522,0,1,1-1.043,0V3.522A.522.522,0,0,1,12.022,3Z" transform="translate(0.478 0.109)" fill="#209362" fill-rule="evenodd"/>
      <path id="Path_12834" data-name="Path 12834" d="M14.174,5.022a.522.522,0,0,1-.522.522h-3.13a.522.522,0,1,1,0-1.043h3.13a.522.522,0,0,1,.522.521Z" transform="translate(0.413 0.174)" fill="#209362" fill-rule="evenodd"/>
      <path id="Path_12835" data-name="Path 12835" d="M14.174,12.022a.522.522,0,0,1-.522.522h-3.13a.522.522,0,1,1,0-1.043h3.13a.522.522,0,0,1,.522.521Z" transform="translate(0.413 0.478)" fill="#209362" fill-rule="evenodd"/>
      <path id="Path_12836" data-name="Path 12836" d="M4.5,6.065A1.565,1.565,0,0,1,6.065,4.5H8.152a.522.522,0,0,1,0,1.043H6.065a.522.522,0,0,0-.522.522V23.283H19.109V6.065a.522.522,0,0,0-.522-.522H16.5a.522.522,0,1,1,0-1.043h2.087a1.565,1.565,0,0,1,1.565,1.565V23.8a.522.522,0,0,1-.522.522H5.022A.522.522,0,0,1,4.5,23.8Z" transform="translate(0.174 0.174)" fill="#209362" fill-rule="evenodd"/>
      <path id="Path_12837" data-name="Path 12837" d="M.5,11.065A1.565,1.565,0,0,1,2.065,9.5H4.152a1.565,1.565,0,0,1,1.565,1.565V23.587a.522.522,0,0,1-.522.522H1.022A.522.522,0,0,1,.5,23.587Zm1.565-.522a.522.522,0,0,0-.522.522v12h3.13v-12a.522.522,0,0,0-.522-.522Z" transform="translate(0 0.391)" fill="#209362" fill-rule="evenodd"/>
      <path id="Path_12838" data-name="Path 12838" d="M18.5,11.065A1.565,1.565,0,0,1,20.065,9.5h2.087a1.565,1.565,0,0,1,1.565,1.565V23.587a.522.522,0,0,1-.522.522H19.022a.522.522,0,0,1-.522-.522Zm1.565-.522a.522.522,0,0,0-.522.522v12h3.13v-12a.522.522,0,0,0-.522-.522Z" transform="translate(0.783 0.391)" fill="#209362" fill-rule="evenodd"/>
    </g>
  </g>
</svg>
