<svg xmlns="http://www.w3.org/2000/svg" xmlns:xlink="http://www.w3.org/1999/xlink" width="24" height="24" viewBox="0 0 24 24">
  <defs>
    <clipPath id="clip-path">
      <rect id="Rectangle_1646" data-name="Rectangle 1646" width="24" height="24" transform="translate(-5180 -7039)" fill="#fff"/>
    </clipPath>
  </defs>
  <g id="Pet_Services" data-name="Pet Services" transform="translate(5180 7039)" clip-path="url(#clip-path)">
    <g id="Pet_Services-2" data-name="Pet Services" transform="translate(-5180 -7051.7)">
      <path id="Path_12775" data-name="Path 12775" d="M23.226,21.349h-.2l-.752-3.758a1.468,1.468,0,0,0-1.436-1.177h-1.06a.351.351,0,0,0,0,.7h1.057a.764.764,0,0,1,.747.612l.724,3.621H19.775a.8.8,0,0,0-.792-.688h-.849a.8.8,0,0,0-.792.688H6.7a.8.8,0,0,0-.792-.688H5.064a.8.8,0,0,0-.792.688H1.693l.724-3.621a.764.764,0,0,1,.747-.612H18.283a.351.351,0,1,0,0-.7H16.332v-.881a2.212,2.212,0,0,0-2.21-2.21H9.845a2.212,2.212,0,0,0-2.21,2.21v.881H3.165a1.468,1.468,0,0,0-1.436,1.177L.977,21.349h-.2A.775.775,0,0,0,0,22.123v.924a.775.775,0,0,0,.774.774H.936l.155,2.386a.351.351,0,0,0,.35.328h.023a.351.351,0,0,0,.328-.373L1.64,23.821H4.272a.8.8,0,0,0,.792.688h.849a.8.8,0,0,0,.792-.688H17.343a.8.8,0,0,0,.792.688h.849a.8.8,0,0,0,.792-.688H22.36l-.428,6.586a.351.351,0,0,0,.328.373h.023a.351.351,0,0,0,.35-.328l.431-6.632h.162A.775.775,0,0,0,24,23.047v-.924a.775.775,0,0,0-.774-.774Zm-9-4.935H9.741v-.881a.1.1,0,0,1,.1-.1h4.277a.1.1,0,0,1,.1.1v.881Zm-5.889-.881a1.51,1.51,0,0,1,1.508-1.508h4.277a1.51,1.51,0,0,1,1.508,1.508v.881h-.7v-.881a.807.807,0,0,0-.806-.806H9.845a.807.807,0,0,0-.806.806v.881h-.7ZM6.713,22.051H17.334v1.068H6.713Zm-6.011,1v-.924a.072.072,0,0,1,.072-.072H4.263v1.068H.774A.072.072,0,0,1,.7,23.047Zm5.309.661a.1.1,0,0,1-.1.1H5.064a.1.1,0,0,1-.1-.1v-2.25a.1.1,0,0,1,.1-.1h.849a.1.1,0,0,1,.1.1Zm13.071,0a.1.1,0,0,1-.1.1h-.849a.1.1,0,0,1-.1-.1v-2.25a.1.1,0,0,1,.1-.1h.849a.1.1,0,0,1,.1.1Zm4.216-.661a.072.072,0,0,1-.072.072H19.784V22.051h3.442a.072.072,0,0,1,.072.072Z" fill="#209362"/>
      <path id="Path_12776" data-name="Path 12776" d="M193.658,361.232a1.475,1.475,0,0,0,1.473,1.473h2.894a1.474,1.474,0,0,0,1.473-1.473,2.807,2.807,0,0,0-2.8-2.8h-.232a2.807,2.807,0,0,0-2.808,2.8Zm2.8-2.1h.232a2.1,2.1,0,0,1,2.1,2.1.772.772,0,0,1-.771.771h-2.894a.772.772,0,0,1-.771-.771,2.1,2.1,0,0,1,2.108-2.1Z" transform="translate(-184.595 -328.954)" fill="#209362"/>
      <path id="Path_12777" data-name="Path 12777" d="M231.114,284.634a1.287,1.287,0,1,0-1.287,1.287A1.287,1.287,0,0,0,231.114,284.634Zm-1.873,0a.585.585,0,1,1,.585.585A.585.585,0,0,1,229.241,284.634Z" transform="translate(-217.843 -257.386)" fill="#209362"/>
      <path id="Path_12778" data-name="Path 12778" d="M300.664,313.719a1.277,1.277,0,0,0,.8.279,1.3,1.3,0,0,0,.15-.009,1.287,1.287,0,1,0-.947-.27Zm.341-1.372a.581.581,0,0,1,.391-.218.6.6,0,0,1,.068,0,.585.585,0,0,1,.457.949h0a.585.585,0,0,1-.917-.727Z" transform="translate(-286.128 -284.148)" fill="#209362"/>
      <path id="Path_12779" data-name="Path 12779" d="M157.411,311.716a1.289,1.289,0,0,0-.209,1.809h0a1.287,1.287,0,1,0,.209-1.809Zm1.381,1.076a.585.585,0,1,1-.123-.431.585.585,0,0,1,.123.431Z" transform="translate(-149.58 -284.163)" fill="#209362"/>
      <path id="Path_12780" data-name="Path 12780" d="M46.4,316.833a.352.352,0,0,0-.373.328l-.157,2.421a1.126,1.126,0,0,1-1.121,1.05H27.634a1.126,1.126,0,0,1-1.121-1.05l-.433-6.666a.351.351,0,0,0-.7.046l.433,6.666a1.829,1.829,0,0,0,1.821,1.707H44.748a1.829,1.829,0,0,0,1.821-1.707l.157-2.421a.351.351,0,0,0-.327-.373Z" transform="translate(-24.191 -285.258)" fill="#209362"/>
    </g>
  </g>
</svg>
