<svg xmlns="http://www.w3.org/2000/svg" xmlns:xlink="http://www.w3.org/1999/xlink" width="24" height="24" viewBox="0 0 24 24">
  <defs>
    <clipPath id="clip-path">
      <rect id="Rectangle_1646" data-name="Rectangle 1646" width="24" height="24" transform="translate(-5076 -7039)" fill="#fff"/>
    </clipPath>
  </defs>
  <g id="Library" transform="translate(5076 7039)" clip-path="url(#clip-path)">
    <g id="Public_Library" data-name="Public Library" transform="translate(-5076 -7039)">
      <path id="Path_12803" data-name="Path 12803" d="M22.711,13.368H21.7V7.036l.8-1.391a1.056,1.056,0,0,0,.139-.523V4.359A1.056,1.056,0,0,0,21.582,3.3H18.667l.55-.965a1.056,1.056,0,0,0,.139-.523V1.055A1.056,1.056,0,0,0,18.3,0H5.7A1.056,1.056,0,0,0,4.645,1.055v.763a1.056,1.056,0,0,0,.139.523l.55.965H2.418A1.056,1.056,0,0,0,1.363,4.359v.763a1.056,1.056,0,0,0,.139.523l.8,1.391v6.332H1.289A1.29,1.29,0,0,0,0,14.657v4.405a1.29,1.29,0,0,0,1.289,1.289h.249a2.212,2.212,0,0,0-.6,1.518v1.117A1.015,1.015,0,0,0,1.951,24H16a.352.352,0,0,0,0-.7H1.951a.311.311,0,0,1-.311-.311v-.622H22.361v.622a.311.311,0,0,1-.311.311H17.641a.352.352,0,0,0,0,.7H22.05a1.015,1.015,0,0,0,1.014-1.014V21.869a2.212,2.212,0,0,0-.6-1.518h.249A1.29,1.29,0,0,0,24,19.062V14.657A1.29,1.29,0,0,0,22.711,13.368Zm-4.3,0V7.313H21v6.055ZM2.862,6.61,2.32,5.66H5.587v.95Zm18.277,0H18.413V5.66H21.68Zm.8-2.25v.6H18.413V4.008h3.17a.352.352,0,0,1,.351.351ZM17.857,3.3H6.143L5.6,2.356H18.4ZM5.7.7H18.3a.352.352,0,0,1,.352.352v.6H5.348v-.6A.352.352,0,0,1,5.7.7ZM2.418,4h3.17v.949H2.066v-.6a.352.352,0,0,1,.352-.341ZM3,7.313H5.587v2.5a.352.352,0,1,0,.7,0v-5.8H17.71v9.36h-2.3V10.243a.352.352,0,0,0-.352-.352H8.938a.352.352,0,0,0-.352.352v3.125h-2.3V11.456a.352.352,0,1,0-.7,0v1.912H3Zm6.29,6.055V10.6h2.359v2.773ZM12.352,10.6h2.359v2.773H12.352Zm9.994,11.06H1.654a1.52,1.52,0,0,1,1.5-1.309H20.843a1.52,1.52,0,0,1,1.5,1.309Zm.951-2.6a.587.587,0,0,1-.586.586H1.289A.587.587,0,0,1,.7,19.063V14.657a.587.587,0,0,1,.586-.586H22.711a.587.587,0,0,1,.586.586Z" fill="#209362"/>
      <path id="Path_12804" data-name="Path 12804" d="M274.2,325.467v-.01a.407.407,0,0,0-.378-.253h0a.407.407,0,0,0-.378.254v.008l-.949,2.493a.352.352,0,0,0,.657.25l.15-.394h1.04l.148.393a.352.352,0,1,0,.658-.248Zm-.638,1.645.255-.669.252.669Z" transform="translate(-259.696 -309.96)" fill="#209362"/>
      <path id="Path_12805" data-name="Path 12805" d="M72,327.731h-.532v-2.177a.352.352,0,0,0-.7,0v2.526a.352.352,0,0,0,.292.347,2.251,2.251,0,0,0,.323.007h.624a.352.352,0,0,0,0-.7Z" transform="translate(-67.446 -309.961)" fill="#209362"/>
      <path id="Path_12806" data-name="Path 12806" d="M119.775,325.2a.352.352,0,0,0-.352.352v2.529a.352.352,0,0,0,.7,0v-2.529a.352.352,0,0,0-.348-.352Z" transform="translate(-113.825 -309.961)" fill="#209362"/>
      <path id="Path_12807" data-name="Path 12807" d="M155.3,326.617a.931.931,0,0,0-.8-1.413h-.734a.352.352,0,0,0-.352.352v2.529a.352.352,0,0,0,.352.352h.861a1.031,1.031,0,0,0,.671-1.816Zm-.8-.71a.23.23,0,1,1,0,.461h-.383v-.461Zm.128,1.822h-.511v-.659h.511a.329.329,0,0,1,0,.658Z" transform="translate(-146.221 -309.96)" fill="#209362"/>
      <path id="Path_12808" data-name="Path 12808" d="M400.07,325.268a.352.352,0,0,0-.486.1l-.507.779-.513-.785a.352.352,0,1,0-.589.384l.75,1.149v1.186a.352.352,0,0,0,.351.352h0a.352.352,0,0,0,.352-.351v-1.188l.744-1.143a.352.352,0,0,0-.1-.483Z" transform="translate(-379.265 -309.96)" fill="#209362"/>
      <path id="Path_12809" data-name="Path 12809" d="M217.44,326.214a1.029,1.029,0,0,0-1.046-1.009h-.673a.352.352,0,0,0-.352.352v2.529a.352.352,0,0,0,.7,0v-.622l.752.854a.352.352,0,1,0,.528-.465l-.607-.689a1.014,1.014,0,0,0,.7-.95Zm-1.046-.306a.308.308,0,1,1,0,.611h-.317v-.612Z" transform="translate(-205.274 -309.961)" fill="#209362"/>
      <path id="Path_12810" data-name="Path 12810" d="M345.018,326.214a1.029,1.029,0,0,0-1.046-1.009H343.3a.352.352,0,0,0-.352.352v2.529a.352.352,0,0,0,.7,0v-.622l.752.854a.352.352,0,0,0,.528-.465l-.607-.689a1.013,1.013,0,0,0,.7-.95Zm-1.046-.306a.308.308,0,1,1,0,.611h-.317v-.612Z" transform="translate(-326.872 -309.961)" fill="#209362"/>
      <path id="Path_12811" data-name="Path 12811" d="M200.876,108.375h.785a.968.968,0,0,1,.658.257l.244.224.007.006.009.007c.272.223.517-.064.7-.237a.968.968,0,0,1,.658-.257h.785a.693.693,0,0,0,.692-.692v-2.238a.693.693,0,0,0-.692-.692h-.785a1.669,1.669,0,0,0-1.134.443h-.01a1.669,1.669,0,0,0-1.134-.443h-.785a.693.693,0,0,0-.692.692v2.238a.693.693,0,0,0,.694.692Zm3.063-2.919h.774v2.216h-.774a1.67,1.67,0,0,0-.788.2v-2.036l.13-.12a.969.969,0,0,1,.659-.26Zm-3.053,0h.774a.968.968,0,0,1,.658.257l.13.12v2.036a1.67,1.67,0,0,0-.788-.2h-.774v-2.216Z" transform="translate(-190.8 -99.843)" fill="#209362"/>
    </g>
  </g>
</svg>
