<svg xmlns="http://www.w3.org/2000/svg" xmlns:xlink="http://www.w3.org/1999/xlink" width="24" height="24" viewBox="0 0 24 24">
  <defs>
    <clipPath id="clip-path">
      <rect id="Rectangle_1646" data-name="Rectangle 1646" width="24" height="24" transform="translate(-4972 -7039)" fill="#fff"/>
    </clipPath>
  </defs>
  <g id="Shopping_Mall" data-name="Shopping Mall" transform="translate(4972 7039)" clip-path="url(#clip-path)">
    <g id="Shopping_Mall-2" data-name="Shopping Mall" transform="translate(-4971.999 -7038.998)">
      <path id="Path_12813" data-name="Path 12813" d="M23.648,21.89H22.43V13.725a.352.352,0,0,0-.272-.342l-1.448-.337V2.109h.19a.352.352,0,0,0,.352-.352V.352A.352.352,0,0,0,20.9,0H17.786a.352.352,0,0,0,0,.7h2.763v.7H18.788a1.454,1.454,0,0,0-1.276.738,1.833,1.833,0,0,1-3.076,0A1.454,1.454,0,0,0,13.16,1.4H11.372a1.854,1.854,0,0,0-1.444.713.578.578,0,0,1-.9,0A1.854,1.854,0,0,0,7.584,1.4H6.263V.7h9.776a.352.352,0,1,0,0-.7H5.912A.352.352,0,0,0,5.56.352V1.758a.352.352,0,0,0,.352.352H6.1V4.316H5.281a.352.352,0,1,0,0,.7H6.1V6H5.281a.352.352,0,0,0,0,.7H6.1v.984H5.281a.352.352,0,1,0,0,.7H6.1V9.649L2,8.7a.352.352,0,0,0-.431.342v8.477a.352.352,0,1,0,.7,0V9.48L8.3,10.88a.352.352,0,1,0,.159-.685L6.806,9.812V8.394h4.682a.352.352,0,0,0,0-.7H6.806V6.707h4.682a.352.352,0,0,0,0-.7H6.806V5.019h4.682a.352.352,0,0,0,0-.7H6.806V2.109h.776a1.155,1.155,0,0,1,.9.45,1.281,1.281,0,0,0,2,0,1.155,1.155,0,0,1,.9-.45H13.16a.751.751,0,0,1,.661.376,2.534,2.534,0,0,0,4.3,0,.75.75,0,0,1,.661-.376H20V12.882l-9.74-2.265a.352.352,0,1,0-.159.685L21.726,14v7.89H20.28a1.5,1.5,0,0,1-1.038-.406,3.913,3.913,0,0,0-2.631-.842,3.913,3.913,0,0,0-2.63.842,1.5,1.5,0,0,1-1.038.406h-1.1V17.622a.352.352,0,0,0-.352-.352h-7a.352.352,0,0,0-.352.352V21.89H2.273v-2.6a.352.352,0,1,0-.7,0v2.6H.351A.352.352,0,0,0,0,22.242v1.407A.352.352,0,0,0,.351,24H16.96a.352.352,0,0,0,0-.7H.7v-.7H12.944a2.2,2.2,0,0,0,1.522-.6,3.316,3.316,0,0,1,2.147-.649A3.317,3.317,0,0,1,18.76,22a2.2,2.2,0,0,0,1.522.6H23.3v.7H18.7a.352.352,0,0,0,0,.7h4.953A.352.352,0,0,0,24,23.648V22.242a.352.352,0,0,0-.352-.352Zm-16.013,0h-2.8V17.973h2.8Zm3.5,0h-2.8V17.973h2.8Z" fill="#209362"/>
      <path id="Path_12814" data-name="Path 12814" d="M75.621,283.063a.352.352,0,0,0,.352-.352v-1.8a.352.352,0,0,0-.649-.187l-.522.828-.522-.828a.352.352,0,0,0-.649.187v1.8a.352.352,0,0,0,.7,0v-.581l.17.27a.352.352,0,0,0,.6,0l.17-.27v.581a.352.352,0,0,0,.355.352Z" transform="translate(-70.18 -267.41)" fill="#209362"/>
      <path id="Path_12815" data-name="Path 12815" d="M135.755,282.856l.5-1.1.5,1.1a.352.352,0,1,0,.64-.292l-.82-1.8a.352.352,0,0,0-.64,0l-.82,1.8a.352.352,0,1,0,.64.292Z" transform="translate(-128.752 -267.409)" fill="#209362"/>
      <path id="Path_12816" data-name="Path 12816" d="M196.852,280.561a.352.352,0,0,0-.352.352v1.8a.352.352,0,0,0,.352.352h.827a.352.352,0,0,0,0-.7H197.2v-1.447a.352.352,0,0,0-.348-.357Z" transform="translate(-187.289 -267.41)" fill="#209362"/>
      <path id="Path_12817" data-name="Path 12817" d="M240.852,280.561a.352.352,0,0,0-.352.352v1.8a.352.352,0,0,0,.352.352h.827a.352.352,0,0,0,0-.7H241.2v-1.447a.352.352,0,0,0-.348-.357Z" transform="translate(-229.227 -267.41)" fill="#209362"/>
      <path id="Path_12818" data-name="Path 12818" d="M315.418,146.8a1.417,1.417,0,1,0-.415,1A1.415,1.415,0,0,0,315.418,146.8Zm-2.128,0a.712.712,0,1,1,.712.712A.712.712,0,0,1,313.29,146.8Z" transform="translate(-297.935 -138.572)" fill="#209362"/>
      <circle id="Ellipse_82" data-name="Ellipse 82" cx="0.352" cy="0.352" r="0.352" transform="translate(6.254 20.471)" fill="#209362"/>
      <circle id="Ellipse_83" data-name="Ellipse 83" cx="0.352" cy="0.352" r="0.352" transform="translate(9.019 20.471)" fill="#209362"/>
    </g>
  </g>
</svg>
