<svg xmlns="http://www.w3.org/2000/svg" xmlns:xlink="http://www.w3.org/1999/xlink" width="24" height="24" viewBox="0 0 24 24">
  <defs>
    <clipPath id="clip-path">
      <rect id="Rectangle_1646" data-name="Rectangle 1646" width="24" height="24" transform="translate(-5310 -7039)" fill="#fff"/>
    </clipPath>
  </defs>
  <g id="Childcare" transform="translate(5310 7039)" clip-path="url(#clip-path)">
    <g id="Childcare-2" data-name="Childcare" transform="translate(-5309.996 -7051.354)">
      <path id="Path_12781" data-name="Path 12781" d="M22.224,230.59A2.018,2.018,0,0,0,20,232.2l-.808,4.027-.41.179.2-.705a2.139,2.139,0,0,0-4.079-1.292v.012l-.407,1.462a3.088,3.088,0,0,1-1.415,1.819A2.923,2.923,0,0,0,12,238.826a2.919,2.919,0,0,0-1.079-1.128,3.089,3.089,0,0,1-1.415-1.819L9.1,234.418v-.012a2.141,2.141,0,0,0-2.686-1.389c-.055.018-.111.038-.164.06a.352.352,0,1,0,.27.649c.035-.014.07-.027.107-.039a1.438,1.438,0,0,1,1.8.927l.405,1.456a3.789,3.789,0,0,0,1.728,2.23,2.234,2.234,0,1,1-2.39,3.774l-.012-.008L2.488,238.6a1.89,1.89,0,0,1-.8-1.183l-.961-4.551a1.315,1.315,0,1,1,2.575-.53l.844,4.207a.352.352,0,0,0,.2.253l1.1.482.457,1.636a.352.352,0,1,0,.677-.189l-.9-3.221v-.012a1.434,1.434,0,0,1,.04-.982.352.352,0,1,0-.65-.268,2.138,2.138,0,0,0-.062,1.457l.2.7-.41-.179L4,232.2a2.018,2.018,0,1,0-3.952.813L1,237.561a2.59,2.59,0,0,0,1.1,1.626l.012.008,5.67,3.471A2.937,2.937,0,0,0,12,241.613a2.931,2.931,0,0,0,2.99,1.517,2.966,2.966,0,0,0,1.225-.466l5.67-3.471.012-.008a2.588,2.588,0,0,0,1.1-1.626l.961-4.551a2.018,2.018,0,0,0-1.732-2.419Zm1.044,2.274-.961,4.551a1.889,1.889,0,0,1-.8,1.183l-5.669,3.471-.012.008a2.258,2.258,0,0,1-.937.358,2.235,2.235,0,0,1-1.453-4.132,3.788,3.788,0,0,0,1.732-2.234l.4-1.456a1.438,1.438,0,0,1,1.8-.927,1.436,1.436,0,0,1,.933,1.8v.012l-.9,3.221a.352.352,0,0,0,.677.189l.457-1.636,1.1-.482a.352.352,0,0,0,.2-.253l.844-4.207a1.314,1.314,0,1,1,2.575.53Z" transform="translate(0 -207.403)" fill="#209362"/>
      <path id="Path_12782" data-name="Path 12782" d="M114.628,24.163H114.2a1.544,1.544,0,1,0,0,3.089h.194a5.032,5.032,0,0,0,10.039,0h.194a1.545,1.545,0,1,0,0-3.089H124.2a5,5,0,0,0-.739-1.437.352.352,0,1,0-.566.418,4.29,4.29,0,0,1,.844,2.567V26.9a4.329,4.329,0,0,1-8.658,0V25.71a4.337,4.337,0,0,1,2.036-3.671,2.6,2.6,0,0,0,1.315.356h1.605a1.4,1.4,0,0,0,1.167-.625,4.293,4.293,0,0,1,.773.455.352.352,0,0,0,.418-.565,5,5,0,0,0-.96-.556v-.112a1.405,1.405,0,0,0-1.4-1.4h-.172a1.19,1.19,0,0,0-2.018-.678l-.018-.017a1.182,1.182,0,0,0-.879-.328,1.2,1.2,0,0,0-1.134,1.213,2.606,2.606,0,0,0,.721,1.8,5.047,5.047,0,0,0-1.907,2.581Zm10,.7a.841.841,0,0,1,0,1.682h-.181v-.838a5.088,5.088,0,0,0-.071-.844ZM113.36,25.7a.841.841,0,0,1,.841-.841h.253a5.014,5.014,0,0,0-.072.844v.838H114.2a.842.842,0,0,1-.84-.837Zm3.627-6.44h.024a.488.488,0,0,1,.488.488.352.352,0,1,0,.7,0,.488.488,0,1,1,.976,0v.185a.352.352,0,0,0,.352.352h.512a.7.7,0,0,1,0,1.4h-1.605a1.915,1.915,0,0,1-1.913-1.913.506.506,0,0,1,.466-.508Z" transform="translate(-107.376 -5.329)" fill="#209362"/>
      <path id="Path_12783" data-name="Path 12783" d="M213.606,190.4a2.729,2.729,0,0,0,3.855,0,.354.354,0,1,0-.5-.5,2.025,2.025,0,0,1-2.861,0,.354.354,0,1,0-.5.5Z" transform="translate(-203.495 -168.541)" fill="#209362"/>
      <path id="Path_12784" data-name="Path 12784" d="M218.82,135.945v-.911a.352.352,0,0,0-.7,0v.911a.352.352,0,0,0,.7,0Z" transform="translate(-207.892 -116.004)" fill="#209362"/>
      <path id="Path_12785" data-name="Path 12785" d="M281.225,135.945v-.911a.352.352,0,0,0-.7,0v.911a.352.352,0,0,0,.7,0Z" transform="translate(-267.372 -116.004)" fill="#209362"/>
      <path id="Path_12786" data-name="Path 12786" d="M23.357,18.227a.352.352,0,0,0,.5,0l2.366-2.366a1.692,1.692,0,0,0-2.393-2.393l-.222.222-.222-.222a1.692,1.692,0,1,0-2.393,2.393Zm-1.869-4.262a.99.99,0,0,1,1.4,0l.471.471a.351.351,0,0,0,.5,0l.471-.471a.99.99,0,0,1,1.4,1.4l-2.118,2.118-2.118-2.118a.99.99,0,0,1-.006-1.4Z" transform="translate(-19.535)" fill="#209362"/>
      <path id="Path_12787" data-name="Path 12787" d="M404.933,116.585a.352.352,0,0,0,.5,0l1.9-1.9a1.426,1.426,0,1,0-2.017-2.017l-.129.129-.129-.129a1.426,1.426,0,1,0-2.017,2.017Zm-1.4-3.417a.724.724,0,0,1,1.023,0l.377.377a.352.352,0,0,0,.5,0l.377-.377a.723.723,0,1,1,1.023,1.023l-1.649,1.649-1.649-1.649a.724.724,0,0,1,0-1.023Z" transform="translate(-383.745 -94.626)" fill="#209362"/>
    </g>
  </g>
</svg>
