<svg xmlns="http://www.w3.org/2000/svg" xmlns:xlink="http://www.w3.org/1999/xlink" width="24" height="24" viewBox="0 0 24 24">
  <defs>
    <clipPath id="clip-path">
      <rect id="Rectangle_1646" data-name="Rectangle 1646" width="24" height="24" transform="translate(-5154 -7039)" fill="#fff"/>
    </clipPath>
  </defs>
  <g id="Pharmacy" transform="translate(5154 7039)" clip-path="url(#clip-path)">
    <g id="Pharmacy-2" data-name="Pharmacy" transform="translate(-5154 -7039.008)">
      <g id="Group_3836" data-name="Group 3836" transform="translate(0 2.539)">
        <g id="Group_3835" data-name="Group 3835">
          <path id="Path_12825" data-name="Path 12825" d="M24,55.4a1.408,1.408,0,0,0-1.406-1.406H18.68a.469.469,0,0,0,0,.938h3.914a.469.469,0,0,1,.469.469v2.815H.938V55.4a.469.469,0,0,1,.469-.469h5.84a.469.469,0,0,0,0-.937H1.406A1.408,1.408,0,0,0,0,55.4v4.954a2.273,2.273,0,0,0,1.041,1.909.469.469,0,0,0-.01.1V74.521H.469a.469.469,0,0,0,0,.938H23.531a.469.469,0,0,0,0-.937h-.562V62.36a.472.472,0,0,0-.01-.1A2.273,2.273,0,0,0,24,60.355V55.4Zm-7.688,3.753h2.906v1.205a1.337,1.337,0,0,1-1.336,1.336h-.235a1.337,1.337,0,0,1-1.336-1.336Zm-3.844,0h2.906v1.205a1.337,1.337,0,0,1-1.336,1.336H13.8a1.337,1.337,0,0,1-1.336-1.336Zm-3.844,0H11.53v1.205A1.337,1.337,0,0,1,10.2,61.69H9.96a1.337,1.337,0,0,1-1.336-1.336V59.149Zm-3.844,0H7.688v1.205A1.337,1.337,0,0,1,6.352,61.69H6.117a1.337,1.337,0,0,1-1.336-1.336Zm-3.842,1.2V59.149H3.844v1.205A1.337,1.337,0,0,1,2.508,61.69H2.273A1.337,1.337,0,0,1,.938,60.355Zm9.938,14.167H4.5V65.334h6.375Zm11.156-3.375H14.625V65.334h7.406Zm0-6.75H14.156a.469.469,0,0,0-.469.469v6.75a.469.469,0,0,0,.469.469h7.875v2.438H11.813V64.865a.469.469,0,0,0-.469-.469H4.031a.469.469,0,0,0-.469.469v9.656H1.969V62.607a2.28,2.28,0,0,0,.3.021H2.5a2.27,2.27,0,0,0,1.8-.893,2.27,2.27,0,0,0,1.8.893h.235a2.27,2.27,0,0,0,1.8-.893,2.27,2.27,0,0,0,1.8.893H10.2a2.27,2.27,0,0,0,1.8-.893,2.27,2.27,0,0,0,1.8.893h.235a2.27,2.27,0,0,0,1.8-.893,2.27,2.27,0,0,0,1.8.893h.235a2.27,2.27,0,0,0,1.8-.893,2.27,2.27,0,0,0,1.8.893H21.7a2.28,2.28,0,0,0,.3-.021Zm1.031-4.042a1.337,1.337,0,0,1-1.335,1.336h-.235a1.337,1.337,0,0,1-1.336-1.336V59.149h2.906Z" transform="translate(0 -53.99)" fill="#209362"/>
        </g>
      </g>
      <g id="Group_3838" data-name="Group 3838" transform="translate(8.906 18.008)">
        <g id="Group_3837" data-name="Group 3837">
          <path id="Path_12826" data-name="Path 12826" d="M190.8,384.127a.469.469,0,1,0,.137.331.469.469,0,0,0-.137-.331Z" transform="translate(-190 -383.99)" fill="#209362"/>
        </g>
      </g>
      <g id="Group_3840" data-name="Group 3840" transform="translate(9.094 0.009)">
        <g id="Group_3839" data-name="Group 3839">
          <path id="Path_12827" data-name="Path 12827" d="M199.27.55a1.855,1.855,0,0,0-2.62,0l-2.107,2.107a1.853,1.853,0,1,0,2.62,2.62l1.053-1.053h0L199.27,3.17a1.852,1.852,0,0,0,0-2.62ZM196.5,4.615a.915.915,0,1,1-1.294-1.294l.722-.722,1.294,1.294Zm2.107-2.107-.722.722-1.294-1.294.722-.722a.915.915,0,1,1,1.294,1.294Z" transform="translate(-194 -0.009)" fill="#209362"/>
        </g>
      </g>
      <g id="Group_3842" data-name="Group 3842" transform="translate(16.14 14.602)">
        <g id="Group_3841" data-name="Group 3841">
          <path id="Path_12828" data-name="Path 12828" d="M348.217,313.055h-1.246V311.81a.469.469,0,1,0-.937,0v1.246h-1.246a.469.469,0,0,0,0,.938h1.246v1.246a.469.469,0,0,0,.938,0v-1.246h1.246a.469.469,0,0,0,0-.937Z" transform="translate(-344.319 -311.341)" fill="#209362"/>
        </g>
      </g>
      <g id="Group_3844" data-name="Group 3844" transform="translate(5.813 15.164)">
        <g id="Group_3843" data-name="Group 3843">
          <path id="Path_12829" data-name="Path 12829" d="M124.469,323.323a.469.469,0,0,0-.469.469V327.7a.469.469,0,0,0,.938,0v-3.906a.469.469,0,0,0-.469-.471Z" transform="translate(-124 -323.323)" fill="#209362"/>
        </g>
      </g>
      <g id="Group_3846" data-name="Group 3846" transform="translate(5.813 20.852)">
        <g id="Group_3845" data-name="Group 3845">
          <path id="Path_12830" data-name="Path 12830" d="M124.8,444.8a.469.469,0,1,0,.137.332.469.469,0,0,0-.137-.332Z" transform="translate(-124 -444.66)" fill="#209362"/>
        </g>
      </g>
    </g>
  </g>
</svg>
