<svg xmlns="http://www.w3.org/2000/svg" xmlns:xlink="http://www.w3.org/1999/xlink" width="24" height="24" viewBox="0 0 24 24">
  <defs>
    <clipPath id="clip-path">
      <rect id="Rectangle_1646" data-name="Rectangle 1646" width="24" height="24" transform="translate(-5284 -7039)" fill="#fff"/>
    </clipPath>
  </defs>
  <g id="Gym" transform="translate(5284 7039)" clip-path="url(#clip-path)">
    <g id="Fitness_CenterGym" data-name="Fitness CenterGym" transform="translate(-5284 -7160.497)">
      <g id="Group_3822" data-name="Group 3822" transform="translate(0 127.46)">
        <path id="Path_12812" data-name="Path 12812" d="M22.625,130.549a1.366,1.366,0,0,0-.672.176v-.266a1.374,1.374,0,0,0-2.047-1.2v-.424a1.375,1.375,0,0,0-2.75,0v3.017H14.88a.352.352,0,1,0,0,.7h2.275v1.86H6.845v-1.86h6.628a.352.352,0,0,0,0-.7H6.845v-3.017a1.375,1.375,0,1,0-2.75,0v.424a1.374,1.374,0,0,0-2.047,1.2v.266A1.374,1.374,0,0,0,0,131.924v3.122a1.374,1.374,0,0,0,2.047,1.2v.266a1.374,1.374,0,0,0,2.047,1.2v.424a1.375,1.375,0,0,0,2.75,0v-3.017h10.31v3.017a1.375,1.375,0,0,0,2.75,0v-.424a1.374,1.374,0,0,0,2.047-1.2v-.266a1.374,1.374,0,0,0,2.047-1.2v-3.122a1.39,1.39,0,0,0-1.373-1.375Zm-20.578,4.5a.672.672,0,0,1-1.344,0v-3.122a.672.672,0,0,1,1.344,0Zm2.047,1.465a.672.672,0,0,1-1.344,0V130.46a.672.672,0,0,1,1.344,0ZM6.142,132.2v5.932a.672.672,0,0,1-1.344,0v-9.3a.672.672,0,0,1,1.344,0Zm13.06,5.932a.672.672,0,0,1-1.344,0v-9.3a.672.672,0,0,1,1.344,0Zm2.047-1.623a.672.672,0,0,1-1.344,0v-6.054a.672.672,0,0,1,1.344,0Zm2.047-1.466a.672.672,0,0,1-1.344,0v-3.122a.672.672,0,0,1,1.344,0Z" transform="translate(0 -127.46)" fill="#209362"/>
      </g>
    </g>
  </g>
</svg>
