<svg xmlns="http://www.w3.org/2000/svg" xmlns:xlink="http://www.w3.org/1999/xlink" width="24" height="24" viewBox="0 0 24 24">
  <defs>
    <clipPath id="clip-path">
      <rect id="Rectangle_1644" data-name="Rectangle 1644" width="24" height="24" transform="translate(-5360 -7039)" fill="#fff"/>
    </clipPath>
  </defs>
  <g id="atm" transform="translate(5360 7039)" clip-path="url(#clip-path)">
    <g id="BankATM" transform="translate(-5360.038 -7045.475)">
      <path id="Path_12750" data-name="Path 12750" d="M23.718,29.487H19.257V28.131a.353.353,0,0,0-.7,0v1.356H5.516V12.6H18.555v13.89a.353.353,0,0,0,.7,0V12.6h.277a.729.729,0,0,0,.729-.729V7.489a.729.729,0,0,0-.729-.729H6.969a.353.353,0,0,0,0,.7H19.535a.023.023,0,0,1,.023.023v4.378a.023.023,0,0,1-.023.023h-15a.023.023,0,0,1-.023-.023V7.489a.023.023,0,0,1,.023-.023h.786a.353.353,0,1,0,0-.7H4.536a.729.729,0,0,0-.729.729v4.378a.729.729,0,0,0,.729.729h.278V29.487H.353a.353.353,0,0,0,0,.7H23.722a.353.353,0,0,0,0-.7Z" fill="#209362"/>
      <path id="Path_12751" data-name="Path 12751" d="M157.49,303.962h-9.127a.542.542,0,0,0-.541.541v6.309a.542.542,0,0,0,.541.541h9.127a.542.542,0,0,0,.541-.541V304.5A.542.542,0,0,0,157.49,303.962Zm-7.208.7h5.286v.964h-5.286Zm7.044,5.98h-8.8v-5.98h1.053v1.128a.542.542,0,0,0,.541.541h5.617a.542.542,0,0,0,.541-.541v-1.128h1.053Z" transform="translate(-140.888 -283.271)" fill="#209362"/>
      <g id="Group_3820" data-name="Group 3820" transform="translate(7.538 7.999)">
        <path id="Path_12752" data-name="Path 12752" d="M161.158,36.547a.353.353,0,0,0,.33-.228l.161-.424h1.113l.159.423a.353.353,0,0,0,.66-.249l-.987-2.616v-.01a.411.411,0,0,0-.382-.256h0a.411.411,0,0,0-.381.257v.008l-1,2.616a.353.353,0,0,0,.329.478Zm1.05-2.12.288.763h-.579Z" transform="translate(-160.806 -33.189)" fill="#209362"/>
        <path id="Path_12753" data-name="Path 12753" d="M278.708,36.236l.247-1.367.408,1.384v.012a.412.412,0,0,0,.391.281h0a.412.412,0,0,0,.39-.285v-.012l.394-1.383.263,1.373a.353.353,0,0,0,.693-.132L281,33.518a.412.412,0,0,0-.8-.045v.012l-.455,1.6-.472-1.6v-.012a.412.412,0,0,0-.8.057l-.464,2.584a.353.353,0,1,0,.694.125Z" transform="translate(-272.514 -33.188)" fill="#209362"/>
        <path id="Path_12754" data-name="Path 12754" d="M227.205,36.546a.353.353,0,0,0,.353-.353v-2.3h.383a.353.353,0,0,0,0-.7h-1.465a.353.353,0,0,0,0,.7h.377v2.3a.353.353,0,0,0,.352.353Z" transform="translate(-223.061 -33.188)" fill="#209362"/>
      </g>
      <path id="Path_12755" data-name="Path 12755" d="M158.031,161.884a.542.542,0,0,0-.541-.541h-9.127a.542.542,0,0,0-.541.541v4.544a.542.542,0,0,0,.541.541h9.127a.542.542,0,0,0,.541-.541Zm-.7.164V164.8h-8.8v-2.751Zm-8.8,4.212V165.5h8.8v.758Z" transform="translate(-140.888 -147.337)" fill="#209362"/>
      <path id="Path_12756" data-name="Path 12756" d="M323.5,401.015v.846a.353.353,0,0,0,.7,0v-.846a.353.353,0,1,0-.7,0Z" transform="translate(-308.335 -375.438)" fill="#209362"/>
      <path id="Path_12757" data-name="Path 12757" d="M297.3,400.662a.353.353,0,0,0-.353.353v.847a.353.353,0,0,0,.7,0v-.846a.353.353,0,0,0-.349-.353Z" transform="translate(-283.023 -375.438)" fill="#209362"/>
      <path id="Path_12758" data-name="Path 12758" d="M187.047,384.3h-1.26a.447.447,0,0,0-.446.446v1.425a.447.447,0,0,0,.446.446h1.26a.447.447,0,0,0,.446-.446v-1.425A.447.447,0,0,0,187.047,384.3Zm-.259,1.614h-.742V385h.742Z" transform="translate(-176.653 -359.84)" fill="#209362"/>
    </g>
  </g>
</svg>
