<svg xmlns="http://www.w3.org/2000/svg" xmlns:xlink="http://www.w3.org/1999/xlink" width="24" height="24" viewBox="0 0 24 24">
  <defs>
    <clipPath id="clip-path">
      <rect id="Rectangle_1648" data-name="Rectangle 1648" width="24" height="24" transform="translate(-4886 -7038)" fill="#209362"/>
    </clipPath>
  </defs>
  <g id="school" transform="translate(4886 7038)" clip-path="url(#clip-path)">
    <g id="Layer_13" data-name="Layer 13" transform="translate(-4885.996 -7038.007)">
      <path id="Path_16339" data-name="Path 16339" d="M19.5,6.476l-.56-3.164a.375.375,0,0,0-.611-.222L15.88,5.153a.375.375,0,0,0-.131.332l.188,1.548a1.153,1.153,0,0,0-.6.657l-1.457,4.025V5.627a.375.375,0,0,0-.05-.188l-1.5-2.626a.39.39,0,0,0-.651,0l-1.5,2.626a.372.372,0,0,0-.045.152L8.189.254A.375.375,0,0,0,8,.042.369.369,0,0,0,7.709.03L4.733,1.113a.375.375,0,0,0-.225.481L8.1,11.459c-1.73.215-2.1.515-2.1.919v10.5c0,.93,3.263,1.125,6,1.125s6-.2,6-1.125v-10.5c0-.364-.36-.55-.775-.67l1.063-2.94a1.165,1.165,0,0,0-.038-.885L19.39,6.815A.375.375,0,0,0,19.5,6.476ZM12,9.8a.375.375,0,0,0-.375.375v2.572c-.258,0-.51-.006-.75-.012V6h2.251v6.737c-.241.007-.493.011-.75.013V10.179A.375.375,0,0,0,12,9.8ZM9.335,12.662l-.017-.045.392-.143a.375.375,0,1,0-.257-.7l-.392.143-.257-.705,1.136-.413a.368.368,0,0,0,.188-.159v2.076Q9.708,12.69,9.335,12.662ZM12,3.757l.854,1.494H11.149ZM7.615.863l2.513,6.91v2.478a.369.369,0,0,0-.443-.163L8.549,10.5l-.257-.7.391-.143a.375.375,0,0,0-.256-.705l-.392.143-.257-.705,1.136-.413a.375.375,0,1,0-.257-.7l-1.135.413-.257-.706.392-.143A.375.375,0,0,0,7.4,6.129l-.392.143-.257-.7,1.135-.413a.375.375,0,1,0-.256-.7L6.5,4.862l-.257-.705.392-.142a.375.375,0,1,0-.257-.705l-.391.141-.257-.705,1.135-.413a.375.375,0,1,0-.257-.7L5.47,2.041l-.128-.353Zm.9,11.724a11.726,11.726,0,0,1-1.334-.208,10.533,10.533,0,0,1,1.186-.194ZM12,23.257a17.823,17.823,0,0,1-5.252-.505V13.036A22.794,22.794,0,0,0,12,13.5a22.777,22.777,0,0,0,5.252-.467v9.715A17.845,17.845,0,0,1,12,23.257ZM17.587,8.515l-1.443,3.991c-.481.071-1.093.134-1.818.179L16.04,7.943a.41.41,0,0,1,.214-.234.42.42,0,0,1,.325-.013l.72.263.031.011a.426.426,0,0,1,.257.545Zm.163-1.187-.162-.059h0l-.713-.263-.2-.072-.161-1.339,1.219-1.027-.331.92a.375.375,0,0,0,.225.481.38.38,0,0,0,.128.023.375.375,0,0,0,.353-.248l.334-.924.281,1.588Z" fill="#209362"/>
      <path id="Path_16340" data-name="Path 16340" d="M12.379,7.127a.375.375,0,0,0-.75,0V8.662a.375.375,0,0,0,.75,0Z" fill="#209362"/>
    </g>
  </g>
</svg>
