<svg xmlns="http://www.w3.org/2000/svg" xmlns:xlink="http://www.w3.org/1999/xlink" width="24" height="24" viewBox="0 0 24 24">
  <defs>
    <clipPath id="clip-path">
      <rect id="Rectangle_1646" data-name="Rectangle 1646" width="24" height="24" transform="translate(-5206 -7039)" fill="#fff"/>
    </clipPath>
  </defs>
  <g id="Garden" transform="translate(5206 7039)" clip-path="url(#clip-path)">
    <g id="ParkGarden" transform="translate(-5205.963 -7060.804)">
      <path id="Path_12846" data-name="Path 12846" d="M354.456,75.737a2.027,2.027,0,1,0-2.027-2.027A2.027,2.027,0,0,0,354.456,75.737Zm0-3.353a1.327,1.327,0,1,1-1.327,1.327,1.327,1.327,0,0,1,1.327-1.327Z" transform="translate(-335.909 -46.495)" fill="#209362"/>
      <path id="Path_12847" data-name="Path 12847" d="M388.55,24.454a.351.351,0,0,0,.351-.351v-.852a.351.351,0,0,0-.7,0V24.1A.351.351,0,0,0,388.55,24.454Z" transform="translate(-370.002)" fill="#209362"/>
      <path id="Path_12848" data-name="Path 12848" d="M336.2,55.951a.352.352,0,0,0,.5-.5l-.254-.254a.352.352,0,1,0-.5.5Z" transform="translate(-320.102 -30.688)" fill="#209362"/>
      <path id="Path_12849" data-name="Path 12849" d="M304,108.154h.852a.351.351,0,0,0,0-.7H304a.351.351,0,0,0,0,.7Z" transform="translate(-289.413 -80.59)" fill="#209362"/>
      <path id="Path_12850" data-name="Path 12850" d="M336.2,154.493l-.254.254a.352.352,0,0,0,.5.5l.254-.254a.352.352,0,0,0-.5-.5Z" transform="translate(-320.101 -125.323)" fill="#209362"/>
      <path id="Path_12851" data-name="Path 12851" d="M388.2,174.178v.852a.351.351,0,1,0,.7,0v-.852a.351.351,0,1,0-.7,0Z" transform="translate(-370.002 -143.851)" fill="#209362"/>
      <path id="Path_12852" data-name="Path 12852" d="M435.73,154.493a.352.352,0,1,0-.5.5l.254.254a.352.352,0,1,0,.5-.5Z" transform="translate(-414.736 -125.323)" fill="#209362"/>
      <path id="Path_12853" data-name="Path 12853" d="M454.923,108.154h.852a.351.351,0,0,0,0-.7h-.852a.351.351,0,0,0,0,.7Z" transform="translate(-433.264 -80.59)" fill="#209362"/>
      <path id="Path_12854" data-name="Path 12854" d="M435.484,56.053a.349.349,0,0,0,.248-.1l.254-.254a.352.352,0,1,0-.5-.5l-.254.254a.351.351,0,0,0,.248.6Z" transform="translate(-414.736 -30.688)" fill="#209362"/>
      <path id="Path_12855" data-name="Path 12855" d="M23.571,266.089H21.2V263.94h.434a.818.818,0,0,0,.817-.817v-.983a.818.818,0,0,0-.817-.817H20.483v-1.2A1.052,1.052,0,0,0,21.3,259.1v-1.435a1.053,1.053,0,0,0-.812-1.024v-.361a.351.351,0,0,0-.7,0v.333H14.1a.351.351,0,0,0,0,.7h6.14a.351.351,0,0,1,.351.351V259.1a.351.351,0,0,1-.351.351H11.121a.351.351,0,0,1-.351-.351v-1.435a.351.351,0,0,1,.351-.351H12.7a.351.351,0,1,0,0-.7H11.582v-.333a.351.351,0,0,0-.7,0v.361a1.053,1.053,0,0,0-.812,1.024V259.1a1.053,1.053,0,0,0,.812,1.024v1.2H9.727a.818.818,0,0,0-.817.817v.979a.818.818,0,0,0,.817.817h.434v2.149H8.041a3.783,3.783,0,0,0-.419-4.078,1.06,1.06,0,0,1-.173-.991A2.928,2.928,0,0,0,4.673,257.2h0a2.916,2.916,0,0,0-1.495.412.351.351,0,1,0,.359.6,2.214,2.214,0,0,1,1.137-.313h0a2.22,2.22,0,0,1,2.1,2.9,1.759,1.759,0,0,0,.3,1.644,3.082,3.082,0,0,1,.153,3.64H5.02v-.878l.782-.782a.352.352,0,0,0-.5-.5l-.286.286v-.282h0v-.673l.782-.782a.352.352,0,0,0-.5-.5l-.286.286v-.287h0v-.673l.782-.782a.352.352,0,1,0-.5-.5l-.286.286v-.528a.351.351,0,0,0-.7,0v1.347l-.286-.286a.352.352,0,0,0-.5.5l.782.782v.961l-.286-.286a.352.352,0,1,0-.5.5l.782.781v.988h0v1.024h-2.2a3.082,3.082,0,0,1,.148-3.633,1.735,1.735,0,0,0,.307-1.631,2.225,2.225,0,0,1,.136-1.72.351.351,0,1,0-.622-.323,2.926,2.926,0,0,0-.183,2.26,1.038,1.038,0,0,1-.19.973,3.788,3.788,0,0,0-.411,4.069H.351a.351.351,0,1,0,0,.7H23.575a.351.351,0,1,0,0-.7Zm-3.068,0H19.8V263.94H20.5Zm-1.408-2.149v2.149H12.27V263.94Zm-7.512-3.781h8.2v1.166h-8.2ZM9.61,263.122v-.982a.117.117,0,0,1,.117-.117H21.638a.117.117,0,0,1,.117.117v.979a.117.117,0,0,1-.117.117H9.727a.117.117,0,0,1-.117-.113Zm1.251.817h.708v2.149h-.7Z" transform="translate(0 -222.115)" fill="#209362"/>
    </g>
  </g>
</svg>
