<svg xmlns="http://www.w3.org/2000/svg" xmlns:xlink="http://www.w3.org/1999/xlink" width="24" height="24" viewBox="0 0 24 24">
  <defs>
    <clipPath id="clip-path">
      <rect id="Rectangle_1646" data-name="Rectangle 1646" width="24" height="24" transform="translate(-5258 -7039)" fill="#fff"/>
    </clipPath>
  </defs>
  <g id="Gas_Station" data-name="Gas Station" transform="translate(5258 7039)" clip-path="url(#clip-path)">
    <g id="Gas_Station-2" data-name="Gas Station" transform="translate(-5293.596 -7039.898)">
      <path id="Path_12759" data-name="Path 12759" d="M135.111,49.392h-8.706a1.131,1.131,0,0,0-1.13,1.13v4.752a1.131,1.131,0,0,0,1.13,1.13h8.706a1.131,1.131,0,0,0,1.13-1.13V50.522a1.131,1.131,0,0,0-1.13-1.13Zm.376,5.882a.377.377,0,0,1-.376.376h-8.706a.377.377,0,0,1-.376-.376V50.522a.377.377,0,0,1,.376-.376h8.706a.377.377,0,0,1,.376.376Z" transform="translate(-83.821 -45.952)" fill="#209362"/>
      <path id="Path_12760" data-name="Path 12760" d="M57.807,3.809,55.858,1.9a.377.377,0,0,0-.527.539l.781.766h0V6.078a.376.376,0,0,0,.376.376h1.13V18.545a.565.565,0,1,1-1.13,0V8.475a1.319,1.319,0,0,0-1.317-1.317h-.565V2.784A1.886,1.886,0,0,0,52.72.9H41.149a1.886,1.886,0,0,0-1.886,1.886v19.1H37.949a1.131,1.131,0,0,0-1.13,1.13v.753a1.131,1.131,0,0,0,1.13,1.13H55.925a1.131,1.131,0,0,0,1.13-1.13v-.753a1.131,1.131,0,0,0-1.13-1.13H54.608V7.91h.565a.566.566,0,0,1,.565.565V18.545a1.317,1.317,0,1,0,2.635,0V5.154a1.893,1.893,0,0,0-.565-1.347ZM56.3,23.016v.753a.377.377,0,0,1-.376.376H37.949a.377.377,0,0,1-.376-.376v-.753a.377.377,0,0,1,.376-.376H55.925a.377.377,0,0,1,.376.376Zm-16.282-1.13V2.784a1.131,1.131,0,0,1,1.13-1.13H52.725a1.131,1.131,0,0,1,1.13,1.13v19.1ZM56.866,5.7V3.941l.414.406a1.136,1.136,0,0,1,.339.808V5.7Z" fill="#209362"/>
      <path id="Path_12761" data-name="Path 12761" d="M184.1,242.47h-4.565a.376.376,0,1,0,0,.753H184.1a.376.376,0,0,0,0-.753Z" transform="translate(-134.88 -228.913)" fill="#209362"/>
      <path id="Path_12762" data-name="Path 12762" d="M184.1,289.616h-4.565a.376.376,0,1,0,0,.753H184.1a.376.376,0,0,0,0-.753Z" transform="translate(-134.88 -273.589)" fill="#209362"/>
      <path id="Path_12763" data-name="Path 12763" d="M184.1,336.763h-4.565a.376.376,0,1,0,0,.753H184.1a.376.376,0,1,0,0-.753Z" transform="translate(-134.88 -318.266)" fill="#209362"/>
    </g>
  </g>
</svg>
