<svg xmlns="http://www.w3.org/2000/svg" xmlns:xlink="http://www.w3.org/1999/xlink" width="24" height="24" viewBox="0 0 24 24">
  <defs>
    <clipPath id="clip-path">
      <rect id="Rectangle_1645" data-name="Rectangle 1645" width="24" height="24" transform="translate(-5335 -7039)" fill="#fff"/>
    </clipPath>
  </defs>
  <g id="Bus_Stop" data-name="Bus Stop" transform="translate(5335 7039)" clip-path="url(#clip-path)">
    <g id="Bus_Stop-2" data-name="Bus Stop" transform="translate(-5335 -7039.021)">
      <g id="Group_3848" data-name="Group 3848" transform="translate(0 0.021)">
        <g id="Group_3847" data-name="Group 3847">
          <path id="Path_12856" data-name="Path 12856" d="M22.18.021H9.418a1.918,1.918,0,0,0-1.818,2V18.438a.4.4,0,0,0,.027.132v.008h0l.947,2.175a.756.756,0,0,0,.686.465H9.6v1.6a1.185,1.185,0,0,0,.074.4H4.8v-7.2a1.2,1.2,0,0,0-1.2-1.2V7.993a3.2,3.2,0,1,0-.8,0V14.82a1.2,1.2,0,0,0-1.2,1.2v7.2H.4a.4.4,0,1,0,0,.8H23.6a.4.4,0,0,0,0-.8H21.925a1.185,1.185,0,0,0,.074-.4v-1.6h.334a.756.756,0,0,0,.686-.465l.947-2.176h0V18.57a.4.4,0,0,0,.027-.132V2.021a1.918,1.918,0,0,0-1.813-2ZM.8,4.821a2.4,2.4,0,1,1,2.4,2.4,2.4,2.4,0,0,1-2.4-2.4ZM4,23.219H2.4v-7.2a.4.4,0,0,1,.4-.4h.8a.4.4,0,0,1,.4.4Zm8-.4a.4.4,0,0,1-.4.4h-.8a.4.4,0,0,1-.4-.4v-1.6H12Zm.726.4a1.185,1.185,0,0,0,.074-.4v-1.6h6v1.6a1.185,1.185,0,0,0,.074.4Zm8.473-.4a.4.4,0,0,1-.4.4H20a.4.4,0,0,1-.4-.4v-1.6h1.6v1.6Zm1.093-2.4H9.306l-.7-1.6H22.988ZM14,18.02v-.8a.4.4,0,0,1,.4-.4h2.8a.4.4,0,0,1,.4.4v.8Zm9.2-16v16H18.4v-.8a1.2,1.2,0,0,0-1.2-1.2H14.4a1.2,1.2,0,0,0-1.2,1.2v.8H8.4v-16A1.122,1.122,0,0,1,9.418.821H22.18a1.122,1.122,0,0,1,1.02,1.2Z" transform="translate(0 -0.021)" fill="#209362"/>
          <path id="Path_12857" data-name="Path 12857" d="M208.268,34.155h-10.8a1.2,1.2,0,0,0-1.2,1.2v.4a1.2,1.2,0,0,0,1.2,1.2h10.8a1.2,1.2,0,0,0,1.2-1.2v-.4a1.2,1.2,0,0,0-1.2-1.2Zm.4,1.6a.4.4,0,0,1-.4.4h-10.8a.4.4,0,0,1-.4-.4v-.4a.4.4,0,0,1,.4-.4h10.8a.4.4,0,0,1,.4.4Z" transform="translate(-187.07 -32.555)" fill="#209362"/>
          <path id="Path_12858" data-name="Path 12858" d="M197.869,298.688a1.6,1.6,0,1,0,1.6,1.6A1.6,1.6,0,0,0,197.869,298.688Zm0,2.4a.8.8,0,1,1,.8-.8A.8.8,0,0,1,197.869,301.088Z" transform="translate(-187.07 -284.689)" fill="#209362"/>
          <path id="Path_12859" data-name="Path 12859" d="M411.2,298.688a1.6,1.6,0,1,0,1.6,1.6A1.6,1.6,0,0,0,411.2,298.688Zm0,2.4a.8.8,0,1,1,.8-.8A.8.8,0,0,1,411.2,301.088Z" transform="translate(-390.404 -284.689)" fill="#209362"/>
          <path id="Path_12860" data-name="Path 12860" d="M208.268,110.955h-10.8a1.2,1.2,0,0,0-1.2,1.2v5.6a1.2,1.2,0,0,0,1.2,1.2h10.8a1.2,1.2,0,0,0,1.2-1.2v-5.6a1.2,1.2,0,0,0-1.2-1.2Zm.4,6.8a.4.4,0,0,1-.4.4h-10.8a.4.4,0,0,1-.4-.4v-5.6a.4.4,0,0,1,.4-.4h10.8a.4.4,0,0,1,.4.4Z" transform="translate(-187.07 -105.755)" fill="#209362"/>
        </g>
      </g>
    </g>
  </g>
</svg>
