<svg xmlns="http://www.w3.org/2000/svg" xmlns:xlink="http://www.w3.org/1999/xlink" width="24" height="24" viewBox="0 0 24 24">
  <defs>
    <clipPath id="clip-path">
      <rect id="Rectangle_1646" data-name="Rectangle 1646" width="24" height="24" transform="translate(-5128 -7039)" fill="#fff"/>
    </clipPath>
  </defs>
  <g id="Police_Station" data-name="Police Station" transform="translate(5128 7039)" clip-path="url(#clip-path)">
    <g id="Police_Station-2" data-name="Police Station" transform="translate(-5128.01 -7039.278)">
      <path id="Path_12792" data-name="Path 12792" d="M375.556,126.648h-.009a.469.469,0,0,1,0-.937h.009a.469.469,0,0,1,0,.937Zm0,0" transform="translate(-357.496 -119.342)" fill="#209362"/>
      <path id="Path_12793" data-name="Path 12793" d="M286.5,184.338a.423.423,0,0,0,.128-.31V181.22a.453.453,0,0,0-.126-.319.422.422,0,0,0-.622.005.444.444,0,0,0-.133.314v2.8a.43.43,0,0,0,.129.315.442.442,0,0,0,.624,0Zm0,0" transform="translate(-272.355 -171.816)" fill="#209362"/>
      <path id="Path_12794" data-name="Path 12794" d="M142.994,183.979a1.641,1.641,0,0,0,1.26-.536,2.077,2.077,0,0,0,0-2.685,1.762,1.762,0,0,0-2.517,0,1.881,1.881,0,0,0-.493,1.339,1.915,1.915,0,0,0,.494,1.355,1.649,1.649,0,0,0,1.257.531Zm-.6-2.653a.739.739,0,0,1,.6-.287.727.727,0,0,1,.6.29,1.42,1.42,0,0,1,0,1.557.772.772,0,0,1-1.206,0,1.256,1.256,0,0,1-.231-.79,1.2,1.2,0,0,1,.243-.771Zm0,0" transform="translate(-134.622 -171.302)" fill="#209362"/>
      <path id="Path_12795" data-name="Path 12795" d="M227.312,180.9a.432.432,0,0,0-.31-.13.42.42,0,0,0-.31.132.429.429,0,0,0-.13.313v2.749a.455.455,0,0,0,.131.324.418.418,0,0,0,.314.14h1.266a.371.371,0,0,0,.161-.033.436.436,0,0,0,.125-.088.4.4,0,0,0,.121-.289.375.375,0,0,0-.033-.162.4.4,0,0,0-.088-.126h0a.416.416,0,0,0-.288-.114h-.823v-2.4a.424.424,0,0,0-.136-.316Zm0,0" transform="translate(-215.942 -171.816)" fill="#209362"/>
      <path id="Path_12796" data-name="Path 12796" d="M77.02,186.168a.433.433,0,0,0,.13-.313v-.747h.541a1.162,1.162,0,0,0,1.233-1.226,1.2,1.2,0,0,0-.357-.9,1.274,1.274,0,0,0-.924-.346h-.919a.432.432,0,0,0-.322.134.449.449,0,0,0-.133.33v2.744a.442.442,0,0,0,.13.323.431.431,0,0,0,.621,0Zm.13-2.725H77.6a.38.38,0,0,1,.295.129.446.446,0,0,1,.12.315.411.411,0,0,1-.126.3.4.4,0,0,1-.294.128H77.15Zm0,0" transform="translate(-72.694 -173.599)" fill="#209362"/>
      <path id="Path_12797" data-name="Path 12797" d="M395.167,182.412a.384.384,0,0,0,.28-.122h0a.435.435,0,0,0,.113-.291.4.4,0,0,0-.114-.286.38.38,0,0,0-.282-.12H393.91a.421.421,0,0,0-.316.137.45.45,0,0,0-.129.318v2.715a.434.434,0,0,0,.13.322.44.44,0,0,0,.319.128h1.277a.4.4,0,0,0,.292-.116.392.392,0,0,0,.12-.285.378.378,0,0,0-.035-.162.437.437,0,0,0-.086-.126.408.408,0,0,0-.291-.122h-.841v-.6h.729a.41.41,0,0,0,.3-.118.409.409,0,0,0-.3-.692h-.735v-.575h.823Zm0,0" transform="translate(-375.021 -172.601)" fill="#209362"/>
      <path id="Path_12798" data-name="Path 12798" d="M320.1,181.181a1.211,1.211,0,0,1,.432.094,1.024,1.024,0,0,0,.318.086.345.345,0,0,0,.263-.124.415.415,0,0,0,.109-.287.516.516,0,0,0-.326-.445,1.626,1.626,0,0,0-.768-.165,1.7,1.7,0,0,0-1.282.525,2.056,2.056,0,0,0-.007,2.685,1.816,1.816,0,0,0,2.067.344.561.561,0,0,0,.35-.459.419.419,0,0,0-.113-.293.357.357,0,0,0-.27-.122.381.381,0,0,0-.175.038l-.134.057a1.123,1.123,0,0,1-.464.1.75.75,0,0,1-.608-.275,1.3,1.3,0,0,1,0-1.487A.755.755,0,0,1,320.1,181.181Zm0,0" transform="translate(-303.425 -171.41)" fill="#209362"/>
      <path id="Path_12799" data-name="Path 12799" d="M23.532,23.094h-.571V7.272a1.323,1.323,0,0,0-.3-2.612H20.675V2.548a.469.469,0,0,0-.469-.469h-4.54a.466.466,0,0,0-.165-.122L12.283.54a.469.469,0,0,0-.378,0L8.688,1.957a.468.468,0,0,0-.165.122H3.793a.469.469,0,0,0-.469.469V4.66H1.335a1.323,1.323,0,0,0-.3,2.612V13.7a.469.469,0,0,0,.937,0V7.3H10.53a3.2,3.2,0,0,0,1.476.972.465.465,0,0,0,.176,0A3.2,3.2,0,0,0,13.659,7.3h2.523a.469.469,0,0,0,0-.937H14.43l.015-.021a8.126,8.126,0,0,0,.462-.751h7.757a.386.386,0,0,1,0,.772H19.878a.469.469,0,1,0,0,.937h2.146V23.094H14.9V16.951a1.083,1.083,0,0,0-1.081-1.082H10.1a1.083,1.083,0,0,0-1.081,1.082v6.143H1.977V17.446a.469.469,0,1,0-.937,0v5.648H.469a.469.469,0,0,0,0,.937H23.532a.469.469,0,0,0,0-.937ZM4.262,3.017H8.443A6.632,6.632,0,0,0,8.849,4.66H4.262ZM1.335,6.369a.386.386,0,1,1,0-.772H9.282a8.154,8.154,0,0,0,.462.751l.015.021Zm10.759.962a3.191,3.191,0,0,1-1-.788.482.482,0,0,0-.037-.041,6.737,6.737,0,0,1-.547-.69A6.386,6.386,0,0,1,9.355,2.688l2.739-1.207,2.74,1.207a6.384,6.384,0,0,1-1.159,3.126,6.749,6.749,0,0,1-.549.691.5.5,0,0,0-.034.037,3.2,3.2,0,0,1-1,.79Zm3.652-4.314h3.992V4.66h-4.4a6.616,6.616,0,0,0,.405-1.643ZM9.958,16.951a.146.146,0,0,1,.144-.144h3.719a.146.146,0,0,1,.144.144v6.143H9.958Zm0,0" fill="#209362"/>
      <path id="Path_12800" data-name="Path 12800" d="M71.6,296.988v5.726a.469.469,0,0,0,.469.469H75.4a.469.469,0,0,0,.469-.469v-5.726a.469.469,0,0,0-.469-.469H72.07a.469.469,0,0,0-.47.469Zm.937,5.257v-1.926h2.4v1.926Zm0-4.788h2.4v1.925h-2.4Zm0,0" transform="translate(-68.245 -282.144)" fill="#209362"/>
      <path id="Path_12801" data-name="Path 12801" d="M343.133,296.929v5.727a.469.469,0,0,0,.469.469h3.334a.469.469,0,0,0,.469-.469v-5.727a.469.469,0,0,0-.469-.469H343.6a.469.469,0,0,0-.467.469Zm.937,5.258v-1.926h2.4v1.926Zm0-4.79h2.4v1.926h-2.4Zm0,0" transform="translate(-327.048 -282.088)" fill="#209362"/>
      <path id="Path_12802" data-name="Path 12802" d="M22.633,312.845a.469.469,0,0,0,.469-.469v-.009a.469.469,0,0,0-.937,0v.009a.469.469,0,0,0,.468.469Zm0,0" transform="translate(-21.125 -296.802)" fill="#209362"/>
    </g>
  </g>
</svg>
