<svg xmlns="http://www.w3.org/2000/svg" xmlns:xlink="http://www.w3.org/1999/xlink" width="320" zoomAndPan="magnify" viewBox="0 0 240 98.999996" height="132" preserveAspectRatio="xMidYMid meet" version="1.0"><defs><g/></defs><rect x="-24" width="288" fill="#ffffff" y="-9.9" height="118.799995" fill-opacity="1"/><rect x="-24" width="288" fill="#ffffff" y="-9.9" height="118.799995" fill-opacity="1"/><path fill="#209362" d="M 34.777344 10.113281 L 36.535156 10.113281 L 37.882812 10.527344 L 45.949219 15.183594 L 48.121094 16.425781 L 50.605469 17.875 L 53.191406 19.324219 L 54.949219 20.355469 L 57.640625 21.910156 L 60.121094 23.355469 L 63.019531 25.011719 L 65.707031 26.5625 L 68.191406 28.011719 L 69.328125 28.839844 L 70.054688 29.667969 L 70.675781 31.011719 L 70.882812 32.148438 L 70.882812 67.425781 L 70.675781 68.667969 L 70.261719 69.703125 L 69.433594 70.839844 L 68.398438 71.5625 L 66.019531 72.910156 L 61.570312 75.496094 L 58.675781 77.152344 L 56.191406 78.597656 L 48.949219 82.734375 L 46.46875 84.183594 L 38.398438 88.839844 L 37.363281 89.355469 L 36.535156 89.5625 L 34.882812 89.5625 L 33.535156 89.148438 L 31.46875 88.011719 L 28.984375 86.5625 L 26.085938 84.910156 L 24.226562 83.875 L 21.226562 82.117188 L 19.054688 80.875 L 16.570312 79.425781 L 13.675781 77.769531 L 11.191406 76.320312 L 8.292969 74.667969 L 5.605469 73.113281 L 2.8125 71.460938 L 1.777344 70.632812 L 1.15625 69.804688 L 0.640625 68.5625 L 0.535156 68.148438 L 0.433594 66.703125 L 0.433594 32.5625 L 0.535156 31.425781 L 1.054688 30.082031 L 1.675781 29.148438 L 2.605469 28.324219 L 7.984375 25.21875 L 10.15625 23.976562 L 11.914062 22.941406 L 14.605469 21.390625 L 18.949219 18.910156 L 21.433594 17.460938 L 25.777344 14.976562 L 28.46875 13.425781 L 33.535156 10.527344 L 34.261719 10.21875 Z M 34.777344 10.113281 " fill-opacity="1" fill-rule="nonzero"/><path fill="#fcfdfd" d="M 65.8125 34.945312 L 65.914062 34.945312 L 65.914062 44.046875 L 64.570312 44.875 L 61.675781 46.527344 L 60.535156 47.148438 L 60.433594 47.046875 L 60.328125 44.460938 L 52.261719 49.117188 L 49.882812 50.460938 L 48.121094 51.496094 L 45.226562 53.148438 L 43.15625 54.390625 L 43.054688 74.253906 L 44.296875 73.632812 L 46.570312 72.289062 L 49.261719 70.738281 L 55.054688 67.425781 L 57.742188 65.875 L 59.917969 64.632812 L 60.433594 64.425781 L 60.328125 56.769531 L 58.570312 57.703125 L 56.8125 58.734375 L 54.328125 60.183594 L 51.949219 61.53125 L 51.742188 61.53125 L 51.742188 55.324219 L 52.570312 54.804688 L 55.261719 53.253906 L 57.742188 51.804688 L 59.917969 50.5625 L 61.882812 49.425781 L 64.054688 48.183594 L 65.605469 47.253906 L 65.914062 47.253906 L 65.914062 67.53125 L 64.570312 68.355469 L 61.882812 69.910156 L 59.710938 71.148438 L 57.019531 72.703125 L 54.847656 73.945312 L 52.363281 75.390625 L 50.503906 76.425781 L 48.742188 77.460938 L 43.363281 80.5625 L 40.882812 82.011719 L 38.089844 83.5625 L 37.570312 83.769531 L 37.570312 51.183594 L 39.847656 49.839844 L 50.605469 43.632812 L 52.777344 42.390625 L 55.15625 41.046875 L 58.15625 39.289062 L 60.535156 37.945312 L 63.019531 36.496094 L 65.191406 35.253906 Z M 65.8125 34.945312 " fill-opacity="1" fill-rule="nonzero"/><path fill="#fcfdfd" d="M 5.5 34.945312 L 6.742188 35.5625 L 9.226562 37.011719 L 11.914062 38.5625 L 14.8125 40.21875 L 17.296875 41.667969 L 25.363281 46.320312 L 27.949219 47.769531 L 30.433594 49.21875 L 33.125 50.769531 L 33.847656 51.289062 L 33.742188 60.390625 L 32.292969 59.5625 L 29.707031 58.117188 L 28.363281 57.289062 L 28.261719 56.667969 L 28.261719 54.703125 L 28.363281 54.390625 L 27.949219 54.183594 L 25.878906 53.046875 L 23.398438 51.597656 L 21.535156 50.5625 L 19.777344 49.527344 L 11.707031 44.875 L 10.882812 44.460938 L 10.984375 64.324219 L 12.019531 64.941406 L 13.984375 66.082031 L 16.464844 67.53125 L 18.847656 68.875 L 21.640625 70.53125 L 23.296875 71.460938 L 25.675781 72.804688 L 28.363281 74.355469 L 28.261719 74.152344 L 28.15625 66.597656 L 25.261719 64.941406 L 22.878906 63.597656 L 20.398438 62.148438 L 19.570312 61.632812 L 19.570312 55.425781 L 20.191406 55.632812 L 22.054688 56.667969 L 24.535156 58.117188 L 27.328125 59.667969 L 32.292969 62.5625 L 33.742188 63.390625 L 33.742188 83.769531 L 33.226562 83.5625 L 30.640625 82.117188 L 28.15625 80.667969 L 25.46875 79.117188 L 22.878906 77.667969 L 21.121094 76.632812 L 18.226562 74.976562 L 16.261719 73.839844 L 11.296875 70.945312 L 8.605469 69.390625 L 5.707031 67.738281 L 5.398438 67.53125 L 5.398438 35.046875 Z M 5.5 34.945312 " fill-opacity="1" fill-rule="nonzero"/><path fill="#fcfdfd" d="M 35.5 14.769531 L 36.019531 14.875 L 38.914062 16.527344 L 41.398438 17.976562 L 43.570312 19.21875 L 43.570312 19.425781 L 41.707031 20.460938 L 39.226562 21.910156 L 38.292969 22.425781 L 37.777344 22.324219 L 35.8125 21.183594 L 35.292969 21.289062 L 33.742188 22.21875 L 32.085938 23.148438 L 29.605469 24.597656 L 26.917969 26.148438 L 24.742188 27.390625 L 22.363281 28.738281 L 19.882812 30.183594 L 18.433594 31.011719 L 19.363281 31.632812 L 22.261719 33.289062 L 24.226562 34.425781 L 27.019531 35.976562 L 31.261719 38.460938 L 35.605469 40.945312 L 36.121094 40.738281 L 37.777344 39.804688 L 42.226562 37.21875 L 45.121094 35.5625 L 47.605469 34.117188 L 51.949219 31.632812 L 52.878906 31.117188 L 52.363281 30.699219 L 49.984375 29.355469 L 47.503906 27.910156 L 46.46875 27.289062 L 45.949219 27.390625 L 43.882812 28.632812 L 41.707031 29.875 L 39.226562 31.324219 L 37.777344 32.148438 L 37.261719 32.046875 L 34.570312 30.496094 L 32.292969 29.148438 L 32.398438 28.839844 L 37.777344 25.734375 L 40.675781 24.082031 L 43.15625 22.632812 L 45.328125 21.390625 L 46.15625 20.875 L 46.570312 20.976562 L 48.949219 22.324219 L 51.640625 23.875 L 54.019531 25.21875 L 55.777344 26.253906 L 58.46875 27.804688 L 60.640625 29.046875 L 63.121094 30.496094 L 63.949219 31.011719 L 63.640625 31.324219 L 61.261719 32.667969 L 58.777344 34.117188 L 56.605469 35.355469 L 54.121094 36.804688 L 51.535156 38.253906 L 49.054688 39.703125 L 43.675781 42.804688 L 40.777344 44.460938 L 38.292969 45.910156 L 36.019531 47.253906 L 35.398438 47.253906 L 32.5 45.597656 L 30.535156 44.460938 L 28.363281 43.21875 L 26.398438 42.082031 L 23.8125 40.632812 L 21.328125 39.183594 L 18.640625 37.632812 L 11.296875 33.390625 L 8.8125 31.941406 L 7.363281 31.117188 L 7.675781 30.804688 L 10.570312 29.148438 L 13.054688 27.703125 L 15.949219 26.046875 L 18.949219 24.289062 L 21.328125 22.941406 L 23.8125 21.496094 L 26.191406 20.148438 L 29.085938 18.496094 L 30.847656 17.460938 L 33.742188 15.804688 Z M 35.5 14.769531 " fill-opacity="1" fill-rule="nonzero"/><g fill="#209362" fill-opacity="1"><g transform="translate(77.324713, 61.124994)"><g><path d="M 1.5 -4.296875 L 1.5 -19.59375 C 1.5 -21 1.863281 -22.066406 2.59375 -22.796875 C 3.332031 -23.523438 4.398438 -23.890625 5.796875 -23.890625 L 9.734375 -23.890625 C 11.128906 -23.890625 12.191406 -23.523438 12.921875 -22.796875 C 13.660156 -22.066406 14.03125 -21 14.03125 -19.59375 L 14.03125 -16.484375 C 14.03125 -16.160156 13.875 -16 13.5625 -16 L 10.5625 -16 C 10.25 -16 10.09375 -16.160156 10.09375 -16.484375 L 10.09375 -18.75 C 10.09375 -19.550781 9.691406 -19.953125 8.890625 -19.953125 L 6.75 -19.953125 C 5.945312 -19.953125 5.546875 -19.550781 5.546875 -18.75 L 5.546875 -5.140625 C 5.546875 -4.335938 5.945312 -3.9375 6.75 -3.9375 L 8.890625 -3.9375 C 9.691406 -3.9375 10.09375 -4.335938 10.09375 -5.140625 L 10.09375 -9.140625 L 8.546875 -9.140625 C 8.222656 -9.140625 8.0625 -9.296875 8.0625 -9.609375 L 8.0625 -12.59375 C 8.0625 -12.914062 8.222656 -13.078125 8.546875 -13.078125 L 13.5625 -13.078125 C 13.875 -13.078125 14.03125 -12.914062 14.03125 -12.59375 L 14.03125 -4.296875 C 14.03125 -2.898438 13.660156 -1.832031 12.921875 -1.09375 C 12.191406 -0.363281 11.128906 0 9.734375 0 L 5.796875 0 C 4.398438 0 3.332031 -0.363281 2.59375 -1.09375 C 1.863281 -1.832031 1.5 -2.898438 1.5 -4.296875 Z M 1.5 -4.296875 "/></g></g></g><g fill="#209362" fill-opacity="1"><g transform="translate(92.851609, 61.124994)"><g><path d="M 13.765625 -19.59375 L 13.765625 -12.296875 C 13.765625 -10.304688 13.035156 -8.992188 11.578125 -8.359375 L 13.640625 -0.53125 C 13.742188 -0.175781 13.609375 0 13.234375 0 L 10.125 0 C 9.84375 0 9.671875 -0.140625 9.609375 -0.421875 L 7.609375 -8 L 5.546875 -8 L 5.546875 -0.484375 C 5.546875 -0.160156 5.390625 0 5.078125 0 L 1.96875 0 C 1.65625 0 1.5 -0.160156 1.5 -0.484375 L 1.5 -23.40625 C 1.5 -23.726562 1.65625 -23.890625 1.96875 -23.890625 L 9.46875 -23.890625 C 10.875 -23.890625 11.941406 -23.523438 12.671875 -22.796875 C 13.398438 -22.066406 13.765625 -21 13.765625 -19.59375 Z M 5.546875 -11.9375 L 8.515625 -11.9375 C 9.304688 -11.9375 9.703125 -12.335938 9.703125 -13.140625 L 9.703125 -18.75 C 9.703125 -19.550781 9.304688 -19.953125 8.515625 -19.953125 L 5.546875 -19.953125 Z M 5.546875 -11.9375 "/></g></g></g><g fill="#209362" fill-opacity="1"><g transform="translate(108.109775, 61.124994)"><g><path d="M 13.40625 -23.40625 L 13.40625 -20.421875 C 13.40625 -20.085938 13.242188 -19.921875 12.921875 -19.921875 L 5.46875 -19.921875 L 5.46875 -13.9375 L 11.171875 -13.9375 C 11.484375 -13.9375 11.640625 -13.769531 11.640625 -13.4375 L 11.640625 -10.484375 C 11.640625 -10.140625 11.484375 -9.96875 11.171875 -9.96875 L 5.46875 -9.96875 L 5.46875 -3.9375 L 12.921875 -3.9375 C 13.242188 -3.9375 13.40625 -3.78125 13.40625 -3.46875 L 13.40625 -0.484375 C 13.40625 -0.160156 13.242188 0 12.921875 0 L 1.9375 0 C 1.644531 0 1.5 -0.160156 1.5 -0.484375 L 1.5 -23.40625 C 1.5 -23.726562 1.644531 -23.890625 1.9375 -23.890625 L 12.921875 -23.890625 C 13.242188 -23.890625 13.40625 -23.726562 13.40625 -23.40625 Z M 13.40625 -23.40625 "/></g></g></g><g fill="#209362" fill-opacity="1"><g transform="translate(123.009626, 61.124994)"><g><path d="M 13.40625 -23.40625 L 13.40625 -20.421875 C 13.40625 -20.085938 13.242188 -19.921875 12.921875 -19.921875 L 5.46875 -19.921875 L 5.46875 -13.9375 L 11.171875 -13.9375 C 11.484375 -13.9375 11.640625 -13.769531 11.640625 -13.4375 L 11.640625 -10.484375 C 11.640625 -10.140625 11.484375 -9.96875 11.171875 -9.96875 L 5.46875 -9.96875 L 5.46875 -3.9375 L 12.921875 -3.9375 C 13.242188 -3.9375 13.40625 -3.78125 13.40625 -3.46875 L 13.40625 -0.484375 C 13.40625 -0.160156 13.242188 0 12.921875 0 L 1.9375 0 C 1.644531 0 1.5 -0.160156 1.5 -0.484375 L 1.5 -23.40625 C 1.5 -23.726562 1.644531 -23.890625 1.9375 -23.890625 L 12.921875 -23.890625 C 13.242188 -23.890625 13.40625 -23.726562 13.40625 -23.40625 Z M 13.40625 -23.40625 "/></g></g></g><g fill="#209362" fill-opacity="1"><g transform="translate(137.909478, 61.124994)"><g><path d="M 10.65625 -23.890625 L 13.765625 -23.890625 C 14.085938 -23.890625 14.25 -23.726562 14.25 -23.40625 L 14.25 -0.484375 C 14.25 -0.160156 14.085938 0 13.765625 0 L 10.8125 0 C 10.53125 0 10.347656 -0.128906 10.265625 -0.390625 L 5.703125 -13.140625 L 5.546875 -13.140625 L 5.546875 -0.484375 C 5.546875 -0.160156 5.390625 0 5.078125 0 L 1.96875 0 C 1.65625 0 1.5 -0.160156 1.5 -0.484375 L 1.5 -23.40625 C 1.5 -23.726562 1.65625 -23.890625 1.96875 -23.890625 L 4.921875 -23.890625 C 5.203125 -23.890625 5.382812 -23.757812 5.46875 -23.5 L 10 -10.8125 L 10.1875 -10.8125 L 10.1875 -23.40625 C 10.1875 -23.726562 10.34375 -23.890625 10.65625 -23.890625 Z M 10.65625 -23.890625 "/></g></g></g><g fill="#144273" fill-opacity="1"><g transform="translate(155.582526, 61.12807)"><g><path d="M 15.90625 0 L 12.734375 0 C 12.472656 0 12.3125 -0.140625 12.25 -0.421875 L 11.421875 -4.78125 L 6.09375 -4.78125 L 5.296875 -0.421875 C 5.234375 -0.140625 5.070312 0 4.8125 0 L 1.609375 0 C 1.253906 0 1.125 -0.171875 1.21875 -0.515625 L 6.1875 -23.5 C 6.25 -23.769531 6.421875 -23.90625 6.703125 -23.90625 L 10.84375 -23.90625 C 11.125 -23.90625 11.296875 -23.769531 11.359375 -23.5 L 16.3125 -0.515625 C 16.375 -0.171875 16.238281 0 15.90625 0 Z M 10.671875 -8.25 L 8.765625 -18.6875 L 6.84375 -8.25 Z M 10.671875 -8.25 "/></g></g></g><g fill="#144273" fill-opacity="1"><g transform="translate(173.100683, 61.12807)"><g><path d="M 5.5625 -3.953125 L 5.5625 -23.4375 C 5.5625 -23.75 5.398438 -23.90625 5.078125 -23.90625 L 1.96875 -23.90625 C 1.65625 -23.90625 1.5 -23.75 1.5 -23.4375 L 1.5 -0.484375 C 1.5 -0.160156 1.65625 0 1.96875 0 L 12.671875 0 C 12.992188 0 13.15625 -0.160156 13.15625 -0.484375 L 13.15625 -3.46875 C 13.15625 -3.789062 12.992188 -3.953125 12.671875 -3.953125 Z M 5.5625 -3.953125 "/></g></g></g><g fill="#144273" fill-opacity="1"><g transform="translate(187.748971, 61.12807)"><g><path d="M 5.5625 -3.953125 L 5.5625 -23.4375 C 5.5625 -23.75 5.398438 -23.90625 5.078125 -23.90625 L 1.96875 -23.90625 C 1.65625 -23.90625 1.5 -23.75 1.5 -23.4375 L 1.5 -0.484375 C 1.5 -0.160156 1.65625 0 1.96875 0 L 12.671875 0 C 12.992188 0 13.15625 -0.160156 13.15625 -0.484375 L 13.15625 -3.46875 C 13.15625 -3.789062 12.992188 -3.953125 12.671875 -3.953125 Z M 5.5625 -3.953125 "/></g></g></g><g fill="#144273" fill-opacity="1"><g transform="translate(202.397259, 61.12807)"><g><path d="M 1.96875 -23.90625 L 5.078125 -23.90625 C 5.398438 -23.90625 5.5625 -23.75 5.5625 -23.4375 L 5.5625 -0.484375 C 5.5625 -0.160156 5.398438 0 5.078125 0 L 1.96875 0 C 1.65625 0 1.5 -0.160156 1.5 -0.484375 L 1.5 -23.4375 C 1.5 -23.75 1.65625 -23.90625 1.96875 -23.90625 Z M 1.96875 -23.90625 "/></g></g></g><g fill="#144273" fill-opacity="1"><g transform="translate(209.452358, 61.12807)"><g><path d="M 13.421875 -23.4375 L 13.421875 -20.4375 C 13.421875 -20.101562 13.257812 -19.9375 12.9375 -19.9375 L 5.46875 -19.9375 L 5.46875 -13.953125 L 11.171875 -13.953125 C 11.492188 -13.953125 11.65625 -13.785156 11.65625 -13.453125 L 11.65625 -10.484375 C 11.65625 -10.148438 11.492188 -9.984375 11.171875 -9.984375 L 5.46875 -9.984375 L 5.46875 -3.953125 L 12.9375 -3.953125 C 13.257812 -3.953125 13.421875 -3.789062 13.421875 -3.46875 L 13.421875 -0.484375 C 13.421875 -0.160156 13.257812 0 12.9375 0 L 1.9375 0 C 1.644531 0 1.5 -0.160156 1.5 -0.484375 L 1.5 -23.4375 C 1.5 -23.75 1.644531 -23.90625 1.9375 -23.90625 L 12.9375 -23.90625 C 13.257812 -23.90625 13.421875 -23.75 13.421875 -23.4375 Z M 13.421875 -23.4375 "/></g></g></g><g fill="#144273" fill-opacity="1"><g transform="translate(224.369696, 61.12807)"><g><path d="M 5.796875 -23.90625 L 9.140625 -23.90625 C 10.554688 -23.90625 11.628906 -23.539062 12.359375 -22.8125 C 13.085938 -22.09375 13.453125 -21.023438 13.453125 -19.609375 L 13.453125 -16.4375 C 13.453125 -16.125 13.289062 -15.96875 12.96875 -15.96875 L 9.859375 -15.96875 C 9.546875 -15.96875 9.390625 -16.125 9.390625 -16.4375 L 9.390625 -18.765625 C 9.390625 -19.566406 8.988281 -19.96875 8.1875 -19.96875 L 6.75 -19.96875 C 5.957031 -19.96875 5.5625 -19.566406 5.5625 -18.765625 L 5.5625 -14.640625 L 12.671875 -12.3125 C 13.191406 -12.09375 13.453125 -11.722656 13.453125 -11.203125 L 13.453125 -4.296875 C 13.453125 -2.910156 13.085938 -1.847656 12.359375 -1.109375 C 11.628906 -0.367188 10.554688 0 9.140625 0 L 5.796875 0 C 4.398438 0 3.332031 -0.367188 2.59375 -1.109375 C 1.863281 -1.847656 1.5 -2.910156 1.5 -4.296875 L 1.5 -7.4375 C 1.5 -7.757812 1.65625 -7.921875 1.96875 -7.921875 L 5.078125 -7.921875 C 5.398438 -7.921875 5.5625 -7.757812 5.5625 -7.4375 L 5.5625 -5.140625 C 5.5625 -4.347656 5.957031 -3.953125 6.75 -3.953125 L 8.1875 -3.953125 C 8.988281 -3.953125 9.390625 -4.347656 9.390625 -5.140625 L 9.390625 -9.109375 L 2.296875 -11.453125 C 1.765625 -11.628906 1.5 -11.992188 1.5 -12.546875 L 1.5 -19.609375 C 1.5 -21.023438 1.863281 -22.09375 2.59375 -22.8125 C 3.332031 -23.539062 4.398438 -23.90625 5.796875 -23.90625 Z M 5.796875 -23.90625 "/></g></g></g></svg>