<svg id="Layer_1" data-name="Layer 1" xmlns="http://www.w3.org/2000/svg" viewBox="0 0 165.92 37.48"><defs><style>.cls-1{fill:#fff;}</style></defs><title>2024homelogo_lightVersion</title><path class="cls-1" d="M23.71,10.14,13.57,16a6.76,6.76,0,0,0-3.35,5.85V32.53h4.27V22.43a3.36,3.36,0,0,1,1.68-2.92l7.54-4.39,9.2,5.35V31.69a3,3,0,0,1-3,3H4.28V5.83H29.93a3,3,0,0,1,3,3V13l4.27,2.49v-8a6,6,0,0,0-5.95-6H0V39H31.23a6,6,0,0,0,5.95-6V18Z" transform="translate(0 -1.52)"/><path class="cls-1" d="M127.18,20.74a8.06,8.06,0,0,0-1.36-.64,5.34,5.34,0,0,0,1.8-1.38,4,4,0,0,0,.94-2.69,4,4,0,0,0-.94-2.75,5.67,5.67,0,0,0-2.55-1.64,11.35,11.35,0,0,0-3.69-.56h-7.77V30.42h8.26a14.26,14.26,0,0,0,4.18-.53,5.34,5.34,0,0,0,2.68-1.73,4.91,4.91,0,0,0,.94-3.12,4.68,4.68,0,0,0-.68-2.56,5.39,5.39,0,0,0-1.81-1.74m-6.47-5.57a2.84,2.84,0,0,1,1.7.42,1.49,1.49,0,0,1,.57,1.3,1.87,1.87,0,0,1-.26,1,1.71,1.71,0,0,1-.76.64,3.22,3.22,0,0,1-1.25.22H119V15.17Zm3,10.38a2,2,0,0,1-1,.62,5.89,5.89,0,0,1-1.45.17H119v-4h2.24a6.48,6.48,0,0,1,1.12.08,2.87,2.87,0,0,1,.91.3,1.58,1.58,0,0,1,.62.58,1.72,1.72,0,0,1,.22.92,2,2,0,0,1-.38,1.31" transform="translate(0 -1.52)"/><path class="cls-1" d="M145,12.26a12.47,12.47,0,0,0-5.65-1.18h-7.24V30.42h7.24A12.6,12.6,0,0,0,145,29.25a8.57,8.57,0,0,0,3.65-3.34,9.93,9.93,0,0,0,1.28-5.16,9.85,9.85,0,0,0-1.28-5.16A8.55,8.55,0,0,0,145,12.26m-1.1,11a3.81,3.81,0,0,1-1.21,1.52,4.45,4.45,0,0,1-1.67.75,8.49,8.49,0,0,1-1.89.21h-1.46v-10h1.46A8.49,8.49,0,0,1,141,16a4.43,4.43,0,0,1,1.67.74,3.88,3.88,0,0,1,1.21,1.52,6,6,0,0,1,.45,2.5,6,6,0,0,1-.45,2.5" transform="translate(0 -1.52)"/><path class="cls-1" d="M165.58,22.52a4.78,4.78,0,0,0-1-1.57,6.65,6.65,0,0,0-1.47-1.2,10.64,10.64,0,0,0-1.86-.87l-2.07-.76a5.78,5.78,0,0,1-1.4-.76,1.23,1.23,0,0,1-.51-1,1,1,0,0,1,.45-.83,2,2,0,0,1,1.19-.31,3,3,0,0,1,1.17.23,4.1,4.1,0,0,1,2,1.74l3.79-2.1a7.69,7.69,0,0,0-1.4-1.86,7.35,7.35,0,0,0-2.31-1.54,8.46,8.46,0,0,0-3.33-.61,8.67,8.67,0,0,0-3.36.63,5.73,5.73,0,0,0-2.41,1.8,4.61,4.61,0,0,0-.91,2.9,5.18,5.18,0,0,0,.5,2.34A5.66,5.66,0,0,0,154,20.42a7.87,7.87,0,0,0,1.6,1.1,13.47,13.47,0,0,0,1.5.69c.92.35,1.64.64,2.15.88a3.51,3.51,0,0,1,1.08.72,1.38,1.38,0,0,1-.24,2,2.28,2.28,0,0,1-1.37.38A4,4,0,0,1,157,25.8a5,5,0,0,1-1.48-1.06,7.6,7.6,0,0,1-1.22-1.65l-3.43,2.5a7.66,7.66,0,0,0,1.76,2.46,8.92,8.92,0,0,0,2.77,1.74,9.43,9.43,0,0,0,3.47.63,9.13,9.13,0,0,0,2.6-.37,7.35,7.35,0,0,0,2.28-1.12,5.27,5.27,0,0,0,1.58-1.86,5.91,5.91,0,0,0,.25-4.55" transform="translate(0 -1.52)"/><path class="cls-1" d="M49.48,11.14V30.31H44V11.14ZM47.59,30.31V25.66h3.34a8.31,8.31,0,0,0,1.87-.21,4.3,4.3,0,0,0,1.66-.74,3.77,3.77,0,0,0,1.19-1.5,5.94,5.94,0,0,0,.45-2.48,5.91,5.91,0,0,0-.45-2.48,3.8,3.8,0,0,0-1.19-1.51A4.62,4.62,0,0,0,52.8,16a8.93,8.93,0,0,0-1.87-.2H47.59V11.14h3.56a12.41,12.41,0,0,1,5.6,1.17,8.43,8.43,0,0,1,3.61,3.3,9.8,9.8,0,0,1,1.27,5.12,9.8,9.8,0,0,1-1.27,5.1,8.48,8.48,0,0,1-3.61,3.32,12.54,12.54,0,0,1-5.6,1.16Z" transform="translate(0 -1.52)"/><path class="cls-1" d="M68.08,27.07a1.36,1.36,0,0,0,.56.44,2,2,0,0,0,.77.15,2.69,2.69,0,0,0,1.15-.26,2.09,2.09,0,0,0,.89-.83,2.63,2.63,0,0,0,.34-1.41l.44,1.65a3.39,3.39,0,0,1-.61,2.05A3.79,3.79,0,0,1,70,30.15a6.07,6.07,0,0,1-2.32.44,5.33,5.33,0,0,1-2.23-.46,3.84,3.84,0,0,1-1.66-1.34,3.66,3.66,0,0,1-.63-2.17,3.47,3.47,0,0,1,1.28-2.85,5.63,5.63,0,0,1,3.68-1,9.45,9.45,0,0,1,2,.19,7.82,7.82,0,0,1,1.61.51,3.35,3.35,0,0,1,1.06.69v2a3.86,3.86,0,0,0-1.37-.71,6.13,6.13,0,0,0-1.73-.25,3.1,3.1,0,0,0-1,.14,1,1,0,0,0-.55.4,1.4,1.4,0,0,0,0,1.37Zm-4-8.31a23.91,23.91,0,0,1,2.78-1,12.18,12.18,0,0,1,3.36-.45,9.38,9.38,0,0,1,3.1.48,5,5,0,0,1,2.19,1.41,3.35,3.35,0,0,1,.81,2.28v8.81H71.79V22.62a2.13,2.13,0,0,0-.12-.74,1.24,1.24,0,0,0-.4-.56,1.76,1.76,0,0,0-.71-.36,3.83,3.83,0,0,0-1-.12,7.1,7.1,0,0,0-1.63.19,10,10,0,0,0-1.47.44,7.2,7.2,0,0,0-.87.38Z" transform="translate(0 -1.52)"/><path class="cls-1" d="M84,9V30.31H79.24V9Z" transform="translate(0 -1.52)"/><path class="cls-1" d="M91,27.07a1.3,1.3,0,0,0,.56.44,2,2,0,0,0,.77.15,2.72,2.72,0,0,0,1.15-.26,2.14,2.14,0,0,0,.89-.83,2.63,2.63,0,0,0,.34-1.41l.44,1.65a3.39,3.39,0,0,1-.62,2.05,3.74,3.74,0,0,1-1.67,1.29,6,6,0,0,1-2.31.44,5.33,5.33,0,0,1-2.23-.46,3.84,3.84,0,0,1-1.66-1.34,3.66,3.66,0,0,1-.63-2.17,3.5,3.5,0,0,1,1.27-2.85,5.67,5.67,0,0,1,3.69-1,9.35,9.35,0,0,1,2,.19,7.73,7.73,0,0,1,1.62.51,3.18,3.18,0,0,1,1,.69v2a3.81,3.81,0,0,0-1.36-.71,6.18,6.18,0,0,0-1.73-.25,3.06,3.06,0,0,0-1,.14,1,1,0,0,0-.55.4,1.23,1.23,0,0,0-.16.67A1.16,1.16,0,0,0,91,27.07Zm-4-8.31a23.91,23.91,0,0,1,2.78-1,12.16,12.16,0,0,1,3.35-.45,9.44,9.44,0,0,1,3.11.48,5,5,0,0,1,2.19,1.41,3.35,3.35,0,0,1,.81,2.28v8.81H94.74V22.62a2.13,2.13,0,0,0-.12-.74,1.32,1.32,0,0,0-.4-.56,1.76,1.76,0,0,0-.71-.36,3.83,3.83,0,0,0-1-.12,7.1,7.1,0,0,0-1.63.19,10,10,0,0,0-1.47.44,7.2,7.2,0,0,0-.87.38Z" transform="translate(0 -1.52)"/><path class="cls-1" d="M109.88,17.72v3.83h-9.06V17.72Zm-2.27-4.39v17h-4.52v-17Z" transform="translate(0 -1.52)"/></svg>